<svg width="478" height="177" viewBox="0 0 478 177" fill="none" xmlns="http://www.w3.org/2000/svg">
<path d="M154.084 77.6714C154.084 60.8781 140.47 47.2644 123.677 47.2644C106.883 47.2644 93.2696 60.8781 93.2696 77.6714C93.2696 94.4647 106.883 108.078 123.677 108.078V119.107C100.792 119.107 82.2412 100.556 82.2412 77.6714C82.2412 54.7872 100.792 36.2359 123.677 36.2359C146.561 36.2359 165.112 54.7872 165.112 77.6714C165.112 100.556 146.561 119.107 123.677 119.107V108.078C140.47 108.078 154.084 94.4647 154.084 77.6714Z" fill="#02A650"/>
<path d="M118.477 51.2037C118.477 34.4103 104.863 20.7967 88.0699 20.7967C71.2766 20.7967 57.6629 34.4103 57.6629 51.2037C57.6629 67.997 71.2766 81.6106 88.0699 81.6106V92.6391C65.1858 92.6391 46.6345 74.0878 46.6345 51.2037C46.6345 28.3195 65.1858 9.76822 88.0699 9.76822C110.954 9.76822 129.505 28.3195 129.505 51.2037C129.505 74.0878 110.954 92.6391 88.0699 92.6391V81.6106C104.863 81.6106 118.477 67.997 118.477 51.2037Z" fill="black"/>
<path d="M82.5567 77.6714C82.5567 60.8781 68.943 47.2644 52.1497 47.2644C35.3564 47.2644 21.7427 60.8781 21.7427 77.6714C21.7427 94.4647 35.3564 108.078 52.1497 108.078V119.107C29.2655 119.107 10.7142 100.556 10.7142 77.6714C10.7142 54.7872 29.2655 36.2359 52.1497 36.2359C75.0338 36.2359 93.5851 54.7872 93.5851 77.6714C93.5851 100.556 75.0338 119.107 52.1497 119.107V108.078C68.943 108.078 82.5567 94.4647 82.5567 77.6714Z" fill="#FFF002"/>
<path d="M99.2572 119.895C99.2572 103.101 85.6436 89.4878 68.8503 89.4878C52.0569 89.4878 38.4433 103.101 38.4433 119.895C38.4433 136.688 52.0569 150.302 68.8503 150.302V161.33C45.9661 161.33 27.4148 142.779 27.4148 119.895C27.4148 97.0106 45.9661 78.4593 68.8503 78.4593C91.7344 78.4593 110.286 97.0106 110.286 119.895C110.286 142.779 91.7344 161.33 68.8503 161.33V150.302C85.6436 150.302 99.2572 136.688 99.2572 119.895Z" fill="#302F93"/>
<path d="M166.687 88.2275C166.687 44.8956 131.56 9.76805 88.2275 9.76805C44.8956 9.76805 9.76805 44.8956 9.76805 88.2275C9.76805 131.56 44.8956 166.687 88.2275 166.687C131.56 166.687 166.687 131.56 166.687 88.2275ZM176.455 88.2275C176.455 136.954 136.954 176.455 88.2275 176.455C39.5008 176.455 0 136.954 0 88.2275C0 39.5008 39.5008 0 88.2275 0C136.954 0 176.455 39.5008 176.455 88.2275Z" fill="#FFCB05"/>
<path d="M138.329 119.895C138.329 103.101 124.715 89.4878 107.922 89.4878C91.1287 89.4878 77.5151 103.101 77.5151 119.895C77.5151 136.688 91.1287 150.302 107.922 150.302V161.33C85.0379 161.33 66.4866 142.779 66.4866 119.895C66.4866 97.0106 85.0379 78.4593 107.922 78.4593C130.806 78.4593 149.357 97.0106 149.357 119.895C149.357 142.779 130.806 161.33 107.922 161.33V150.302C124.715 150.302 138.329 136.688 138.329 119.895Z" fill="#EB1C24"/>
<path d="M150.932 88.0701C150.932 122.614 122.929 150.617 88.3851 150.617C53.8414 150.617 25.8381 122.614 25.8381 88.0701C25.8381 53.5264 53.8414 25.5231 88.3851 25.5231C122.929 25.5231 150.932 53.5264 150.932 88.0701Z" fill="white"/>
<path d="M143.818 88.0701C143.818 57.4555 119 32.6375 88.3851 32.6375C57.7705 32.6375 32.9525 57.4555 32.9525 88.0701C32.9525 118.685 57.7705 143.503 88.3851 143.503V150.617C53.8414 150.617 25.8381 122.614 25.8381 88.0701C25.8381 53.5264 53.8414 25.5231 88.3851 25.5231C122.929 25.5231 150.932 53.5264 150.932 88.0701C150.932 122.614 122.929 150.617 88.3851 150.617V143.503C119 143.503 143.818 118.685 143.818 88.0701Z" fill="#FFCB05"/>
<path d="M129.506 87.9128C129.506 110.362 111.237 128.561 88.7011 128.561C66.165 128.561 47.8958 110.362 47.8958 87.9128C47.8958 65.4637 66.165 47.2651 88.7011 47.2651C111.237 47.2651 129.506 65.4637 129.506 87.9128Z" fill="#FFC909"/>
<path d="M121.509 87.5289C121.509 69.5225 106.875 54.9214 88.8183 54.9214C70.7612 54.9214 56.1271 69.5225 56.1271 87.5289C56.1271 105.535 70.7612 120.136 88.8183 120.136V121.188C70.1823 121.188 55.0749 106.119 55.0749 87.5289C55.0749 68.9394 70.1823 53.8696 88.8183 53.8696C107.454 53.8696 122.562 68.9394 122.562 87.5289C122.562 106.119 107.454 121.188 88.8183 121.188V120.136C106.875 120.136 121.509 105.535 121.509 87.5289Z" fill="white"/>
<path d="M115.347 87.7543C115.347 73.0264 103.371 61.0822 88.5928 61.0822C73.8142 61.0822 61.8386 73.0264 61.8386 87.7543C61.8386 102.482 73.8142 114.426 88.5928 114.426V115.478C73.2358 115.478 60.7865 103.066 60.7865 87.7543C60.7865 72.4428 73.2358 60.0304 88.5928 60.0304C103.95 60.0304 116.399 72.4428 116.399 87.7543C116.399 103.066 103.95 115.478 88.5928 115.478V114.426C103.371 114.426 115.347 102.482 115.347 87.7543Z" fill="white"/>
<path d="M109.485 87.8295C109.485 99.199 100.266 108.416 88.8934 108.416C77.5209 108.416 68.3017 99.199 68.3017 87.8295C68.3017 76.46 77.5209 67.2432 88.8934 67.2432C100.266 67.2432 109.485 76.46 109.485 87.8295Z" fill="white"/>
<path d="M99.0614 87.7829C99.0614 82.1629 94.4863 77.5977 88.8313 77.5977C83.1763 77.5977 78.6012 82.1629 78.6012 87.7829C78.6012 93.4029 83.1763 97.968 88.8313 97.968V99.4707L88.6797 99.4698C82.2695 99.3889 77.0982 94.1875 77.0982 87.7829C77.0982 81.3279 82.3513 76.0951 88.8313 76.0951L88.9829 76.0961C95.3931 76.177 100.564 81.3783 100.564 87.7829L100.563 87.934C100.482 94.3194 95.2607 99.4707 88.8313 99.4707V97.968C94.4863 97.968 99.0614 93.4029 99.0614 87.7829Z" fill="#FFC909"/>
<path d="M97.0098 87.8294C97.0098 92.2279 93.4096 95.7935 88.9685 95.7935C84.5275 95.7935 80.9273 92.2279 80.9273 87.8294C80.9273 83.431 84.5275 79.8654 88.9685 79.8654C93.4096 79.8654 97.0098 83.431 97.0098 87.8294Z" fill="black"/>
<path d="M89.1319 76.0949V99.4705H88.5307V76.0949H89.1319Z" fill="#FFC909"/>
<path d="M100.564 87.4824V88.0834H77.0981V87.4824H100.564Z" fill="#FFC909"/>
<path d="M63.5 52.2077C63.0298 52.5269 62.5492 52.7155 62.0584 52.7736C61.5633 52.8254 61.0967 52.7431 60.6586 52.5269C60.2268 52.3064 59.8562 51.9664 59.5466 51.507L58.0965 49.3547C57.7912 48.9015 57.6223 48.4338 57.5897 47.9514C57.5529 47.4628 57.6495 47.0028 57.8797 46.5714C58.1119 46.1294 58.4631 45.7488 58.9333 45.4296C59.4098 45.1061 59.8925 44.9206 60.3813 44.8731C60.8721 44.815 61.3366 44.8941 61.7747 45.1104C62.2085 45.3203 62.578 45.6518 62.8833 46.105L64.3335 48.2573C64.643 48.7168 64.8162 49.1908 64.853 49.6794C64.8898 50.1681 64.7921 50.6334 64.5599 51.0753C64.3298 51.5067 63.9765 51.8842 63.5 52.2077ZM62.8639 51.2636C63.2589 50.9955 63.4929 50.6578 63.5657 50.2506C63.6386 49.8435 63.5394 49.4385 63.268 49.0357L61.7861 46.8361C61.5105 46.427 61.1709 46.1807 60.7672 46.097C60.3636 46.0132 59.9643 46.1055 59.5693 46.3736C59.1806 46.6375 58.9498 46.973 58.877 47.3802C58.8041 47.7874 58.9054 48.1955 59.1811 48.6046L60.663 50.8042C60.9344 51.207 61.2718 51.4502 61.6755 51.5339C62.0791 51.6176 62.4752 51.5275 62.8639 51.2636Z" fill="black"/>
<path d="M38.2418 82.387C38.2796 82.3897 38.3125 82.4074 38.3405 82.4399C38.3615 82.4642 38.3706 82.4954 38.3679 82.5333L38.0889 86.4093C38.0862 86.4472 38.1037 86.4676 38.1414 86.4703L40.2589 86.6239C40.2967 86.6266 40.3169 86.609 40.3196 86.5711L40.507 83.9681C40.5097 83.9303 40.527 83.901 40.5589 83.8805C40.5837 83.8518 40.615 83.8389 40.6527 83.8416L41.5133 83.904C41.5511 83.9068 41.5839 83.9244 41.612 83.9569C41.633 83.9813 41.6421 84.0124 41.6394 84.0503L41.452 86.6533C41.4493 86.6912 41.4668 86.7115 41.5045 86.7142L43.69 86.8727C43.7278 86.8755 43.748 86.8579 43.7507 86.82L44.0297 82.9439C44.0325 82.906 44.0497 82.8768 44.0816 82.8563C44.1064 82.8276 44.1377 82.8146 44.1754 82.8174L45.036 82.8798C45.0738 82.8825 45.1067 82.9002 45.1347 82.9327C45.1557 82.957 45.1648 82.9882 45.1621 83.0261L44.7939 88.1411C44.7912 88.179 44.7774 88.2123 44.7526 88.241C44.7207 88.2615 44.6859 88.2704 44.6482 88.2677L36.9934 87.7124C36.9557 87.7097 36.9263 87.6962 36.9053 87.6718C36.8772 87.6393 36.8646 87.6041 36.8673 87.5662L37.2355 82.4511C37.2383 82.4132 37.2555 82.384 37.2874 82.3635C37.3122 82.3348 37.3435 82.3219 37.3812 82.3246L38.2418 82.387Z" fill="black"/>
<path d="M45.7459 97.0394C45.7507 97.077 45.7438 97.1124 45.7252 97.1454C45.6981 97.1719 45.6658 97.1876 45.6282 97.1925L38.0168 98.1802C37.9793 98.1851 37.9478 98.1777 37.9224 98.158C37.8885 98.1318 37.8691 98.0998 37.8642 98.0621L37.5091 95.3044C37.4402 94.7694 37.4733 94.2863 37.6086 93.855C37.7439 93.4238 37.9738 93.076 38.2985 92.8117C38.6146 92.5409 39.0054 92.3752 39.4708 92.3149L42.7361 91.8911C43.2015 91.8307 43.6251 91.8907 44.007 92.0709C44.3805 92.2446 44.6872 92.5228 44.9273 92.9053C45.1673 93.2878 45.3218 93.7466 45.3907 94.2816L45.7459 97.0394ZM44.4122 96.0173C44.4498 96.0124 44.4661 95.9912 44.4613 95.9535L44.2575 94.3712C44.206 93.9718 44.0414 93.6714 43.7636 93.47C43.4774 93.262 43.1236 93.1815 42.7023 93.2285L39.8536 93.5982C39.4257 93.6537 39.1035 93.8181 38.8868 94.0914C38.6627 94.3656 38.5768 94.7061 38.6292 95.113L38.8315 96.6841C38.8364 96.7217 38.8576 96.7381 38.8951 96.7333L44.4122 96.0173Z" fill="black"/>
<path d="M40.0715 102.549C40.1073 102.537 40.1445 102.54 40.1829 102.559C40.2117 102.573 40.2322 102.598 40.2444 102.634L41.4905 106.314C41.5026 106.35 41.5266 106.362 41.5625 106.349L43.5725 105.663C43.6084 105.651 43.6202 105.627 43.608 105.591L42.7712 103.12C42.759 103.084 42.7636 103.051 42.7849 103.019C42.7967 102.983 42.8205 102.959 42.8563 102.947L43.6732 102.668C43.7091 102.656 43.7462 102.659 43.7846 102.678C43.8134 102.692 43.8339 102.718 43.8461 102.753L44.6829 105.224C44.6951 105.26 44.7191 105.272 44.7549 105.26L46.8295 104.552C46.8653 104.54 46.8771 104.516 46.865 104.48L45.6189 100.8C45.6067 100.764 45.6113 100.731 45.6326 100.699C45.6444 100.663 45.6682 100.639 45.704 100.627L46.5209 100.348C46.5567 100.336 46.5939 100.339 46.6323 100.358C46.6611 100.372 46.6816 100.398 46.6938 100.434L48.3382 105.289C48.3504 105.325 48.3506 105.361 48.3388 105.397C48.3175 105.428 48.2889 105.45 48.253 105.462L40.9867 107.942C40.9509 107.954 40.9186 107.953 40.8898 107.939C40.8513 107.92 40.8261 107.893 40.8139 107.857L39.1695 103.001C39.1573 102.965 39.1619 102.932 39.1832 102.9C39.195 102.864 39.2188 102.84 39.2546 102.828L40.0715 102.549Z" fill="black"/>
<path d="M63.4814 123.665C63.9377 124.004 64.2749 124.396 64.4928 124.842C64.7062 125.293 64.7843 125.762 64.727 126.249C64.6636 126.731 64.4676 127.195 64.139 127.641L62.5998 129.73C62.2757 130.17 61.8926 130.485 61.4503 130.677C61.0035 130.874 60.5392 130.936 60.0573 130.861C59.5649 130.789 59.0904 130.583 58.634 130.244C58.1716 129.901 57.8367 129.506 57.6293 129.059C57.4114 128.613 57.3311 128.148 57.3884 127.661C57.4412 127.18 57.6297 126.72 57.9537 126.28L59.493 124.191C59.8215 123.745 60.2092 123.424 60.656 123.226C61.1027 123.029 61.5723 122.966 62.0648 123.039C62.5467 123.113 63.0189 123.322 63.4814 123.665ZM62.8062 124.582C62.4229 124.297 62.0278 124.188 61.621 124.255C61.2143 124.321 60.8669 124.55 60.5788 124.941L59.0058 127.076C58.7132 127.473 58.5948 127.876 58.6505 128.286C58.7062 128.696 58.9258 129.043 59.3092 129.328C59.6864 129.608 60.0785 129.715 60.4852 129.648C60.892 129.582 61.2417 129.35 61.5342 128.953L63.1072 126.818C63.3953 126.427 63.5114 126.027 63.4557 125.617C63.4 125.207 63.1835 124.862 62.8062 124.582Z" fill="black"/>
<path d="M87.7836 131.748C88.3507 131.773 88.845 131.905 89.2664 132.144C89.6875 132.391 90.0063 132.724 90.2229 133.144C90.4394 133.564 90.5362 134.04 90.513 134.571L90.3931 137.327C90.3696 137.866 90.2319 138.331 89.98 138.723C89.7277 139.123 89.3813 139.423 88.9407 139.624C88.4998 139.833 87.9958 139.925 87.4286 139.9C86.8691 139.876 86.3824 139.744 85.9685 139.505C85.5471 139.266 85.2274 138.952 85.0095 138.562C84.7917 138.172 84.6931 137.738 84.714 137.26L84.7179 137.169C84.7196 137.131 84.7362 137.097 84.7678 137.068C84.7914 137.047 84.8222 137.037 84.86 137.038L85.8921 137.084C85.9299 137.085 85.9635 137.098 85.9927 137.122C86.0141 137.154 86.0239 137.188 86.0223 137.226L86.0198 137.283C86.002 137.693 86.1272 138.037 86.3954 138.315C86.656 138.592 87.017 138.741 87.4782 138.762C87.9395 138.782 88.3161 138.658 88.6081 138.389C88.8998 138.128 89.0555 137.77 89.0754 137.314L89.1993 134.468C89.2191 134.013 89.0877 133.638 88.805 133.344C88.522 133.058 88.1461 132.905 87.6773 132.884C87.2236 132.864 86.8631 132.966 86.5957 133.19C86.3205 133.422 86.1738 133.746 86.1556 134.163L86.1249 134.869C86.1233 134.907 86.1413 134.927 86.1791 134.929L87.5743 134.99C87.6121 134.992 87.6456 135.005 87.6748 135.029C87.6962 135.06 87.7061 135.095 87.7044 135.133L87.6677 135.975C87.6661 136.013 87.6534 136.043 87.6297 136.065C87.5982 136.094 87.5635 136.107 87.5257 136.106L84.9056 135.991C84.8678 135.989 84.8382 135.973 84.8168 135.941C84.7876 135.917 84.7738 135.886 84.7754 135.848L84.8389 134.391C84.8769 133.518 85.1636 132.85 85.6989 132.387C86.2267 131.923 86.9216 131.71 87.7836 131.748Z" fill="black"/>
<path d="M116.935 121.493C117.379 121.137 117.842 120.911 118.327 120.813C118.816 120.722 119.288 120.766 119.742 120.946C120.19 121.131 120.587 121.44 120.932 121.873L122.55 123.901C122.89 124.328 123.096 124.781 123.167 125.259C123.243 125.743 123.184 126.21 122.989 126.658C122.793 127.117 122.473 127.525 122.03 127.881C121.581 128.242 121.115 128.466 120.631 128.553C120.147 128.65 119.677 128.609 119.223 128.429C118.774 128.254 118.379 127.954 118.039 127.527L116.421 125.498C116.075 125.065 115.865 124.607 115.789 124.123C115.713 123.639 115.773 123.167 115.969 122.708C116.164 122.259 116.486 121.854 116.935 121.493ZM117.645 122.383C117.273 122.682 117.067 123.038 117.026 123.449C116.986 123.861 117.118 124.257 117.421 124.636L119.074 126.709C119.381 127.095 119.739 127.313 120.148 127.364C120.557 127.415 120.948 127.291 121.32 126.992C121.687 126.697 121.89 126.344 121.93 125.932C121.97 125.521 121.836 125.122 121.529 124.736L119.876 122.664C119.573 122.284 119.217 122.069 118.808 122.018C118.399 121.967 118.011 122.089 117.645 122.383Z" fill="black"/>
<path d="M123.145 115.095C123.508 114.657 123.917 114.341 124.372 114.147C124.833 113.959 125.304 113.907 125.785 113.992C126.261 114.082 126.711 114.305 127.136 114.659L129.128 116.319C129.547 116.668 129.84 117.07 130.005 117.524C130.177 117.983 130.212 118.451 130.111 118.93C130.011 119.42 129.78 119.884 129.417 120.322C129.05 120.766 128.638 121.08 128.182 121.263C127.727 121.456 127.259 121.51 126.778 121.426C126.303 121.346 125.856 121.131 125.437 120.782L123.445 119.122C123.02 118.768 122.722 118.361 122.55 117.902C122.379 117.443 122.343 116.969 122.443 116.48C122.544 116.001 122.778 115.539 123.145 115.095ZM124.019 115.823C123.714 116.191 123.584 116.581 123.627 116.993C123.671 117.404 123.879 117.765 124.251 118.076L126.287 119.772C126.665 120.087 127.06 120.229 127.471 120.196C127.882 120.163 128.239 119.962 128.544 119.594C128.844 119.232 128.972 118.845 128.928 118.433C128.885 118.022 128.674 117.658 128.295 117.343L126.26 115.647C125.887 115.336 125.496 115.197 125.085 115.23C124.674 115.263 124.319 115.461 124.019 115.823Z" fill="black"/>
<path d="M131.16 99.285C131.326 98.7165 131.562 98.2476 131.868 97.8784C132.173 97.5092 132.523 97.2562 132.918 97.1194C133.311 96.9899 133.729 96.9905 134.172 97.1212L134.445 97.2016C134.481 97.2123 134.507 97.2318 134.522 97.2601C134.543 97.2979 134.548 97.335 134.537 97.3714L134.252 98.3445C134.241 98.3809 134.218 98.4058 134.183 98.4191C134.152 98.4418 134.119 98.4478 134.083 98.4371L133.876 98.376C133.542 98.2774 133.218 98.3444 132.906 98.5768C132.6 98.8113 132.372 99.1874 132.22 99.7049C132.09 100.15 132.086 100.513 132.209 100.794C132.331 101.076 132.542 101.261 132.839 101.349C133.043 101.409 133.231 101.397 133.406 101.314C133.587 101.233 133.77 101.093 133.955 100.894C134.137 100.702 134.383 100.403 134.691 99.9947C135.032 99.5329 135.333 99.1663 135.593 98.8949C135.854 98.6235 136.159 98.4202 136.506 98.2851C136.858 98.1595 137.249 98.1599 137.677 98.2863C138.316 98.4749 138.752 98.8571 138.986 99.4329C139.22 100.009 139.222 100.687 138.994 101.467C138.834 102.013 138.598 102.466 138.288 102.826C137.975 103.193 137.614 103.443 137.205 103.576C136.802 103.71 136.38 103.712 135.937 103.581L135.751 103.527C135.715 103.516 135.687 103.492 135.666 103.454C135.651 103.426 135.649 103.393 135.659 103.357L135.947 102.373C135.958 102.337 135.979 102.307 136.009 102.284C136.044 102.271 136.08 102.27 136.117 102.28L136.236 102.316C136.578 102.416 136.906 102.359 137.222 102.143C137.543 101.937 137.775 101.586 137.921 101.09C138.038 100.689 138.046 100.351 137.946 100.076C137.843 99.8082 137.639 99.6292 137.334 99.5392C137.116 99.4749 136.921 99.4807 136.749 99.5566C136.577 99.6325 136.398 99.7699 136.214 99.9689C136.037 100.17 135.789 100.489 135.472 100.926C135.124 101.386 134.826 101.745 134.576 102.004C134.325 102.27 134.022 102.47 133.667 102.603C133.318 102.745 132.929 102.753 132.5 102.627C131.847 102.434 131.399 102.036 131.158 101.434C130.914 100.84 130.914 100.123 131.16 99.285Z" fill="black"/>
<path d="M114.296 52.2377C113.84 51.8975 113.504 51.5045 113.287 51.0586C113.075 50.6066 112.999 50.1373 113.057 49.6509C113.122 49.1689 113.319 48.7055 113.649 48.2605L115.194 46.1758C115.52 45.7369 115.904 45.4224 116.346 45.2323C116.794 45.0361 117.258 44.9758 117.74 45.0514C118.232 45.1255 118.706 45.3326 119.161 45.6727C119.623 46.0174 119.957 46.4135 120.163 46.861C120.38 47.3069 120.459 47.7731 120.4 48.2595C120.346 48.7399 120.156 49.1995 119.831 49.6384L118.285 51.7231C117.956 52.1681 117.567 52.4887 117.12 52.6849C116.672 52.8811 116.203 52.9422 115.71 52.8681C115.229 52.7925 114.757 52.5823 114.296 52.2377ZM114.973 51.3233C115.356 51.609 115.751 51.7192 116.158 51.6538C116.565 51.5884 116.913 51.3607 117.202 50.9706L118.781 48.8402C119.074 48.4439 119.194 48.0408 119.139 47.6307C119.085 47.2207 118.866 46.8728 118.484 46.5871C118.107 46.3059 117.716 46.198 117.309 46.2634C116.902 46.3288 116.551 46.5596 116.258 46.9558L114.679 49.0862C114.39 49.4763 114.272 49.8764 114.327 50.2865C114.381 50.6965 114.597 51.0421 114.973 51.3233Z" fill="black"/>
<path d="M98.1084 45.0643C97.5635 44.9342 97.1066 44.7119 96.7377 44.3974C96.3687 44.0828 96.1129 43.7015 95.9701 43.2535C95.8364 42.7999 95.8308 42.3144 95.9534 41.797L97.1644 36.6858C97.1731 36.6488 97.1912 36.6219 97.2185 36.605C97.255 36.5825 97.2916 36.5756 97.3284 36.5844L98.3446 36.827C98.3814 36.8358 98.4074 36.8576 98.4224 36.8924C98.4466 36.9216 98.4544 36.9547 98.4456 36.9917L97.2294 42.125C97.126 42.5611 97.1782 42.9484 97.3859 43.287C97.5935 43.6255 97.9219 43.8484 98.3711 43.9556C98.8202 44.0628 99.2134 44.0122 99.5507 43.8038C99.8879 43.5953 100.108 43.2731 100.212 42.837L101.428 37.7036C101.437 37.6667 101.455 37.6397 101.482 37.6228C101.518 37.6003 101.555 37.5934 101.592 37.6022L102.608 37.8448C102.645 37.8536 102.671 37.8754 102.686 37.9102C102.71 37.9395 102.718 37.9725 102.709 38.0095L101.498 43.1207C101.375 43.6381 101.153 44.0691 100.83 44.4137C100.509 44.751 100.113 44.9767 99.6425 45.0908C99.172 45.205 98.6607 45.1962 98.1084 45.0643Z" fill="black"/>
<path d="M70.9003 39.0932C70.9351 39.0782 70.9689 39.0801 71.0017 39.0991C71.0385 39.108 71.0644 39.1299 71.0793 39.1648L74.1103 46.2426C74.1252 46.2775 74.1247 46.3149 74.1089 46.3548L74.1039 46.3657C74.091 46.3903 74.0694 46.4091 74.0389 46.4222L73.1106 46.8228C73.0411 46.8528 72.9804 46.8459 72.9287 46.802L67.8085 43.1564C67.7856 43.1415 67.7687 43.1405 67.7578 43.1535C67.7439 43.1595 67.7429 43.1764 67.7549 43.2043L69.8651 48.0744C69.8801 48.1093 69.8796 48.1467 69.8637 48.1866L69.8588 48.1975C69.8459 48.2221 69.8242 48.2409 69.7938 48.254L68.8342 48.6681C68.7994 48.6831 68.7636 48.6861 68.7268 48.6772C68.694 48.6583 68.6701 48.6314 68.6552 48.5965L65.6242 41.5187C65.6093 41.4838 65.6078 41.4514 65.6197 41.4214C65.6355 41.3815 65.6608 41.3541 65.6956 41.3391L66.6239 40.9385C66.6934 40.9085 66.7541 40.9154 66.8058 40.9592L71.9156 44.6094C71.9385 44.6243 71.9568 44.6288 71.9708 44.6228C71.9817 44.6098 71.9812 44.5894 71.9692 44.5615L69.8694 39.6869C69.8544 39.652 69.8529 39.6196 69.8648 39.5896C69.8807 39.5497 69.906 39.5223 69.9407 39.5073L70.9003 39.0932Z" fill="black"/>
<path d="M58.9333 45.4296C59.4098 45.1061 59.8925 44.9206 60.3813 44.8731C60.8721 44.815 61.3366 44.8941 61.7747 45.1104C62.2085 45.3203 62.578 45.6518 62.8833 46.105L64.3335 48.2573C64.643 48.7168 64.8162 49.1908 64.853 49.6794C64.8898 50.1681 64.7921 50.6334 64.5599 51.0753C64.3298 51.5067 63.9765 51.8842 63.5 52.2077C63.0298 52.5269 62.5492 52.7155 62.0584 52.7736C61.5633 52.8254 61.0967 52.7431 60.6586 52.5269C60.2268 52.3064 59.8562 51.9664 59.5466 51.507L58.0965 49.3547C57.7912 48.9015 57.6223 48.4338 57.5897 47.9514C57.5529 47.4628 57.6495 47.0028 57.8797 46.5714C58.1119 46.1294 58.4631 45.7488 58.9333 45.4296ZM60.7672 46.097C60.3636 46.0132 59.9643 46.1055 59.5693 46.3736C59.1806 46.6375 58.9498 46.973 58.877 47.3802C58.8041 47.7874 58.9054 48.1955 59.1811 48.6046L60.663 50.8042C60.9344 51.207 61.2718 51.4502 61.6755 51.5339C62.0791 51.6176 62.4752 51.5275 62.8639 51.2636C63.2589 50.9955 63.4929 50.6578 63.5657 50.2506C63.6386 49.8435 63.5394 49.4385 63.268 49.0357L61.7861 46.8361C61.5105 46.427 61.1709 46.1807 60.7672 46.097Z" fill="black"/>
<path d="M52.9816 50.2488C53.0092 50.2228 53.0416 50.2132 53.0789 50.2198C53.1165 50.2157 53.1483 50.2275 53.1741 50.2552L58.4178 55.8807L58.4268 55.8914C58.4464 55.9174 58.4557 55.9491 58.4544 55.9867C58.4534 56.0189 58.439 56.048 58.4114 56.0739L57.6487 56.7903L57.627 56.8077C57.6044 56.8231 57.579 56.8323 57.5508 56.8354L57.524 56.8285C57.4981 56.8196 57.4755 56.8047 57.4561 56.7839L52.2125 51.1584C52.1866 51.1307 52.1742 51.1007 52.1753 51.0685C52.1767 51.0255 52.1912 50.9911 52.2189 50.9651L52.9816 50.2488Z" fill="black"/>
<path d="M49.2691 54.397L49.2829 54.3966C49.3195 54.3868 49.3527 54.3937 49.3824 54.4172L50.0691 54.9602C50.0989 54.9837 50.1163 55.0168 50.1213 55.0595C50.1251 55.0915 50.1153 55.1224 50.0919 55.1523L48.7993 56.7996C48.7758 56.8294 48.779 56.8561 48.8087 56.8796L53.9994 60.9837C54.0292 61.0072 54.0466 61.0403 54.0516 61.083C54.0554 61.115 54.0456 61.1459 54.0222 61.1758L53.3759 61.9994L53.357 62.02C53.337 62.0386 53.3133 62.0515 53.2859 62.0588L53.2583 62.056C53.2314 62.0511 53.2068 62.0399 53.1845 62.0222L47.9938 57.9181C47.9641 57.8946 47.9375 57.8977 47.9141 57.9276L46.6707 59.5122L46.6518 59.5327C46.6318 59.5513 46.6081 59.5643 46.5807 59.5716L46.553 59.5689C46.5351 59.5656 46.5183 59.5595 46.5024 59.5505L46.4794 59.535L45.7926 58.992C45.7629 58.9685 45.7461 58.9408 45.7423 58.9088C45.7373 58.8661 45.7465 58.8298 45.7699 58.8L49.1911 54.44C49.2116 54.4139 49.2376 54.3996 49.2691 54.397Z" fill="black"/>
<path d="M42.7888 64.0677C42.8235 64.0002 42.8797 63.9737 42.9573 63.9883L50.9127 65.3122C50.9296 65.3124 50.9482 65.3178 50.9684 65.3282C51.0289 65.3596 51.0401 65.4124 51.0019 65.4866L50.4814 66.4995C50.4467 66.567 50.3906 66.5935 50.3129 66.5789L49.0615 66.3541C49.0277 66.3537 49.0055 66.3636 48.9951 66.3838L47.621 69.0577C47.6106 69.0779 47.6154 69.1018 47.6354 69.1292L48.5432 70.0225C48.6001 70.0776 48.6112 70.1389 48.5765 70.2064L48.056 71.2192L48.0395 71.2467C48.0221 71.2714 48.0018 71.2874 47.9789 71.2947C47.9415 71.301 47.9028 71.2853 47.8627 71.2474L42.1714 65.5177C42.1146 65.4626 42.1035 65.4013 42.1382 65.3338L42.7888 64.0677ZM43.9597 65.4434C43.9293 65.4363 43.9107 65.4394 43.9037 65.4529C43.8968 65.4664 43.905 65.4835 43.9285 65.5042L46.7777 68.2876C46.8145 68.3152 46.8417 68.3122 46.859 68.2784L47.9156 66.2224C47.9364 66.1818 47.9232 66.1579 47.8759 66.1505L43.9597 65.4434Z" fill="black"/>
<path d="M40.4487 72.6582C40.8373 72.5636 41.2501 72.5785 41.687 72.7029C42.1894 72.8461 42.5818 73.1 42.8641 73.4648C43.1413 73.8202 43.284 74.2478 43.2921 74.7477C43.288 74.7623 43.2922 74.7753 43.3047 74.7868C43.3172 74.7982 43.3317 74.8024 43.3484 74.7992L46.9637 74.1589L46.9868 74.155C47.0083 74.1523 47.0245 74.1525 47.0354 74.1556C47.0937 74.1722 47.1114 74.2207 47.0887 74.3011L46.7911 75.3536L46.7821 75.3795C46.7582 75.4365 46.714 75.4698 46.6494 75.4791L43.0948 76.0301C43.0615 76.0364 43.0408 76.0542 43.0325 76.0834L42.6605 77.3991C42.6502 77.4356 42.6632 77.4591 42.6996 77.4694L45.8014 78.3531C45.8378 78.3635 45.8665 78.3874 45.8873 78.425C45.903 78.4531 45.9056 78.4855 45.8953 78.522L45.6101 79.5306L45.6005 79.5567C45.5891 79.5815 45.572 79.6027 45.5495 79.62C45.523 79.6302 45.4962 79.6336 45.4691 79.6303L45.4419 79.6249L38.0587 77.5215C38.0223 77.5111 37.9963 77.4918 37.9806 77.4637C37.9598 77.4261 37.9545 77.3891 37.9648 77.3526L38.8173 74.3376C38.9433 73.8918 39.1496 73.5241 39.436 73.2345C39.7152 72.9428 40.0527 72.7507 40.4487 72.6582ZM41.3383 73.9778C40.9961 73.8803 40.6884 73.9111 40.4153 74.0702C40.1442 74.222 39.959 74.4734 39.8599 74.8242L39.3949 76.4687C39.3846 76.5053 39.3976 76.5287 39.434 76.5391L41.6074 77.1583C41.6439 77.1686 41.6672 77.1556 41.6776 77.119L42.1425 75.4745C42.2417 75.1237 42.2193 74.8132 42.0754 74.5432C41.9262 74.2638 41.6805 74.0753 41.3383 73.9778Z" fill="black"/>
<path d="M37.2874 82.3635C37.3122 82.3348 37.3435 82.3219 37.3812 82.3246L38.2418 82.387C38.2796 82.3897 38.3125 82.4074 38.3405 82.4399C38.3615 82.4642 38.3706 82.4954 38.3679 82.5333L38.0889 86.4093C38.0862 86.4472 38.1037 86.4676 38.1414 86.4703L40.2589 86.6239C40.2967 86.6266 40.3169 86.609 40.3196 86.5711L40.507 83.9681C40.5097 83.9303 40.527 83.901 40.5589 83.8805C40.5837 83.8518 40.615 83.8389 40.6527 83.8416L41.5133 83.904C41.5511 83.9068 41.5839 83.9244 41.612 83.9569C41.633 83.9813 41.6421 84.0124 41.6394 84.0503L41.452 86.6533C41.4493 86.6912 41.4668 86.7115 41.5045 86.7142L43.69 86.8727C43.7278 86.8755 43.748 86.8579 43.7507 86.82L44.0297 82.9439C44.0325 82.906 44.0497 82.8768 44.0816 82.8563C44.1064 82.8276 44.1377 82.8146 44.1754 82.8174L45.036 82.8798C45.0738 82.8825 45.1067 82.9002 45.1347 82.9327C45.1557 82.957 45.1648 82.9882 45.1621 83.0261L44.7939 88.1411C44.7912 88.179 44.7774 88.2123 44.7526 88.241C44.7207 88.2615 44.6859 88.2704 44.6482 88.2677L36.9934 87.7124C36.9557 87.7097 36.9263 87.6962 36.9053 87.6718C36.8772 87.6393 36.8646 87.6041 36.8673 87.5662L37.2355 82.4511C37.2383 82.4132 37.2555 82.384 37.2874 82.3635Z" fill="black"/>
<path d="M38.2985 92.8117C38.6146 92.5409 39.0054 92.3752 39.4708 92.3149L42.7361 91.8911C43.2015 91.8307 43.6251 91.8907 44.007 92.0709C44.3805 92.2446 44.6872 92.5228 44.9273 92.9053C45.1673 93.2878 45.3218 93.7466 45.3907 94.2816L45.7459 97.0394C45.7507 97.077 45.7438 97.1124 45.7252 97.1454C45.6981 97.1719 45.6658 97.1876 45.6282 97.1925L38.0168 98.1802C37.9793 98.1851 37.9478 98.1777 37.9224 98.158C37.8885 98.1318 37.8691 98.0998 37.8642 98.0621L37.5091 95.3044C37.4402 94.7694 37.4733 94.2863 37.6086 93.855C37.7439 93.4238 37.9738 93.076 38.2985 92.8117ZM39.8536 93.5982C39.4257 93.6537 39.1035 93.8181 38.8868 94.0914C38.6627 94.3656 38.5768 94.7061 38.6292 95.113L38.8315 96.6841C38.8364 96.7217 38.8576 96.7381 38.8951 96.7333L44.4122 96.0173C44.4498 96.0124 44.4661 95.9912 44.4613 95.9535L44.2575 94.3712C44.206 93.9718 44.0414 93.6714 43.7636 93.47C43.4774 93.262 43.1236 93.1815 42.7023 93.2285L39.8536 93.5982Z" fill="black"/>
<path d="M46.5209 100.348C46.5567 100.336 46.5939 100.339 46.6323 100.358C46.6611 100.372 46.6816 100.398 46.6938 100.434L48.3382 105.289C48.3504 105.325 48.3506 105.361 48.3388 105.397C48.3175 105.428 48.2889 105.45 48.253 105.462L40.9867 107.942C40.9509 107.954 40.9186 107.953 40.8898 107.939C40.8513 107.92 40.8261 107.893 40.8139 107.857L39.1695 103.001C39.1573 102.965 39.1619 102.932 39.1832 102.9C39.195 102.864 39.2188 102.84 39.2546 102.828L40.0715 102.549C40.1073 102.537 40.1445 102.54 40.1829 102.559C40.2117 102.573 40.2322 102.598 40.2444 102.634L41.4905 106.314C41.5026 106.35 41.5266 106.362 41.5625 106.349L43.5725 105.663C43.6084 105.651 43.6202 105.627 43.608 105.591L42.7712 103.12C42.759 103.084 42.7636 103.051 42.7849 103.019C42.7967 102.983 42.8205 102.959 42.8563 102.947L43.6732 102.668C43.7091 102.656 43.7462 102.659 43.7846 102.678C43.8134 102.692 43.8339 102.718 43.8461 102.753L44.6829 105.224C44.6951 105.26 44.7191 105.272 44.7549 105.26L46.8295 104.552C46.8653 104.54 46.8771 104.516 46.865 104.48L45.6189 100.8C45.6067 100.764 45.6113 100.731 45.6326 100.699C45.6444 100.663 45.6682 100.639 45.704 100.627L46.5209 100.348Z" fill="black"/>
<path d="M43.6818 111.525C43.7146 111.507 43.7516 111.503 43.793 111.514C43.824 111.522 43.8489 111.543 43.8678 111.576L45.7932 114.934C45.812 114.967 45.8379 114.974 45.8707 114.955L47.7108 113.892C47.7436 113.873 47.7505 113.847 47.7316 113.814L46.4349 111.552C46.416 111.519 46.414 111.486 46.4289 111.451C46.4335 111.413 46.4522 111.385 46.485 111.366L47.2328 110.934C47.2656 110.915 47.3027 110.911 47.3441 110.922C47.3751 110.93 47.4 110.951 47.4189 110.984L48.7157 113.246C48.7345 113.279 48.7604 113.286 48.7932 113.267L51.6074 111.641C51.6402 111.622 51.6773 111.618 51.7187 111.629C51.7497 111.638 51.7746 111.659 51.7935 111.691L52.3145 112.6C52.3333 112.633 52.3405 112.668 52.3359 112.706L52.3231 112.731C52.3086 112.754 52.289 112.773 52.2643 112.787L45.6124 116.63C45.5796 116.649 45.5477 116.654 45.5167 116.645C45.4754 116.634 45.4453 116.612 45.4264 116.579L42.8838 112.144C42.8649 112.111 42.8629 112.077 42.8778 112.042C42.8824 112.005 42.9011 111.976 42.9339 111.957L43.6818 111.525Z" fill="black"/>
<path d="M54.445 115.514C54.4733 115.489 54.5088 115.477 54.5515 115.48C54.5836 115.482 54.6122 115.497 54.6373 115.525L55.3075 116.284C55.3577 116.341 55.3702 116.401 55.3449 116.464L53.5035 122.488C53.4965 122.515 53.5009 122.531 53.5166 122.538C53.5266 122.549 53.543 122.545 53.5656 122.524L57.5099 118.985C57.5382 118.96 57.5737 118.948 57.6164 118.951C57.6485 118.953 57.6771 118.968 57.7022 118.997L58.395 119.781C58.4201 119.81 58.4342 119.843 58.4373 119.881C58.4297 119.918 58.4117 119.949 58.3834 119.974L52.6399 125.084L52.6183 125.1C52.6 125.112 52.5811 125.118 52.5613 125.119L52.5493 125.119C52.5119 125.117 52.4813 125.105 52.4574 125.083L52.4476 125.073L51.7774 124.313C51.7271 124.257 51.7147 124.197 51.7399 124.134L53.5889 118.118C53.5959 118.091 53.5943 118.073 53.5843 118.061C53.5686 118.055 53.5494 118.062 53.5267 118.082L49.575 121.613L49.5534 121.629C49.5315 121.643 49.5085 121.649 49.4844 121.648C49.4417 121.645 49.4078 121.63 49.3827 121.601L48.6899 120.817C48.6648 120.788 48.656 120.755 48.6636 120.718C48.6605 120.68 48.6731 120.649 48.7015 120.624L54.445 115.514Z" fill="black"/>
<path d="M60.656 123.226C61.1027 123.029 61.5723 122.966 62.0648 123.039C62.5467 123.113 63.0189 123.322 63.4814 123.665C63.9377 124.004 64.2749 124.396 64.4928 124.842C64.7062 125.293 64.7843 125.762 64.727 126.249C64.6636 126.731 64.4676 127.195 64.139 127.641L62.5998 129.73C62.2757 130.17 61.8926 130.485 61.4503 130.677C61.0035 130.874 60.5392 130.936 60.0573 130.861C59.5649 130.789 59.0904 130.583 58.634 130.244C58.1716 129.901 57.8367 129.506 57.6293 129.059C57.4114 128.613 57.3311 128.148 57.3884 127.661C57.4412 127.18 57.6297 126.72 57.9537 126.28L59.493 124.191C59.8215 123.745 60.2092 123.424 60.656 123.226ZM61.621 124.255C61.2143 124.321 60.8669 124.55 60.5788 124.941L59.0058 127.076C58.7132 127.473 58.5948 127.876 58.6505 128.286C58.7062 128.696 58.9258 129.043 59.3092 129.328C59.6864 129.608 60.0785 129.715 60.4852 129.648C60.892 129.582 61.2417 129.35 61.5342 128.953L63.1072 126.818C63.3953 126.427 63.5114 126.027 63.4557 125.617C63.4 125.207 63.1835 124.862 62.8062 124.582C62.4229 124.297 62.0278 124.188 61.621 124.255Z" fill="black"/>
<path d="M68.3528 128.089C68.7285 127.838 69.1566 127.707 69.6372 127.697C70.1178 127.687 70.6119 127.801 71.1196 128.038C71.6341 128.279 72.0405 128.59 72.3389 128.973C72.634 129.363 72.8032 129.79 72.8465 130.254C72.8897 130.719 72.7994 131.192 72.5757 131.674L71.3912 134.225C71.1675 134.707 70.8645 135.081 70.4824 135.347C70.1003 135.612 69.6674 135.753 69.1836 135.77C68.6998 135.787 68.2007 135.675 67.6862 135.434C67.1785 135.197 66.7739 134.89 66.4723 134.515C66.1708 134.139 65.9952 133.726 65.9456 133.275C65.8959 132.824 65.9782 132.368 66.1924 131.907C66.2084 131.872 66.2365 131.848 66.2767 131.833C66.3069 131.822 66.3391 131.824 66.3734 131.841L67.3442 132.232C67.4265 132.27 67.4501 132.327 67.4149 132.403C67.2263 132.809 67.2014 133.196 67.3401 133.563C67.472 133.926 67.7472 134.206 68.1657 134.401C68.5842 134.597 68.9779 134.63 69.3468 134.501C69.7157 134.372 69.9945 134.104 70.1831 133.698L71.4059 131.064C71.5913 130.664 71.6147 130.281 71.4759 129.915C71.3372 129.548 71.0585 129.267 70.64 129.071C70.2215 128.875 69.8329 128.84 69.474 128.966C69.1051 129.095 68.8263 129.363 68.6377 129.769C68.6069 129.835 68.5581 129.858 68.4912 129.837L68.4614 129.825L67.5339 129.341C67.5039 129.327 67.4827 129.307 67.4706 129.282L67.4659 129.271C67.4481 129.238 67.4456 129.207 67.4583 129.18C67.6757 128.711 67.9739 128.348 68.3528 128.089Z" fill="black"/>
<path d="M85.6989 132.387C86.2267 131.923 86.9216 131.71 87.7836 131.748C88.3507 131.773 88.845 131.905 89.2664 132.144C89.6875 132.391 90.0063 132.724 90.2229 133.144C90.4394 133.564 90.5362 134.04 90.513 134.571L90.3931 137.327C90.3696 137.866 90.2319 138.331 89.98 138.723C89.7277 139.123 89.3813 139.423 88.9407 139.624C88.4998 139.833 87.9958 139.925 87.4286 139.9C86.8691 139.876 86.3824 139.744 85.9685 139.505C85.5471 139.266 85.2274 138.952 85.0095 138.562C84.7917 138.172 84.6931 137.738 84.714 137.26L84.7179 137.169C84.7196 137.131 84.7362 137.097 84.7678 137.068C84.7914 137.047 84.8222 137.037 84.86 137.038L85.8921 137.084C85.9299 137.085 85.9635 137.098 85.9927 137.122C86.0141 137.154 86.0239 137.188 86.0223 137.226L86.0198 137.283C86.002 137.693 86.1272 138.037 86.3954 138.315C86.656 138.592 87.017 138.741 87.4782 138.762C87.9395 138.782 88.3161 138.658 88.6081 138.389C88.8998 138.128 89.0555 137.77 89.0754 137.314L89.1993 134.468C89.2191 134.013 89.0877 133.638 88.805 133.344C88.522 133.058 88.1461 132.905 87.6773 132.884C87.2236 132.864 86.8631 132.966 86.5957 133.19C86.3205 133.422 86.1738 133.746 86.1556 134.163L86.1249 134.869C86.1233 134.907 86.1413 134.927 86.1791 134.929L87.5743 134.99C87.6121 134.992 87.6456 135.005 87.6748 135.029C87.6962 135.06 87.7061 135.095 87.7044 135.133L87.6677 135.975C87.6661 136.013 87.6534 136.043 87.6297 136.065C87.5982 136.094 87.5635 136.107 87.5257 136.106L84.9056 135.991C84.8678 135.989 84.8382 135.973 84.8168 135.941C84.7876 135.917 84.7738 135.886 84.7754 135.848L84.8389 134.391C84.8769 133.518 85.1636 132.85 85.6989 132.387Z" fill="black"/>
<path d="M95.0963 131.354C95.1709 131.342 95.2281 131.363 95.2679 131.418L99.3695 136.188C99.3881 136.208 99.4043 136.213 99.418 136.203C99.4329 136.201 99.4379 136.185 99.4329 136.155L98.5459 130.919C98.5397 130.882 98.5491 130.845 98.574 130.811C98.5927 130.784 98.6207 130.768 98.658 130.762L99.6885 130.591C99.7258 130.584 99.7613 130.59 99.7948 130.608C99.8222 130.634 99.839 130.666 99.8452 130.703L101.099 138.304L101.102 138.331C101.102 138.357 101.095 138.379 101.081 138.399C101.056 138.434 101.025 138.455 100.987 138.461L99.9905 138.627C99.9158 138.639 99.8586 138.618 99.8188 138.563L95.7285 133.79C95.7098 133.77 95.693 133.762 95.6781 133.764C95.6644 133.774 95.66 133.794 95.665 133.824L96.5408 139.062C96.547 139.099 96.5408 139.131 96.5221 139.157L96.5124 139.17C96.4893 139.197 96.4613 139.213 96.4287 139.219L95.3983 139.39C95.3609 139.396 95.3286 139.386 95.3012 139.36C95.2676 139.343 95.2478 139.315 95.2416 139.278L93.9873 131.677C93.9819 131.644 93.9884 131.613 94.0068 131.582L94.0154 131.569C94.0341 131.542 94.0621 131.526 94.0994 131.52L95.0963 131.354Z" fill="black"/>
<path d="M104.368 129.171C104.404 129.159 104.44 129.159 104.476 129.171C104.507 129.193 104.529 129.221 104.541 129.257L106.992 136.558C107.004 136.594 107.003 136.626 106.988 136.655L106.981 136.669C106.962 136.7 106.937 136.721 106.906 136.731L105.916 137.066L105.903 137.07C105.872 137.077 105.843 137.071 105.816 137.052C105.78 137.04 105.756 137.016 105.744 136.98L103.293 129.679C103.281 129.643 103.284 129.606 103.303 129.568C103.318 129.539 103.343 129.518 103.378 129.506L104.368 129.171Z" fill="black"/>
<path d="M110.404 126.201C110.437 126.184 110.473 126.178 110.51 126.184C110.544 126.201 110.57 126.226 110.587 126.26L113.625 132.15C113.642 132.184 113.668 132.192 113.701 132.174L115.486 131.247C115.52 131.23 115.555 131.224 115.592 131.23C115.626 131.247 115.652 131.272 115.67 131.306L116.071 132.085C116.089 132.119 116.093 132.151 116.083 132.182L116.078 132.196C116.064 132.23 116.043 132.254 116.013 132.269L111.103 134.821L111.09 134.827C111.061 134.838 111.031 134.837 111.001 134.822C110.964 134.816 110.937 134.796 110.919 134.762L110.517 133.983C110.502 133.953 110.499 133.921 110.507 133.886L110.511 133.871C110.521 133.84 110.542 133.816 110.576 133.799L112.431 132.835C112.465 132.817 112.473 132.791 112.455 132.758L109.418 126.867C109.4 126.834 109.398 126.796 109.411 126.755C109.421 126.725 109.443 126.701 109.476 126.683L110.404 126.201Z" fill="black"/>
<path d="M118.327 120.813C118.816 120.722 119.288 120.766 119.742 120.946C120.19 121.131 120.587 121.44 120.932 121.873L122.55 123.901C122.89 124.328 123.096 124.781 123.167 125.259C123.243 125.743 123.184 126.21 122.989 126.658C122.793 127.117 122.473 127.525 122.03 127.881C121.581 128.242 121.115 128.466 120.631 128.553C120.147 128.65 119.677 128.609 119.223 128.429C118.774 128.254 118.379 127.954 118.039 127.527L116.421 125.498C116.075 125.065 115.865 124.607 115.789 124.123C115.713 123.639 115.773 123.167 115.969 122.708C116.164 122.259 116.486 121.854 116.935 121.493C117.379 121.137 117.842 120.911 118.327 120.813ZM118.808 122.018C118.399 121.967 118.011 122.089 117.645 122.383C117.273 122.682 117.067 123.038 117.026 123.449C116.986 123.861 117.118 124.257 117.421 124.636L119.074 126.709C119.381 127.095 119.739 127.313 120.148 127.364C120.557 127.415 120.948 127.291 121.32 126.992C121.687 126.697 121.89 126.344 121.93 125.932C121.97 125.521 121.836 125.122 121.529 124.736L119.876 122.664C119.573 122.284 119.217 122.069 118.808 122.018Z" fill="black"/>
<path d="M124.372 114.147C124.833 113.959 125.304 113.907 125.785 113.992C126.261 114.082 126.711 114.305 127.136 114.659L129.128 116.319C129.547 116.668 129.84 117.07 130.005 117.524C130.177 117.983 130.212 118.451 130.111 118.93C130.011 119.42 129.78 119.884 129.417 120.322C129.05 120.766 128.638 121.08 128.182 121.263C127.727 121.456 127.259 121.51 126.778 121.426C126.303 121.346 125.856 121.131 125.437 120.782L123.445 119.122C123.02 118.768 122.722 118.361 122.55 117.902C122.379 117.443 122.343 116.969 122.443 116.48C122.544 116.001 122.778 115.539 123.145 115.095C123.508 114.657 123.917 114.341 124.372 114.147ZM125.085 115.23C124.674 115.263 124.319 115.461 124.019 115.823C123.714 116.191 123.584 116.581 123.627 116.993C123.671 117.404 123.879 117.765 124.251 118.076L126.287 119.772C126.665 120.087 127.06 120.229 127.471 120.196C127.882 120.163 128.239 119.962 128.544 119.594C128.844 119.232 128.972 118.845 128.928 118.433C128.885 118.022 128.674 117.658 128.295 117.343L126.26 115.647C125.887 115.336 125.496 115.197 125.085 115.23Z" fill="black"/>
<path d="M129.397 105.127C129.434 105.121 129.47 105.127 129.503 105.145L136.28 108.761C136.314 108.779 136.335 108.803 136.344 108.834C136.357 108.875 136.354 108.913 136.336 108.946L135.846 109.872L135.839 109.884C135.821 109.91 135.796 109.926 135.763 109.931L135.751 109.936C135.725 109.945 135.7 109.945 135.675 109.934L135.662 109.929L132.855 108.431C132.822 108.413 132.796 108.421 132.778 108.454L131.419 111.02C131.402 111.054 131.409 111.08 131.443 111.098L134.25 112.595C134.283 112.613 134.305 112.637 134.314 112.668C134.327 112.709 134.324 112.747 134.306 112.78L133.816 113.706L133.809 113.718C133.791 113.744 133.766 113.76 133.733 113.765L133.72 113.771C133.69 113.781 133.661 113.778 133.632 113.763L126.855 110.147C126.826 110.131 126.804 110.107 126.791 110.073L126.786 110.058C126.777 110.027 126.781 109.995 126.798 109.962L127.289 109.036C127.307 109.002 127.333 108.977 127.367 108.961C127.404 108.955 127.44 108.961 127.473 108.979L130.34 110.509C130.374 110.527 130.399 110.519 130.417 110.486L131.776 107.919C131.793 107.886 131.786 107.86 131.752 107.842L128.885 106.313C128.856 106.297 128.835 106.273 128.821 106.239L128.816 106.224C128.807 106.193 128.811 106.161 128.829 106.128L129.319 105.202C129.337 105.168 129.363 105.143 129.397 105.127Z" fill="black"/>
<path d="M132.918 97.1194C133.311 96.9899 133.729 96.9905 134.172 97.1212L134.445 97.2016C134.481 97.2123 134.507 97.2318 134.522 97.2601C134.543 97.2979 134.548 97.335 134.537 97.3714L134.252 98.3445C134.241 98.3809 134.218 98.4058 134.183 98.4191C134.152 98.4418 134.119 98.4478 134.083 98.4371L133.876 98.376C133.542 98.2774 133.218 98.3444 132.906 98.5768C132.6 98.8113 132.372 99.1874 132.22 99.7049C132.09 100.15 132.086 100.513 132.209 100.794C132.331 101.076 132.542 101.261 132.839 101.349C133.043 101.409 133.231 101.397 133.406 101.314C133.587 101.233 133.77 101.093 133.955 100.894C134.137 100.702 134.383 100.403 134.691 99.9947C135.032 99.5329 135.333 99.1663 135.593 98.8949C135.854 98.6235 136.159 98.4202 136.506 98.2851C136.858 98.1595 137.249 98.1599 137.677 98.2863C138.316 98.4749 138.752 98.8571 138.986 99.4329C139.22 100.009 139.222 100.687 138.994 101.467C138.834 102.013 138.598 102.466 138.288 102.826C137.975 103.193 137.614 103.443 137.205 103.576C136.802 103.71 136.38 103.712 135.937 103.581L135.751 103.527C135.715 103.516 135.687 103.492 135.666 103.454C135.651 103.426 135.649 103.393 135.659 103.357L135.947 102.373C135.958 102.337 135.979 102.307 136.009 102.284C136.044 102.271 136.08 102.27 136.117 102.28L136.236 102.316C136.578 102.416 136.906 102.359 137.222 102.143C137.543 101.937 137.775 101.586 137.921 101.09C138.038 100.689 138.046 100.351 137.946 100.076C137.843 99.8082 137.639 99.6292 137.334 99.5392C137.116 99.4749 136.921 99.4807 136.749 99.5566C136.577 99.6325 136.398 99.7699 136.214 99.9689C136.037 100.17 135.789 100.489 135.472 100.926C135.124 101.386 134.826 101.745 134.576 102.004C134.325 102.27 134.022 102.47 133.667 102.603C133.318 102.745 132.929 102.753 132.5 102.627C131.847 102.434 131.399 102.036 131.158 101.434C130.914 100.84 130.914 100.123 131.16 99.285C131.326 98.7165 131.562 98.2476 131.868 97.8784C132.173 97.5092 132.523 97.2562 132.918 97.1194Z" fill="black"/>
<path d="M132.111 78.9825L139.736 78.1034C139.774 78.099 139.805 78.1069 139.83 78.1269C139.864 78.1536 139.883 78.1859 139.887 78.2236L140.002 79.2313C140.011 79.3067 139.987 79.3631 139.93 79.4002L134.978 83.2635C134.957 83.2812 134.948 83.2976 134.95 83.3127C134.959 83.3269 134.979 83.3323 135.009 83.3288L140.263 82.7114C140.301 82.7071 140.332 82.7149 140.357 82.735C140.391 82.7617 140.41 82.7939 140.414 82.8317L140.533 83.8733L140.534 83.8872C140.535 83.919 140.523 83.9462 140.499 83.9691L140.491 83.9807C140.475 84.0027 140.454 84.0167 140.427 84.0226L140.414 84.0248L132.789 84.9039C132.751 84.9083 132.716 84.8971 132.682 84.8704C132.657 84.8503 132.642 84.8214 132.638 84.7837L132.523 83.776C132.514 83.7005 132.538 83.6443 132.595 83.6071L137.545 79.7325C137.566 79.7148 137.572 79.6989 137.563 79.6846C137.561 79.6695 137.545 79.6637 137.515 79.6672L132.262 80.2959C132.229 80.2997 132.197 80.2917 132.168 80.2717L132.155 80.2623C132.13 80.2423 132.115 80.2134 132.111 80.1756L131.992 79.134C131.987 79.0963 131.995 79.061 132.014 79.0282C132.041 79.0021 132.074 78.9869 132.111 78.9825Z" fill="black"/>
<path d="M129.052 69.6899C129.073 69.6586 129.111 69.6416 129.166 69.6389L137.226 69.5064C137.305 69.5036 137.356 69.5382 137.381 69.6102L137.836 70.9592C137.861 71.0312 137.841 71.0901 137.776 71.1361L131.6 75.7417L131.598 75.7423L131.599 75.7429L131.303 75.9633C131.291 75.9754 131.275 75.9851 131.253 75.9924C131.197 76.0116 131.155 75.9921 131.127 75.9339L131.116 75.9067L130.752 74.8274C130.727 74.7555 130.747 74.6965 130.812 74.6505L131.842 73.9027C131.866 73.8785 131.874 73.8557 131.867 73.8341L130.904 70.9848C130.897 70.9632 130.876 70.9501 130.843 70.9455L129.572 70.981C129.493 70.9838 129.441 70.9493 129.417 70.8773L129.052 69.7981C129.038 69.7549 129.037 69.7188 129.052 69.6899ZM131.599 75.7429L131.598 75.7423L131.6 75.7417L131.599 75.7429ZM132.042 70.9104C131.996 70.9178 131.979 70.9395 131.992 70.9755L132.732 73.1664C132.746 73.2096 132.773 73.2167 132.811 73.1876L136.037 70.8497C136.063 70.8328 136.074 70.8171 136.069 70.8027C136.064 70.7883 136.046 70.7824 136.015 70.785L132.042 70.9104Z" fill="black"/>
<path d="M131.668 58.6241C131.7 58.6048 131.732 58.5992 131.763 58.6073C131.805 58.618 131.835 58.6398 131.854 58.6725L134.449 63.0904C134.468 63.1231 134.47 63.157 134.456 63.1921C134.452 63.2299 134.433 63.2584 134.401 63.2777L133.657 63.7175L133.645 63.724C133.615 63.7376 133.583 63.7397 133.546 63.7303C133.515 63.7223 133.49 63.7019 133.471 63.6692L131.505 60.3214C131.486 60.2886 131.46 60.2819 131.427 60.3012L129.598 61.3834C129.566 61.4027 129.559 61.4287 129.578 61.4615L130.898 63.7097C130.918 63.7424 130.92 63.7763 130.905 63.8114C130.901 63.8491 130.883 63.8777 130.85 63.8969L130.107 64.3368C130.074 64.3561 130.037 64.3604 129.996 64.3496C129.965 64.3415 129.94 64.3211 129.92 64.2884L128.6 62.0402C128.581 62.0075 128.555 62.0008 128.522 62.02L126.635 63.137C126.602 63.1563 126.595 63.1823 126.615 63.215L128.581 66.5628L128.587 66.5751C128.6 66.604 128.6 66.6338 128.588 66.6645C128.583 66.7023 128.565 66.7308 128.532 66.7501L127.789 67.1899L127.777 67.1965C127.751 67.2081 127.724 67.2113 127.693 67.206L127.678 67.2027C127.655 67.1967 127.635 67.1837 127.618 67.1638L127.603 67.1416L125.008 62.7236C124.989 62.6909 124.981 62.6557 124.986 62.6179C125 62.5828 125.024 62.5557 125.056 62.5364L131.668 58.6241Z" fill="black"/>
<path d="M125.066 50.7377C125.094 50.7124 125.124 50.7006 125.156 50.7023C125.199 50.7047 125.233 50.72 125.258 50.7483L127.342 53.0821C127.66 53.4386 127.867 53.8185 127.963 54.2219C128.059 54.6253 128.038 55.0223 127.898 55.4128C127.77 55.8039 127.531 56.1566 127.181 56.471C126.838 56.7803 126.465 56.9778 126.064 57.0633C125.663 57.1489 125.262 57.1162 124.863 56.9651C124.475 56.8146 124.116 56.5555 123.788 56.1878L122.576 54.8299C122.55 54.8016 122.524 54.8001 122.495 54.8255L120.221 56.8715L120.21 56.8804C120.188 56.8968 120.161 56.9054 120.13 56.9062L120.115 56.906C120.083 56.9043 120.054 56.8893 120.029 56.861L119.332 56.0802C119.306 56.0519 119.292 56.0188 119.289 55.981C119.296 55.9437 119.314 55.9124 119.342 55.8871L125.066 50.7377ZM125.239 52.4339C125.214 52.4057 125.187 52.4042 125.159 52.4295L123.375 54.0344C123.347 54.0598 123.345 54.0866 123.37 54.1149L124.499 55.3794C124.757 55.668 125.049 55.8239 125.374 55.8472C125.7 55.8704 126.001 55.7578 126.277 55.5094C126.559 55.2558 126.709 54.9628 126.727 54.6302C126.745 54.2976 126.625 53.987 126.368 53.6985L125.239 52.4339Z" fill="black"/>
<path d="M116.346 45.2323C116.794 45.0361 117.258 44.9758 117.74 45.0514C118.232 45.1255 118.706 45.3326 119.161 45.6727C119.623 46.0174 119.957 46.4135 120.163 46.861C120.38 47.3069 120.459 47.7731 120.4 48.2595C120.346 48.7399 120.156 49.1995 119.831 49.6384L118.285 51.7231C117.956 52.1681 117.567 52.4887 117.12 52.6849C116.672 52.8811 116.203 52.9422 115.71 52.8681C115.229 52.7925 114.757 52.5823 114.296 52.2377C113.84 51.8975 113.504 51.5045 113.287 51.0586C113.075 50.6066 112.999 50.1373 113.057 49.6509C113.122 49.1689 113.319 48.7055 113.649 48.2605L115.194 46.1758C115.52 45.7369 115.904 45.4224 116.346 45.2323ZM117.309 46.2634C116.902 46.3288 116.551 46.5596 116.258 46.9558L114.679 49.0862C114.39 49.4763 114.272 49.8764 114.327 50.2865C114.381 50.6965 114.597 51.0421 114.973 51.3233C115.356 51.609 115.751 51.7192 116.158 51.6538C116.565 51.5884 116.913 51.3607 117.202 50.9706L118.781 48.8402C119.074 48.4439 119.194 48.0408 119.139 47.6307C119.085 47.2207 118.866 46.8728 118.484 46.5871C118.107 46.3059 117.716 46.198 117.309 46.2634Z" fill="black"/>
<path d="M107.633 39.4421C107.673 39.4274 107.711 39.4282 107.745 39.4443L110.572 40.7735C110.99 40.9701 111.319 41.2336 111.557 41.5639C111.799 41.8874 111.934 42.2527 111.961 42.6598C111.992 43.0601 111.911 43.4667 111.718 43.8795C111.497 44.3542 111.184 44.7022 110.78 44.9233C110.386 45.1408 109.942 45.2134 109.45 45.1411C109.436 45.1347 109.422 45.1367 109.409 45.1472C109.396 45.1578 109.389 45.1715 109.39 45.1885L109.438 48.8734C109.439 48.9073 109.436 48.9312 109.43 48.945C109.404 49 109.354 49.0098 109.278 48.9743L108.291 48.5103C108.223 48.4781 108.189 48.4246 108.191 48.3498L108.22 44.7394C108.22 44.7054 108.205 44.682 108.178 44.6691L106.944 44.0891C106.91 44.073 106.885 44.0821 106.869 44.1165L105.501 47.0476L105.495 47.06C105.478 47.088 105.452 47.1083 105.417 47.1211L105.405 47.1246C105.386 47.1293 105.366 47.1288 105.345 47.1229L105.32 47.1134L104.374 46.6687C104.348 46.6566 104.327 46.6396 104.311 46.6177L104.296 46.5943C104.288 46.5571 104.293 46.5213 104.309 46.4869L107.564 39.5101C107.58 39.4757 107.603 39.4531 107.633 39.4421ZM108.384 41.0032C108.35 40.9871 108.325 40.9963 108.308 41.0307L107.35 43.0845C107.334 43.1189 107.343 43.1441 107.378 43.1602L108.92 43.8853C109.249 44.0399 109.558 44.0677 109.846 43.9685C110.145 43.8656 110.37 43.6525 110.521 43.3291C110.672 43.0057 110.691 42.6959 110.578 42.3997C110.473 42.1068 110.255 41.8829 109.926 41.7283L108.384 41.0032Z" fill="black"/>
<path d="M97.2185 36.605C97.255 36.5825 97.2916 36.5756 97.3284 36.5844L98.3446 36.827C98.3814 36.8358 98.4074 36.8576 98.4224 36.8924C98.4466 36.9216 98.4544 36.9547 98.4456 36.9917L97.2294 42.125C97.126 42.5611 97.1782 42.9484 97.3859 43.287C97.5935 43.6255 97.9219 43.8484 98.3711 43.9556C98.8202 44.0628 99.2134 44.0122 99.5507 43.8038C99.8879 43.5953 100.108 43.2731 100.212 42.837L101.428 37.7036C101.437 37.6667 101.455 37.6397 101.482 37.6228C101.518 37.6003 101.555 37.5934 101.592 37.6022L102.608 37.8448C102.645 37.8536 102.671 37.8754 102.686 37.9102C102.71 37.9395 102.718 37.9725 102.709 38.0095L101.498 43.1207C101.375 43.6381 101.153 44.0691 100.83 44.4137C100.509 44.751 100.113 44.9767 99.6425 45.0908C99.172 45.205 98.6607 45.1962 98.1084 45.0643C97.5635 44.9342 97.1066 44.7119 96.7377 44.3974C96.3687 44.0828 96.1129 43.7015 95.9701 43.2535C95.8364 42.7999 95.8308 42.3144 95.9534 41.797L97.1644 36.6858C97.1731 36.6488 97.1912 36.6219 97.2185 36.605Z" fill="black"/>
<path d="M87.0971 35.9641C87.1284 35.9346 87.1629 35.9205 87.2007 35.9217L92.3071 36.0828C92.3449 36.084 92.3747 36.1001 92.3965 36.1312C92.426 36.1549 92.4402 36.1858 92.439 36.2238L92.4119 37.0895L92.4108 37.1035C92.4064 37.1358 92.3906 37.1648 92.3633 37.1905C92.3399 37.2126 92.3093 37.223 92.2715 37.2219L88.4019 37.0998C88.3641 37.0986 88.3446 37.117 88.3434 37.155L88.2767 39.2851C88.2755 39.323 88.2939 39.3426 88.3317 39.3438L90.9303 39.4258C90.9681 39.4269 90.9979 39.4431 91.0196 39.4742C91.0492 39.4979 91.0634 39.5288 91.0622 39.5667L91.0351 40.4324C91.0339 40.4704 91.0177 40.5041 90.9865 40.5335C90.9631 40.5556 90.9325 40.566 90.8946 40.5648L88.296 40.4829C88.2582 40.4817 88.2387 40.5001 88.2375 40.538L88.1687 42.7365C88.1675 42.7744 88.1858 42.794 88.2237 42.7952L92.0932 42.9173C92.131 42.9185 92.1608 42.9346 92.1825 42.9657C92.2121 42.9894 92.2263 43.0203 92.2251 43.0582L92.198 43.9239L92.1968 43.938C92.1925 43.9703 92.1767 43.9993 92.1494 44.025C92.1318 44.0416 92.1101 44.0516 92.0844 44.055L92.0575 44.0563L92.0878 43.0842L92.1114 43.0546L92.0887 43.0539L92.0878 43.0842L92.0575 44.0563L86.9511 43.8953C86.9133 43.8941 86.8796 43.8816 86.85 43.8579C86.8283 43.8268 86.818 43.7923 86.8192 43.7543L87.0603 36.0541C87.0614 36.0161 87.0737 35.9861 87.0971 35.9641ZM92.1114 43.0546L92.0878 43.0842L92.0887 43.0539L92.1114 43.0546Z" fill="black"/>
<path d="M216.212 28.4331C216.212 28.5958 216.147 28.7423 216.016 28.8725C215.919 28.9701 215.789 29.019 215.626 29.019H205.417C205.254 29.019 205.173 29.1003 205.173 29.2631V36.9773C205.173 37.14 205.254 37.2214 205.417 37.2214H211.278C211.441 37.2214 211.572 37.2865 211.669 37.4167C211.799 37.5143 211.865 37.6445 211.865 37.8073V42.5432C211.865 42.7059 211.799 42.8524 211.669 42.9826C211.572 43.0802 211.441 43.1291 211.278 43.1291H205.417C205.254 43.1291 205.173 43.2104 205.173 43.3732V51.1362C205.173 51.2989 205.254 51.3803 205.417 51.3803H215.626C215.789 51.3803 215.919 51.4454 216.016 51.5756C216.147 51.6732 216.212 51.8034 216.212 51.9662V56.7021C216.212 56.8648 216.147 57.0113 216.016 57.1415C215.919 57.2391 215.789 57.288 215.626 57.288H198.872C198.709 57.288 198.562 57.2391 198.432 57.1415C198.334 57.0113 198.285 56.8648 198.285 56.7021V23.6972C198.285 23.5344 198.334 23.4042 198.432 23.3066C198.562 23.1764 198.709 23.1113 198.872 23.1113H215.626C215.789 23.1113 215.919 23.1764 216.016 23.3066C216.147 23.4042 216.212 23.5344 216.212 23.6972V28.4331Z" fill="white"/>
<path d="M229.277 57.6786C226.346 57.6786 223.985 56.7672 222.194 54.9444C220.436 53.0891 219.557 50.6316 219.557 47.572V23.6972C219.557 23.5344 219.606 23.4042 219.703 23.3066C219.833 23.1764 219.98 23.1113 220.143 23.1113H225.858C226.021 23.1113 226.151 23.1764 226.249 23.3066C226.379 23.4042 226.444 23.5344 226.444 23.6972V48.2556C226.444 49.2971 226.704 50.1434 227.225 50.7944C227.746 51.4454 228.43 51.7709 229.277 51.7709C230.124 51.7709 230.791 51.4454 231.28 50.7944C231.801 50.1434 232.061 49.2971 232.061 48.2556V23.6972C232.061 23.5344 232.11 23.4042 232.208 23.3066C232.338 23.1764 232.485 23.1113 232.647 23.1113H238.362C238.525 23.1113 238.655 23.1764 238.753 23.3066C238.883 23.4042 238.948 23.5344 238.948 23.6972V47.572C238.948 50.6316 238.053 53.0891 236.262 54.9444C234.503 56.7672 232.175 57.6786 229.277 57.6786Z" fill="white"/>
<path d="M256.558 57.288C256.2 57.288 255.972 57.1252 255.874 56.7997L252.113 43.3244C252.048 43.1942 251.967 43.1291 251.869 43.1291H250.208C250.045 43.1291 249.964 43.2104 249.964 43.3732V56.7021C249.964 56.8648 249.899 57.0113 249.769 57.1415C249.671 57.2391 249.541 57.288 249.378 57.288H243.663C243.5 57.288 243.353 57.2391 243.223 57.1415C243.126 57.0113 243.077 56.8648 243.077 56.7021V23.6972C243.077 23.5344 243.126 23.4042 243.223 23.3066C243.353 23.1764 243.5 23.1113 243.663 23.1113H253.53C255.321 23.1113 256.916 23.5507 258.317 24.4295C259.717 25.2758 260.791 26.4801 261.54 28.0425C262.322 29.6049 262.713 31.3951 262.713 33.4131C262.713 35.3335 262.338 37.0261 261.589 38.4908C260.873 39.9555 259.863 41.0947 258.561 41.9085C258.496 41.941 258.447 41.9898 258.414 42.0549C258.382 42.0875 258.382 42.1363 258.414 42.2014L262.908 56.6044L262.957 56.7997C262.957 57.1252 262.778 57.288 262.42 57.288H256.558ZM250.208 29.019C250.045 29.019 249.964 29.1003 249.964 29.2631V37.612C249.964 37.7747 250.045 37.8561 250.208 37.8561H252.406C253.416 37.8561 254.23 37.4655 254.849 36.6843C255.5 35.8706 255.825 34.7965 255.825 33.4619C255.825 32.0949 255.5 31.0207 254.849 30.2396C254.23 29.4258 253.416 29.019 252.406 29.019H250.208Z" fill="white"/>
<path d="M275.447 57.6786C272.451 57.6786 270.058 56.7997 268.267 55.0421C266.476 53.2844 265.58 50.9409 265.58 48.0114V32.3878C265.58 29.4584 266.476 27.1148 268.267 25.3572C270.058 23.5995 272.451 22.7207 275.447 22.7207C278.443 22.7207 280.836 23.5995 282.627 25.3572C284.451 27.1148 285.363 29.4584 285.363 32.3878V48.0114C285.363 50.9409 284.451 53.2844 282.627 55.0421C280.836 56.7997 278.443 57.6786 275.447 57.6786ZM275.447 51.7709C276.359 51.7709 277.091 51.4617 277.645 50.8432C278.199 50.1922 278.475 49.346 278.475 48.3044V32.0949C278.475 31.0533 278.199 30.2233 277.645 29.6049C277.091 28.9539 276.359 28.6284 275.447 28.6284C274.535 28.6284 273.802 28.9539 273.249 29.6049C272.728 30.2233 272.467 31.0533 272.467 32.0949V48.3044C272.467 49.346 272.728 50.1922 273.249 50.8432C273.802 51.4617 274.535 51.7709 275.447 51.7709Z" fill="white"/>
<path d="M299.56 23.0625C301.351 23.0625 302.947 23.5019 304.347 24.3807C305.747 25.2595 306.822 26.4964 307.571 28.0913C308.352 29.6537 308.743 31.4439 308.743 33.4619C308.743 36.489 307.929 38.9139 306.301 40.7367C304.672 42.5594 302.54 43.4708 299.902 43.4708H296.238C296.076 43.4708 295.994 43.5522 295.994 43.7149V56.7021C295.994 56.8648 295.929 57.0113 295.799 57.1415C295.701 57.2391 295.571 57.288 295.408 57.288H289.693C289.53 57.288 289.384 57.2391 289.253 57.1415C289.156 57.0113 289.107 56.8648 289.107 56.7021V23.6484C289.107 23.4856 289.156 23.3554 289.253 23.2578C289.384 23.1276 289.53 23.0625 289.693 23.0625H299.56ZM298.388 38.1002C299.43 38.1002 300.26 37.7096 300.879 36.9284C301.53 36.1147 301.856 35.008 301.856 33.6084C301.856 32.1762 301.53 31.0533 300.879 30.2396C300.26 29.4258 299.43 29.019 298.388 29.019H296.238C296.076 29.019 295.994 29.1003 295.994 29.2631V37.8561C295.994 38.0188 296.076 38.1002 296.238 38.1002H298.388Z" fill="white"/>
<path d="M329.788 28.4331C329.788 28.5958 329.723 28.7423 329.592 28.8725C329.495 28.9701 329.365 29.019 329.202 29.019H318.993C318.83 29.019 318.749 29.1003 318.749 29.2631V36.9773C318.749 37.14 318.83 37.2214 318.993 37.2214H324.854C325.017 37.2214 325.148 37.2865 325.245 37.4167C325.375 37.5143 325.441 37.6445 325.441 37.8073V42.5432C325.441 42.7059 325.375 42.8524 325.245 42.9826C325.148 43.0802 325.017 43.1291 324.854 43.1291H318.993C318.83 43.1291 318.749 43.2104 318.749 43.3732V51.1362C318.749 51.2989 318.83 51.3803 318.993 51.3803H329.202C329.365 51.3803 329.495 51.4454 329.592 51.5756C329.723 51.6732 329.788 51.8034 329.788 51.9662V56.7021C329.788 56.8648 329.723 57.0113 329.592 57.1415C329.495 57.2391 329.365 57.288 329.202 57.288H312.448C312.285 57.288 312.138 57.2391 312.008 57.1415C311.91 57.0113 311.861 56.8648 311.861 56.7021V23.6972C311.861 23.5344 311.91 23.4042 312.008 23.3066C312.138 23.1764 312.285 23.1113 312.448 23.1113H329.202C329.365 23.1113 329.495 23.1764 329.592 23.3066C329.723 23.4042 329.788 23.5344 329.788 23.6972V28.4331Z" fill="white"/>
<path d="M348.403 57.288C348.012 57.288 347.801 57.1089 347.768 56.7509L346.987 52.0638C346.987 51.9011 346.889 51.8197 346.693 51.8197H340.49C340.295 51.8197 340.197 51.9011 340.197 52.0638L339.415 56.7509C339.383 57.1089 339.171 57.288 338.78 57.288H333.066C332.642 57.288 332.479 57.0764 332.577 56.6533L339.757 23.6484C339.822 23.2903 340.034 23.1113 340.392 23.1113H346.987C347.345 23.1113 347.556 23.2903 347.622 23.6484L354.753 56.6533L354.802 56.8485C354.802 57.1415 354.623 57.288 354.265 57.288H348.403ZM341.174 46.2538C341.174 46.4165 341.239 46.4979 341.369 46.4979H345.765C345.928 46.4979 345.993 46.4165 345.961 46.2538L343.665 32.9249C343.632 32.8272 343.584 32.7784 343.519 32.7784C343.453 32.7784 343.405 32.8272 343.372 32.9249L341.174 46.2538Z" fill="white"/>
<path d="M371.577 23.6972C371.577 23.5344 371.625 23.4042 371.723 23.3066C371.853 23.1764 372 23.1113 372.163 23.1113H377.829C377.992 23.1113 378.122 23.1764 378.22 23.3066C378.35 23.4042 378.415 23.5344 378.415 23.6972V56.7021C378.415 56.8648 378.35 57.0113 378.22 57.1415C378.122 57.2391 377.992 57.288 377.829 57.288H371.381C371.056 57.288 370.844 57.1252 370.746 56.7997L364.689 37.9049C364.657 37.8073 364.592 37.7747 364.494 37.8073C364.429 37.8073 364.396 37.8561 364.396 37.9537L364.445 56.7021C364.445 56.8648 364.38 57.0113 364.25 57.1415C364.152 57.2391 364.022 57.288 363.859 57.288H358.193C358.03 57.288 357.883 57.2391 357.753 57.1415C357.656 57.0113 357.607 56.8648 357.607 56.7021V23.6972C357.607 23.5344 357.656 23.4042 357.753 23.3066C357.883 23.1764 358.03 23.1113 358.193 23.1113H364.592C364.917 23.1113 365.129 23.274 365.227 23.5995L371.332 42.4943C371.365 42.592 371.414 42.6408 371.479 42.6408C371.577 42.6083 371.625 42.5432 371.625 42.4455L371.577 23.6972Z" fill="white"/>
<path d="M207.078 106.502C205.189 106.502 203.528 106.128 202.095 105.379C200.663 104.631 199.555 103.589 198.774 102.255C197.992 100.888 197.602 99.3253 197.602 97.5676V96.1517C197.602 95.989 197.65 95.8588 197.748 95.7611C197.878 95.6309 198.025 95.5658 198.188 95.5658H203.805C203.968 95.5658 204.098 95.6309 204.196 95.7611C204.326 95.8588 204.391 95.989 204.391 96.1517V97.2258C204.391 98.2349 204.652 99.0486 205.173 99.667C205.694 100.285 206.345 100.595 207.127 100.595C207.908 100.595 208.559 100.302 209.08 99.7159C209.601 99.13 209.862 98.3651 209.862 97.4211C209.862 96.4447 209.536 95.6146 208.885 94.9311C208.234 94.215 206.964 93.1735 205.075 91.8064C203.447 90.6346 202.128 89.593 201.119 88.6817C200.109 87.7703 199.246 86.6473 198.53 85.3128C197.813 83.9783 197.455 82.4322 197.455 80.6746C197.455 77.9079 198.318 75.6945 200.044 74.0345C201.77 72.3745 204.049 71.5445 206.882 71.5445C209.748 71.5445 212.044 72.4071 213.77 74.1322C215.528 75.8573 216.407 78.1194 216.407 80.9187V82.0905C216.407 82.2532 216.342 82.3997 216.212 82.5299C216.114 82.6275 215.984 82.6763 215.821 82.6763H210.204C210.041 82.6763 209.894 82.6275 209.764 82.5299C209.667 82.3997 209.618 82.2532 209.618 82.0905V80.7722C209.618 79.7632 209.357 78.9657 208.836 78.3798C208.348 77.7614 207.696 77.4522 206.882 77.4522C206.101 77.4522 205.466 77.7451 204.977 78.331C204.489 78.8844 204.245 79.6655 204.245 80.6746C204.245 81.651 204.554 82.5136 205.173 83.2622C205.791 84.0109 207.013 85.0524 208.836 86.3869C210.855 87.8842 212.369 89.1048 213.379 90.0487C214.421 90.9601 215.219 91.9854 215.772 93.1246C216.358 94.2313 216.651 95.5658 216.651 97.1282C216.651 99.9925 215.772 102.271 214.014 103.964C212.255 105.656 209.943 106.502 207.078 106.502Z" fill="white"/>
<path d="M232.25 72.521C232.25 72.3582 232.299 72.228 232.396 72.1304C232.526 72.0002 232.673 71.9351 232.836 71.9351H238.551C238.714 71.9351 238.844 72.0002 238.942 72.1304C239.072 72.228 239.137 72.3582 239.137 72.521V105.526C239.137 105.689 239.072 105.835 238.942 105.965C238.844 106.063 238.714 106.112 238.551 106.112H232.836C232.673 106.112 232.526 106.063 232.396 105.965C232.299 105.835 232.25 105.689 232.25 105.526V92.197C232.25 92.0342 232.168 91.9529 232.005 91.9529H227.121C226.958 91.9529 226.877 92.0342 226.877 92.197V105.526C226.877 105.689 226.812 105.835 226.681 105.965C226.584 106.063 226.453 106.112 226.291 106.112H220.576C220.413 106.112 220.266 106.063 220.136 105.965C220.038 105.835 219.989 105.689 219.989 105.526V72.521C219.989 72.3582 220.038 72.228 220.136 72.1304C220.266 72.0002 220.413 71.9351 220.576 71.9351H226.291C226.453 71.9351 226.584 72.0002 226.681 72.1304C226.812 72.228 226.877 72.3582 226.877 72.521V85.8011C226.877 85.9638 226.958 86.0452 227.121 86.0452H232.005C232.168 86.0452 232.25 85.9638 232.25 85.8011V72.521Z" fill="white"/>
<path d="M252.837 106.502C249.841 106.502 247.447 105.624 245.656 103.866C243.865 102.108 242.97 99.7647 242.97 96.8353V81.2116C242.97 78.2822 243.865 75.9387 245.656 74.181C247.447 72.4233 249.841 71.5445 252.837 71.5445C255.833 71.5445 258.226 72.4233 260.017 74.181C261.841 75.9387 262.752 78.2822 262.752 81.2116V96.8353C262.752 99.7647 261.841 102.108 260.017 103.866C258.226 105.624 255.833 106.502 252.837 106.502ZM252.837 100.595C253.748 100.595 254.481 100.285 255.035 99.667C255.588 99.016 255.865 98.1698 255.865 97.1282V80.9187C255.865 79.8771 255.588 79.0471 255.035 78.4287C254.481 77.7777 253.748 77.4522 252.837 77.4522C251.925 77.4522 251.192 77.7777 250.639 78.4287C250.118 79.0471 249.857 79.8771 249.857 80.9187V97.1282C249.857 98.1698 250.118 99.016 250.639 99.667C251.192 100.285 251.925 100.595 252.837 100.595Z" fill="white"/>
<path d="M275.924 106.502C272.928 106.502 270.535 105.624 268.744 103.866C266.953 102.108 266.057 99.7647 266.057 96.8353V81.2116C266.057 78.2822 266.953 75.9387 268.744 74.181C270.535 72.4233 272.928 71.5445 275.924 71.5445C278.92 71.5445 281.313 72.4233 283.104 74.181C284.928 75.9387 285.84 78.2822 285.84 81.2116V96.8353C285.84 99.7647 284.928 102.108 283.104 103.866C281.313 105.624 278.92 106.502 275.924 106.502ZM275.924 100.595C276.836 100.595 277.568 100.285 278.122 99.667C278.676 99.016 278.952 98.1698 278.952 97.1282V80.9187C278.952 79.8771 278.676 79.0471 278.122 78.4287C277.568 77.7777 276.836 77.4522 275.924 77.4522C275.012 77.4522 274.279 77.7777 273.726 78.4287C273.205 79.0471 272.944 79.8771 272.944 80.9187V97.1282C272.944 98.1698 273.205 99.016 273.726 99.667C274.279 100.285 275.012 100.595 275.924 100.595Z" fill="white"/>
<path d="M308.585 71.9351C308.748 71.9351 308.878 72.0002 308.976 72.1304C309.106 72.228 309.171 72.3582 309.171 72.521V77.2569C309.171 77.4196 309.106 77.5661 308.976 77.6963C308.878 77.794 308.748 77.8428 308.585 77.8428H302.479C302.316 77.8428 302.235 77.9242 302.235 78.0869V105.526C302.235 105.689 302.17 105.835 302.04 105.965C301.942 106.063 301.812 106.112 301.649 106.112H295.934C295.771 106.112 295.625 106.063 295.494 105.965C295.397 105.835 295.348 105.689 295.348 105.526V78.0869C295.348 77.9242 295.266 77.8428 295.104 77.8428H289.242C289.079 77.8428 288.933 77.794 288.802 77.6963C288.705 77.5661 288.656 77.4196 288.656 77.2569V72.521C288.656 72.3582 288.705 72.228 288.802 72.1304C288.933 72.0002 289.079 71.9351 289.242 71.9351H308.585Z" fill="white"/>
<path d="M313.068 106.112C312.905 106.112 312.758 106.063 312.628 105.965C312.53 105.835 312.482 105.689 312.482 105.526V72.521C312.482 72.3582 312.53 72.228 312.628 72.1304C312.758 72.0002 312.905 71.9351 313.068 71.9351H318.783C318.946 71.9351 319.076 72.0002 319.173 72.1304C319.304 72.228 319.369 72.3582 319.369 72.521V105.526C319.369 105.689 319.304 105.835 319.173 105.965C319.076 106.063 318.946 106.112 318.783 106.112H313.068Z" fill="white"/>
<path d="M337.709 72.521C337.709 72.3582 337.758 72.228 337.855 72.1304C337.986 72.0002 338.132 71.9351 338.295 71.9351H343.961C344.124 71.9351 344.254 72.0002 344.352 72.1304C344.482 72.228 344.547 72.3582 344.547 72.521V105.526C344.547 105.689 344.482 105.835 344.352 105.965C344.254 106.063 344.124 106.112 343.961 106.112H337.514C337.188 106.112 336.976 105.949 336.879 105.624L330.822 86.7287C330.789 86.6311 330.724 86.5985 330.626 86.6311C330.561 86.6311 330.529 86.6799 330.529 86.7775L330.577 105.526C330.577 105.689 330.512 105.835 330.382 105.965C330.284 106.063 330.154 106.112 329.991 106.112H324.325C324.162 106.112 324.016 106.063 323.886 105.965C323.788 105.835 323.739 105.689 323.739 105.526V72.521C323.739 72.3582 323.788 72.228 323.886 72.1304C324.016 72.0002 324.162 71.9351 324.325 71.9351H330.724C331.05 71.9351 331.261 72.0978 331.359 72.4233L337.465 91.3182C337.497 91.4158 337.546 91.4646 337.611 91.4646C337.709 91.4321 337.758 91.367 337.758 91.2693L337.709 72.521Z" fill="white"/>
<path d="M358.062 106.502C355.131 106.502 352.77 105.672 350.979 104.012C349.22 102.32 348.341 100.074 348.341 97.2747V80.7722C348.341 77.973 349.22 75.7434 350.979 74.0834C352.77 72.3908 355.131 71.5445 358.062 71.5445C360.992 71.5445 363.353 72.3908 365.144 74.0834C366.935 75.7759 367.831 78.0218 367.831 80.821V82.6763C367.831 82.8391 367.766 82.9856 367.635 83.1158C367.538 83.2134 367.407 83.2622 367.245 83.2622H361.53C361.367 83.2622 361.22 83.2134 361.09 83.1158C360.992 82.9856 360.943 82.8391 360.943 82.6763V80.7234C360.943 79.7469 360.683 78.9657 360.162 78.3798C359.641 77.7614 358.941 77.4522 358.062 77.4522C357.215 77.4522 356.531 77.7614 356.01 78.3798C355.489 78.9657 355.229 79.7469 355.229 80.7234V97.3235C355.229 98.3 355.489 99.0974 356.01 99.7159C356.531 100.302 357.215 100.595 358.062 100.595C358.941 100.595 359.641 100.302 360.162 99.7159C360.683 99.0974 360.943 98.3 360.943 97.3235V93.4176C360.943 93.2548 360.862 93.1735 360.699 93.1735H358.55C358.387 93.1735 358.241 93.1246 358.11 93.027C358.013 92.8968 357.964 92.7503 357.964 92.5876V88.2423C357.964 88.0795 358.013 87.9493 358.11 87.8517C358.241 87.7215 358.387 87.6564 358.55 87.6564H367.245C367.407 87.6564 367.538 87.7215 367.635 87.8517C367.766 87.9493 367.831 88.0795 367.831 88.2423V97.2747C367.831 100.074 366.935 102.32 365.144 104.012C363.353 105.672 360.992 106.502 358.062 106.502Z" fill="white"/>
<path d="M207.517 155.326C204.587 155.326 202.226 154.464 200.435 152.738C198.676 150.981 197.797 148.637 197.797 145.708V129.889C197.797 126.992 198.676 124.681 200.435 122.956C202.226 121.231 204.587 120.368 207.517 120.368C210.481 120.368 212.842 121.231 214.6 122.956C216.391 124.681 217.286 126.992 217.286 129.889V130.426C217.286 130.589 217.221 130.735 217.091 130.865C216.993 130.963 216.863 131.012 216.7 131.012L210.985 131.256C210.595 131.256 210.399 131.077 210.399 130.719V129.45C210.399 128.506 210.139 127.741 209.618 127.155C209.097 126.569 208.397 126.276 207.517 126.276C206.671 126.276 205.987 126.569 205.466 127.155C204.945 127.741 204.684 128.506 204.684 129.45V146.294C204.684 147.238 204.945 148.003 205.466 148.588C205.987 149.142 206.671 149.418 207.517 149.418C208.397 149.418 209.097 149.142 209.618 148.588C210.139 148.003 210.399 147.238 210.399 146.294V144.976C210.399 144.813 210.448 144.683 210.546 144.585C210.676 144.455 210.823 144.39 210.985 144.39L216.7 144.634C216.863 144.634 216.993 144.699 217.091 144.829C217.221 144.927 217.286 145.057 217.286 145.22V145.708C217.286 148.637 216.391 150.981 214.6 152.738C212.809 154.464 210.448 155.326 207.517 155.326Z" fill="white"/>
<path d="M230.322 155.326C227.326 155.326 224.932 154.447 223.141 152.69C221.35 150.932 220.455 148.588 220.455 145.659V130.035C220.455 127.106 221.35 124.762 223.141 123.005C224.932 121.247 227.326 120.368 230.322 120.368C233.318 120.368 235.711 121.247 237.502 123.005C239.326 124.762 240.238 127.106 240.238 130.035V145.659C240.238 148.588 239.326 150.932 237.502 152.69C235.711 154.447 233.318 155.326 230.322 155.326ZM230.322 149.418C231.234 149.418 231.966 149.109 232.52 148.491C233.073 147.84 233.35 146.994 233.35 145.952V129.742C233.35 128.701 233.073 127.871 232.52 127.252C231.966 126.601 231.234 126.276 230.322 126.276C229.41 126.276 228.677 126.601 228.124 127.252C227.603 127.871 227.342 128.701 227.342 129.742V145.952C227.342 146.994 227.603 147.84 228.124 148.491C228.677 149.109 229.41 149.418 230.322 149.418Z" fill="white"/>
<path d="M258.001 121.345C258.001 121.182 258.049 121.052 258.147 120.954C258.277 120.824 258.424 120.759 258.587 120.759H264.253C264.416 120.759 264.546 120.824 264.644 120.954C264.774 121.052 264.839 121.182 264.839 121.345V154.35C264.839 154.512 264.774 154.659 264.644 154.789C264.546 154.887 264.416 154.936 264.253 154.936H257.805C257.48 154.936 257.268 154.773 257.17 154.447L251.113 135.553C251.081 135.455 251.016 135.422 250.918 135.455C250.853 135.455 250.82 135.504 250.82 135.601L250.869 154.35C250.869 154.512 250.804 154.659 250.674 154.789C250.576 154.887 250.446 154.936 250.283 154.936H244.617C244.454 154.936 244.307 154.887 244.177 154.789C244.08 154.659 244.031 154.512 244.031 154.35V121.345C244.031 121.182 244.08 121.052 244.177 120.954C244.307 120.824 244.454 120.759 244.617 120.759H251.016C251.341 120.759 251.553 120.922 251.651 121.247L257.756 140.142C257.789 140.24 257.838 140.288 257.903 140.288C258.001 140.256 258.049 140.191 258.049 140.093L258.001 121.345Z" fill="white"/>
<path d="M286.999 126.081C286.999 126.243 286.934 126.39 286.804 126.52C286.706 126.618 286.576 126.667 286.413 126.667H276.253C276.09 126.667 276.009 126.748 276.009 126.911V134.625C276.009 134.788 276.09 134.869 276.253 134.869H282.066C282.228 134.869 282.359 134.934 282.456 135.064C282.587 135.162 282.652 135.292 282.652 135.455V140.191C282.652 140.354 282.587 140.5 282.456 140.63C282.359 140.728 282.228 140.777 282.066 140.777H276.253C276.09 140.777 276.009 140.858 276.009 141.021V154.35C276.009 154.512 275.944 154.659 275.813 154.789C275.716 154.887 275.585 154.936 275.423 154.936H269.708C269.545 154.936 269.398 154.887 269.268 154.789C269.17 154.659 269.121 154.512 269.121 154.35V121.345C269.121 121.182 269.17 121.052 269.268 120.954C269.398 120.824 269.545 120.759 269.708 120.759H286.413C286.576 120.759 286.706 120.824 286.804 120.954C286.934 121.052 286.999 121.182 286.999 121.345V126.081Z" fill="white"/>
<path d="M307.607 126.081C307.607 126.243 307.542 126.39 307.412 126.52C307.314 126.618 307.184 126.667 307.021 126.667H296.812C296.649 126.667 296.568 126.748 296.568 126.911V134.625C296.568 134.788 296.649 134.869 296.812 134.869H302.674C302.836 134.869 302.967 134.934 303.064 135.064C303.195 135.162 303.26 135.292 303.26 135.455V140.191C303.26 140.354 303.195 140.5 303.064 140.63C302.967 140.728 302.836 140.777 302.674 140.777H296.812C296.649 140.777 296.568 140.858 296.568 141.021V148.784C296.568 148.947 296.649 149.028 296.812 149.028H307.021C307.184 149.028 307.314 149.093 307.412 149.223C307.542 149.321 307.607 149.451 307.607 149.614V154.35C307.607 154.512 307.542 154.659 307.412 154.789C307.314 154.887 307.184 154.936 307.021 154.936H290.267C290.104 154.936 289.957 154.887 289.827 154.789C289.729 154.659 289.681 154.512 289.681 154.35V121.345C289.681 121.182 289.729 121.052 289.827 120.954C289.957 120.824 290.104 120.759 290.267 120.759H307.021C307.184 120.759 307.314 120.824 307.412 120.954C307.542 121.052 307.607 121.182 307.607 121.345V126.081Z" fill="white"/>
<path d="M311.684 154.936C311.522 154.936 311.375 154.887 311.245 154.789C311.147 154.659 311.098 154.512 311.098 154.35V121.345C311.098 121.182 311.147 121.052 311.245 120.954C311.375 120.824 311.522 120.759 311.684 120.759H320.525C323.489 120.759 325.866 121.621 327.657 123.347C329.448 125.072 330.344 127.366 330.344 130.231V145.464C330.344 148.328 329.448 150.623 327.657 152.348C325.866 154.073 323.489 154.936 320.525 154.936H311.684ZM317.986 148.784C317.986 148.947 318.067 149.028 318.23 149.028L320.428 148.979C321.307 148.947 322.023 148.572 322.577 147.856C323.131 147.14 323.424 146.196 323.456 145.024V130.67C323.456 129.433 323.179 128.457 322.626 127.741C322.072 127.025 321.323 126.667 320.379 126.667H318.23C318.067 126.667 317.986 126.748 317.986 126.911V148.784Z" fill="white"/>
<path d="M352.112 126.081C352.112 126.243 352.047 126.39 351.917 126.52C351.819 126.618 351.689 126.667 351.526 126.667H341.317C341.154 126.667 341.073 126.748 341.073 126.911V134.625C341.073 134.788 341.154 134.869 341.317 134.869H347.178C347.341 134.869 347.472 134.934 347.569 135.064C347.7 135.162 347.765 135.292 347.765 135.455V140.191C347.765 140.354 347.7 140.5 347.569 140.63C347.472 140.728 347.341 140.777 347.178 140.777H341.317C341.154 140.777 341.073 140.858 341.073 141.021V148.784C341.073 148.947 341.154 149.028 341.317 149.028H351.526C351.689 149.028 351.819 149.093 351.917 149.223C352.047 149.321 352.112 149.451 352.112 149.614V154.35C352.112 154.512 352.047 154.659 351.917 154.789C351.819 154.887 351.689 154.936 351.526 154.936H334.772C334.609 154.936 334.462 154.887 334.332 154.789C334.234 154.659 334.186 154.512 334.186 154.35V121.345C334.186 121.182 334.234 121.052 334.332 120.954C334.462 120.824 334.609 120.759 334.772 120.759H351.526C351.689 120.759 351.819 120.824 351.917 120.954C352.047 121.052 352.112 121.182 352.112 121.345V126.081Z" fill="white"/>
<path d="M369.085 154.936C368.726 154.936 368.499 154.773 368.401 154.447L364.64 140.972C364.575 140.842 364.493 140.777 364.396 140.777H362.735C362.572 140.777 362.491 140.858 362.491 141.021V154.35C362.491 154.512 362.425 154.659 362.295 154.789C362.197 154.887 362.067 154.936 361.904 154.936H356.189C356.027 154.936 355.88 154.887 355.75 154.789C355.652 154.659 355.603 154.512 355.603 154.35V121.345C355.603 121.182 355.652 121.052 355.75 120.954C355.88 120.824 356.027 120.759 356.189 120.759H366.056C367.847 120.759 369.443 121.198 370.843 122.077C372.243 122.923 373.318 124.128 374.067 125.69C374.849 127.252 375.239 129.043 375.239 131.061C375.239 132.981 374.865 134.674 374.116 136.138C373.399 137.603 372.39 138.742 371.087 139.556C371.022 139.589 370.973 139.637 370.941 139.703C370.908 139.735 370.908 139.784 370.941 139.849L375.435 154.252L375.483 154.447C375.483 154.773 375.304 154.936 374.946 154.936H369.085ZM362.735 126.667C362.572 126.667 362.491 126.748 362.491 126.911V135.26C362.491 135.422 362.572 135.504 362.735 135.504H364.933C365.942 135.504 366.756 135.113 367.375 134.332C368.026 133.518 368.352 132.444 368.352 131.11C368.352 129.742 368.026 128.668 367.375 127.887C366.756 127.073 365.942 126.667 364.933 126.667H362.735Z" fill="white"/>
<path d="M393.194 154.936C392.804 154.936 392.592 154.757 392.559 154.399L391.778 149.711C391.778 149.549 391.68 149.467 391.485 149.467H385.281C385.086 149.467 384.988 149.549 384.988 149.711L384.207 154.399C384.174 154.757 383.962 154.936 383.572 154.936H377.857C377.433 154.936 377.271 154.724 377.368 154.301L384.549 121.296C384.614 120.938 384.825 120.759 385.184 120.759H391.778C392.136 120.759 392.348 120.938 392.413 121.296L399.544 154.301L399.593 154.496C399.593 154.789 399.414 154.936 399.056 154.936H393.194ZM385.965 143.901C385.965 144.064 386.03 144.146 386.161 144.146H390.557C390.719 144.146 390.785 144.064 390.752 143.901L388.456 130.572C388.424 130.475 388.375 130.426 388.31 130.426C388.245 130.426 388.196 130.475 388.163 130.572L385.965 143.901Z" fill="white"/>
<path d="M418.488 120.759C418.651 120.759 418.781 120.824 418.879 120.954C419.009 121.052 419.074 121.182 419.074 121.345V126.081C419.074 126.243 419.009 126.39 418.879 126.52C418.781 126.618 418.651 126.667 418.488 126.667H412.382C412.219 126.667 412.138 126.748 412.138 126.911V154.35C412.138 154.512 412.073 154.659 411.943 154.789C411.845 154.887 411.715 154.936 411.552 154.936H405.837C405.674 154.936 405.528 154.887 405.397 154.789C405.3 154.659 405.251 154.512 405.251 154.35V126.911C405.251 126.748 405.169 126.667 405.007 126.667H399.145C398.982 126.667 398.836 126.618 398.705 126.52C398.608 126.39 398.559 126.243 398.559 126.081V121.345C398.559 121.182 398.608 121.052 398.705 120.954C398.836 120.824 398.982 120.759 399.145 120.759H418.488Z" fill="white"/>
<path d="M422.971 154.936C422.808 154.936 422.661 154.887 422.531 154.789C422.433 154.659 422.385 154.512 422.385 154.35V121.345C422.385 121.182 422.433 121.052 422.531 120.954C422.661 120.824 422.808 120.759 422.971 120.759H428.686C428.849 120.759 428.979 120.824 429.076 120.954C429.207 121.052 429.272 121.182 429.272 121.345V154.35C429.272 154.512 429.207 154.659 429.076 154.789C428.979 154.887 428.849 154.936 428.686 154.936H422.971Z" fill="white"/>
<path d="M443.02 155.326C440.025 155.326 437.631 154.447 435.84 152.69C434.049 150.932 433.154 148.588 433.154 145.659V130.035C433.154 127.106 434.049 124.762 435.84 123.005C437.631 121.247 440.025 120.368 443.02 120.368C446.016 120.368 448.41 121.247 450.201 123.005C452.024 124.762 452.936 127.106 452.936 130.035V145.659C452.936 148.588 452.024 150.932 450.201 152.69C448.41 154.447 446.016 155.326 443.02 155.326ZM443.02 149.418C443.932 149.418 444.665 149.109 445.219 148.491C445.772 147.84 446.049 146.994 446.049 145.952V129.742C446.049 128.701 445.772 127.871 445.219 127.252C444.665 126.601 443.932 126.276 443.02 126.276C442.109 126.276 441.376 126.601 440.822 127.252C440.301 127.871 440.041 128.701 440.041 129.742V145.952C440.041 146.994 440.301 147.84 440.822 148.491C441.376 149.109 442.109 149.418 443.02 149.418Z" fill="white"/>
<path d="M470.699 121.345C470.699 121.182 470.748 121.052 470.846 120.954C470.976 120.824 471.123 120.759 471.285 120.759H476.951C477.114 120.759 477.245 120.824 477.342 120.954C477.473 121.052 477.538 121.182 477.538 121.345V154.35C477.538 154.512 477.473 154.659 477.342 154.789C477.245 154.887 477.114 154.936 476.951 154.936H470.504C470.178 154.936 469.967 154.773 469.869 154.447L463.812 135.553C463.779 135.455 463.714 135.422 463.617 135.455C463.551 135.455 463.519 135.504 463.519 135.601L463.568 154.35C463.568 154.512 463.503 154.659 463.372 154.789C463.275 154.887 463.144 154.936 462.982 154.936H457.315C457.153 154.936 457.006 154.887 456.876 154.789C456.778 154.659 456.729 154.512 456.729 154.35V121.345C456.729 121.182 456.778 121.052 456.876 120.954C457.006 120.824 457.153 120.759 457.315 120.759H463.714C464.04 120.759 464.252 120.922 464.349 121.247L470.455 140.142C470.488 140.24 470.536 140.288 470.602 140.288C470.699 140.256 470.748 140.191 470.748 140.093L470.699 121.345Z" fill="white"/>
</svg>
