<svg width="1500" height="1500" viewBox="0 0 1500 1500" fill="none" xmlns="http://www.w3.org/2000/svg">
<path fill-rule="evenodd" clip-rule="evenodd" d="M746.36 1325.43L717.22 1324.71L688.44 1322.55L660.02 1318.95L631.96 1313.91L604.62 1307.79L578 1300.24L551.38 1291.25L525.84 1281.18L500.66 1269.67L476.2 1257.08L452.46 1243.41L429.44 1229.02L407.5 1213.19L385.92 1196.29L365.41 1178.3L345.63 1159.6L326.93 1140.17L309.3 1119.31L292.39 1098.09L276.56 1075.79L261.81 1052.77L248.14 1029.03L235.55 1004.57L224.4 979.75L214.33 953.85L205.34 927.59L197.79 900.61L191.31 873.27L186.27 845.57L182.68 817.15L180.52 788.37L179.8 759.23L180.52 730.09L182.68 701.31L186.27 672.89L191.31 644.83L197.79 617.49L205.34 590.51L214.33 564.25L224.4 538.71L235.55 513.53L248.14 489.07L261.81 465.33L276.56 442.31L292.39 420.01L309.3 398.79L326.93 378.28L345.63 358.5L365.41 339.8L385.92 321.81L407.5 305.26L429.44 289.44L452.46 274.69L476.21 261L500.67 248.41L525.85 237.26L551.39 226.83L578.01 218.2L604.63 210.29L631.97 204.17L660.03 199.13L688.45 195.53L717.23 193.37L746.37 192.65L775.51 193.37L804.29 195.53L832.71 199.13L860.41 204.17L887.75 210.29L914.73 218.2L940.99 226.83L966.89 237.26L992.07 248.41L1016.17 261L1039.91 274.67L1062.93 289.42L1085.23 305.24L1106.81 321.79L1127.31 339.78L1146.74 358.48L1165.8 378.26L1183.43 398.77L1200.33 419.99L1216.16 442.29L1230.91 465.31L1244.58 489.05L1256.81 513.51L1268.32 538.69L1278.39 564.23L1287.38 590.49L1294.93 617.47L1301.41 644.81L1306.09 672.87L1309.69 701.29L1312.21 730.07L1312.93 759.21L1312.21 788.35L1309.69 817.13L1306.09 845.55L1301.41 873.25L1294.93 900.59L1287.38 927.57L1278.39 953.83L1268.32 979.73L1256.81 1004.55L1244.58 1029.01L1230.91 1052.75L1216.16 1075.77L1200.33 1098.07L1183.43 1119.29L1165.8 1140.15L1146.74 1159.58L1127.31 1178.28L1106.81 1196.27L1085.23 1213.17L1062.93 1229L1039.91 1243.39L1016.17 1257.06L992.07 1269.65L966.89 1281.16L940.99 1291.23L914.73 1300.22L887.75 1307.77L860.41 1313.89L832.71 1318.93L804.29 1322.53L775.51 1324.69L746.36 1325.43ZM746.36 121.79L713.62 122.51L681.25 125.03L649.24 128.98L617.94 134.74L587.01 141.94L556.79 150.57L527.29 160.64L498.15 171.79L470.09 184.74L442.39 198.77L415.77 214.24L389.87 230.79L365.05 248.42L340.95 267.48L317.93 287.26L295.62 308.48L274.4 330.42L254.62 353.8L235.56 377.9L217.93 402.72L201.38 428.62L185.91 455.24L171.88 482.94L158.93 511L153.17 525.39L147.77 540.14L137.7 569.64L129.07 599.86L121.87 630.79L119 646.27L116.48 662.1L112.16 694.12L110.72 709.95L109.64 726.5L109.28 742.69L108.92 759.24L109.64 791.97L112.16 824.35L116.48 856.01L121.87 887.67L129.07 918.25L137.7 948.83L147.77 978.33L158.92 1007.11L171.87 1035.53L185.9 1062.87L201.37 1089.49L217.92 1115.39L235.55 1140.57L254.61 1164.67L274.39 1187.69L295.61 1209.63L317.92 1230.85L340.94 1251L365.04 1269.7L389.86 1287.69L415.76 1304.24L442.38 1319.7L470.08 1333.73L498.14 1346.32L512.53 1352.08L527.28 1357.83L556.78 1367.91L587 1376.54L617.93 1383.38L633.4 1386.61L649.23 1389.13L665.06 1391.29L681.25 1393.09L697.44 1394.53L713.63 1395.61L729.82 1396.33H746.37L779.1 1395.61L811.48 1393.09L843.5 1389.13L874.79 1383.37L905.73 1376.53L935.95 1367.9L965.45 1357.82L994.23 1346.31L1022.65 1333.72L1049.99 1319.69L1076.61 1304.23L1102.51 1287.68L1127.69 1269.69L1151.79 1250.99L1174.81 1230.84L1197.12 1209.62L1217.98 1187.68L1238.13 1164.66L1257.19 1140.56L1274.81 1115.38L1291.36 1089.48L1306.83 1062.86L1320.86 1035.52L1333.45 1007.1L1339.57 992.71L1344.96 978.32L1355.04 948.82L1363.67 918.24L1370.51 887.66L1373.74 871.83L1376.26 856L1378.42 840.17L1380.22 824.34L1381.66 808.15L1382.74 791.96L1383.46 775.41V759.22L1382.74 726.48L1380.22 694.11L1376.26 662.09L1370.51 630.79L1363.67 599.86L1355.04 569.64L1344.96 540.14L1333.45 511L1320.86 482.94L1306.83 455.24L1291.36 428.62L1274.81 402.72L1257.19 377.9L1238.13 353.8L1217.98 330.42L1197.12 308.48L1174.81 287.26L1151.79 267.48L1127.69 248.42L1102.51 230.79L1076.61 214.24L1049.99 198.77L1022.65 184.74L994.23 171.79L979.84 166.03L965.45 160.63L935.95 150.56L905.73 141.93L874.79 134.73L858.96 131.85L843.49 128.97L827.3 126.81L811.47 125.01L795.28 123.57L779.09 122.49L762.9 122.13L746.36 121.79Z" fill="#EDCD3F"/>
<path fill-rule="evenodd" clip-rule="evenodd" d="M501.75 919.3H490.6L479.81 918.22L469.02 917.14L458.59 914.98L448.16 912.82L438.09 909.94L428.01 906.34L418.3 902.74L408.95 898.42L399.6 893.74L390.97 888.35L381.97 882.96L373.7 876.85L365.79 870.73L357.87 863.89L350.32 856.7L343.49 849.51L336.65 841.59L330.18 833.68L324.42 825.05L318.66 816.41L313.62 807.42L308.94 798.43L304.62 788.72L300.66 779.01L297.42 769.3L294.54 758.87L292.02 748.8L290.22 738.01L288.78 727.58L288.06 716.43L287.7 705.64L288.06 694.49L288.78 683.7L290.22 672.91L292.02 662.48L294.54 652.04L297.42 641.97L300.66 631.9L304.62 622.19L308.94 612.84L313.62 603.85L318.66 594.86L324.42 586.23L330.18 577.59L336.65 569.68L343.49 561.76L350.32 554.56L357.87 547.37L365.79 540.54L373.7 534.42L381.97 528.31L390.97 522.55L399.6 517.51L408.95 512.83L418.3 508.51L428.01 504.55L438.09 501.31L448.16 498.43L458.59 495.91L469.02 494.11L479.81 492.67L490.6 491.95L501.75 491.59L512.54 491.95L523.69 492.67L534.12 494.11L544.91 495.91L554.99 498.43L565.42 501.31L575.13 504.55L584.84 508.51L594.19 512.83L603.54 517.51L612.53 522.55L621.16 528.31L629.44 534.42L637.71 540.54L645.26 547.37L652.81 554.56L660.01 561.76L666.48 569.68L672.96 577.59L679.08 586.23L684.48 594.86L689.51 603.85L694.55 612.84L698.87 622.19L702.47 631.9L706.07 641.97L708.95 652.04L711.11 662.48L712.91 672.91L714.35 683.7L715.07 694.49L715.43 705.64L715.07 716.43L714.35 727.58L712.91 738L711.11 748.79L708.95 758.86L706.07 769.29L702.47 779L698.87 788.71L694.55 798.42L689.51 807.41L684.48 816.4L679.08 825.04L672.96 833.67L666.48 841.58L660.01 849.5L652.81 856.69L645.26 863.88L637.71 870.72L629.44 876.84L621.16 882.95L612.53 888.34L603.54 893.73L594.19 898.41L584.84 902.73L575.13 906.33L565.42 909.93L554.99 912.81L544.91 914.97L534.12 917.13L523.69 918.21L512.54 919.29H501.75V919.3ZM501.75 391.23L485.56 391.59L469.37 392.67L453.9 394.83L438.43 397.71L422.97 400.94L408.22 405.26L393.47 410.29L379.44 416.05L365.41 422.17L351.74 429L338.79 436.55L325.84 444.82L313.61 453.81L301.74 462.8L290.23 472.87L279.44 483.3L269.01 494.09L258.94 505.6L249.59 517.47L240.95 529.7L232.68 542.65L225.13 555.6L218.29 569.27L211.81 583.3L206.42 597.33L201.38 612.08L197.06 626.83L193.82 642.3L190.94 657.77L188.78 673.6L187.7 689.43L187.34 705.62L187.7 721.81L188.78 737.64L190.94 753.47L193.46 768.94L197.06 784.05L201.38 799.16L206.42 813.55L211.81 827.94L218.29 841.97L225.13 855.28L232.68 868.59L240.95 881.54L249.59 893.77L258.94 905.64L269.01 917.15L279.44 927.94L290.23 938.37L301.74 948.08L313.61 957.43L325.84 966.42L338.79 974.33L351.74 981.88L365.41 989.08L379.44 995.2L393.47 1000.96L408.22 1006L422.97 1009.96L438.43 1013.56L453.9 1016.44L469.37 1018.24L485.56 1019.68L501.75 1020.04L517.94 1019.68L533.77 1018.24L549.6 1016.44L565.07 1013.56L580.18 1009.96L595.29 1006L609.68 1000.96L624.07 995.2L638.1 989.08L651.41 981.88L664.72 974.33L677.31 966.42L689.9 957.43L701.77 948.08L712.92 938.37L724.07 927.94L734.5 917.15L744.21 905.64L753.56 893.77L762.55 881.54L770.46 868.59L778.01 855.28L785.2 841.97L791.32 827.94L797.08 813.55L801.75 799.16L806.07 784.05L809.66 768.94L812.54 753.47L814.34 737.64L815.78 721.81L816.14 705.62L815.78 689.43L814.34 673.6L812.54 657.77L809.66 642.3L806.07 626.83L801.75 612.08L797.08 597.33L791.32 583.3L785.2 569.27L778.01 555.6L770.46 542.65L762.55 529.7L753.56 517.47L744.21 505.6L734.5 494.09L724.07 483.3L712.92 472.87L701.77 462.8L689.9 453.81L677.31 444.82L664.72 436.55L651.39 429L638.08 422.17L624.05 416.05L609.66 410.29L595.27 405.26L580.16 400.94L565.05 397.71L549.58 394.83L533.75 392.67L517.92 391.59L501.75 391.23Z" fill="#EDCD3F"/>
<path fill-rule="evenodd" clip-rule="evenodd" d="M504.99 932.97L493.12 932.61L481.61 931.89L470.1 930.45L458.95 928.29L447.8 925.77L437 922.9L426.57 919.3L416.14 914.98L406.07 910.66L396.36 905.63L386.65 900.23L377.3 894.12L368.3 887.64L360.03 881.17L351.75 873.97L343.84 866.42L336.29 858.51L329.09 850.23L322.26 841.6L315.78 832.61L310.02 823.26L304.26 813.91L299.22 803.84L294.9 793.76L290.58 783.33L286.98 772.9L284.1 762.11L281.58 750.96L279.42 739.81L278 728.29L277.28 716.78L276.92 704.91L277.28 693.4L278 681.89L279.44 670.38L281.6 659.23L284.12 648.08L287 637.29L290.6 626.5L294.92 616.43L299.24 606.36L304.28 596.29L310.04 586.94L315.8 577.59L322.28 568.6L329.11 559.97L336.31 551.69L343.86 543.78L351.77 536.23L360.05 529.03L368.32 522.56L377.32 516.08L386.67 509.96L396.38 504.56L406.09 499.53L416.16 494.85L426.59 490.89L437.02 487.3L447.81 484.42L458.96 481.54L470.11 479.74L481.62 478.3L493.13 477.22H505H516.51L528.38 478.3L539.53 479.74L550.68 481.54L561.83 484.42L572.62 487.3L583.41 490.89L593.48 494.85L603.92 499.53L613.63 504.56L622.98 509.96L632.33 516.08L641.32 522.2L649.95 529.03L658.23 536.23L666.15 543.78L673.7 551.69L680.89 559.97L687.72 568.6L693.83 577.59L699.95 586.94L705.35 596.29L710.39 606.36L715.06 616.43L719.02 626.5L722.62 637.29L725.86 648.08L728.38 659.23L730.18 670.38L731.62 681.89L732.7 693.4L733.06 704.91L732.7 716.78L731.62 728.29L730.18 739.8L728.38 750.95L725.86 762.1L722.62 772.89L719.02 783.32L715.06 793.75L710.39 803.83L705.35 813.9L699.95 823.25L693.83 832.6L687.72 841.59L680.89 850.22L673.7 858.5L666.15 866.41L658.23 873.96L649.95 881.16L641.32 887.63L632.33 894.11L622.98 900.22L613.63 905.62L603.92 910.65L593.48 914.97L583.41 919.29L572.62 922.89L561.83 925.77L550.68 928.29L539.53 930.45L528.38 931.89L516.51 932.61L504.99 932.97ZM504.99 406.34L489.52 406.7L474.41 407.78L459.3 409.58L444.55 412.46L430.16 415.7L416.13 419.66L402.1 424.34L388.43 429.74L375.48 435.86L362.53 442.33L349.94 449.53L337.71 457.44L326.2 465.72L314.69 474.35L303.9 484.06L293.47 493.77L283.76 504.2L274.41 514.99L265.42 526.14L257.15 538.01L249.23 550.24L242.03 562.47L235.56 575.42L229.44 588.73L224.04 602.4L219.36 616.07L215.4 630.46L212.16 644.85L209.64 659.6L207.48 674.35L206.4 689.82L206.04 704.93L206.4 720.4L207.48 735.51L209.64 750.62L212.16 765.37L215.4 779.76L219.36 793.79L224.04 807.82L229.44 821.49L235.56 834.8L242.03 847.39L249.23 859.98L257.15 872.21L265.42 883.72L274.41 895.23L283.76 906.02L293.47 916.46L303.9 926.17L314.69 935.52L326.2 944.51L337.71 952.78L349.94 960.69L362.53 967.89L375.48 974.36L388.43 980.48L402.1 985.88L416.13 990.56L430.16 994.52L444.55 997.76L459.3 1000.64L474.41 1002.44L489.52 1003.52L504.99 1003.88L520.45 1003.52L535.56 1002.44L550.31 1000.64L565.06 997.76L579.45 994.52L593.84 990.56L607.51 985.88L621.18 980.48L634.49 974.36L647.44 967.89L659.67 960.69L671.9 952.78L683.77 944.51L694.92 935.52L705.71 926.17L716.14 916.46L726.21 906.02L735.56 895.23L744.19 883.72L752.83 872.21L760.38 859.98L767.57 847.39L774.4 834.8L780.16 821.49L785.55 807.82L790.23 793.79L794.18 779.76L797.78 765.37L800.3 750.62L802.1 735.51L803.18 720.4L803.54 704.93L803.18 689.82L802.1 674.35L800.3 659.6L797.78 644.85L794.18 630.46L790.23 616.07L785.55 602.4L780.16 588.73L774.4 575.42L767.57 562.47L760.38 550.24L752.83 538.01L744.19 526.14L735.56 514.99L726.21 504.2L716.14 493.77L705.71 484.06L694.92 474.35L683.77 465.72L671.9 457.44L659.67 449.53L647.44 442.33L634.49 435.86L621.18 429.74L607.51 424.34L593.84 419.66L579.45 415.7L565.06 412.46L550.31 409.58L535.56 407.78L520.45 406.7L504.99 406.34Z" fill="#FFDC00"/>
<path fill-rule="evenodd" clip-rule="evenodd" d="M612.19 1186.94L601.04 1186.58L590.25 1185.86L579.46 1184.42L569.02 1182.62L558.59 1180.1L548.52 1177.22L538.45 1173.98L528.74 1170.02L519.39 1165.7L510.04 1161.02L501.05 1155.98L492.42 1150.22L484.14 1144.46L476.23 1137.98L468.32 1131.14L460.77 1124.31L453.93 1116.76L447.1 1108.84L440.62 1100.92L434.86 1092.65L429.1 1084.01L424.07 1075.02L419.39 1065.67L415.07 1056.32L411.11 1046.61L407.87 1036.54L404.99 1026.46L402.47 1016.03L400.67 1005.6L399.23 994.81L398.51 984.02L398.15 972.87L398.51 962.08L399.23 950.93L400.67 940.5L402.47 929.71L404.99 919.63L407.87 909.2L411.11 899.49L415.07 889.78L419.39 880.43L424.07 871.08L429.1 862.09L434.86 853.46L440.62 845.18L447.1 836.91L453.93 829.36L460.77 821.81L468.32 814.61L476.23 808.14L484.14 801.66L492.42 795.54L501.05 790.15L510.04 785.11L519.39 780.07L528.74 775.75L538.45 772.15L548.52 768.92L558.59 765.68L569.02 763.52L579.46 761.72L590.25 760.28L601.04 759.56L612.19 759.2L622.98 759.56L633.77 760.28L644.56 761.72L654.99 763.52L665.42 765.68L675.49 768.92L685.56 772.15L695.27 775.75L704.62 780.07L713.97 785.11L722.96 790.15L731.6 795.54L739.87 801.66L748.15 808.14L755.7 814.61L763.25 821.81L770.44 829.36L776.92 836.91L783.4 845.18L789.52 853.46L794.91 862.09L799.95 871.08L804.98 880.43L808.94 889.78L812.9 899.49L816.14 909.2L819.02 919.63L821.54 929.71L823.34 940.5L824.78 950.93L825.5 962.08L825.86 972.87L825.5 984.02L824.78 994.81L823.34 1005.6L821.54 1016.03L819.02 1026.46L816.14 1036.54L812.9 1046.61L808.94 1056.32L804.98 1065.67L799.95 1075.02L794.91 1084.01L789.52 1092.65L783.4 1100.92L776.92 1108.84L770.44 1116.76L763.25 1124.31L755.7 1131.14L748.15 1137.98L739.87 1144.46L731.6 1150.22L722.96 1155.98L713.97 1161.02L704.62 1165.7L695.27 1170.02L685.56 1173.98L675.49 1177.22L665.42 1180.1L654.99 1182.62L644.56 1184.42L633.77 1185.86L622.98 1186.58L612.19 1186.94ZM612.19 658.5L596 658.86L579.81 660.3L564.35 662.1L548.88 664.98L533.41 668.58L518.66 672.9L503.91 677.58L489.52 683.34L475.85 689.46L462.18 696.65L448.87 704.2L436.28 712.48L424.05 721.11L412.18 730.46L400.67 740.17L389.88 750.61L379.45 761.76L369.38 772.91L360.03 784.78L351.4 797.37L343.12 809.96L335.57 823.27L328.73 836.58L322.26 850.61L316.86 865L311.83 879.39L307.51 894.5L303.91 909.61L301.39 925.08L299.23 940.91L298.15 956.74L297.79 972.93L298.15 989.12L299.23 1005.31L301.39 1020.78L303.91 1036.25L307.51 1051.72L311.83 1066.47L316.86 1081.22L322.26 1095.25L328.73 1109.28L335.57 1122.95L343.12 1135.9L351.4 1148.85L360.03 1161.08L369.38 1172.95L379.45 1184.46L389.88 1195.25L400.67 1205.68L412.18 1215.75L424.05 1225.1L436.28 1233.73L448.87 1242L462.18 1249.56L475.85 1256.39L489.52 1262.87L503.91 1268.26L518.66 1273.3L533.41 1277.62L548.88 1281.22L564.35 1283.74L579.81 1285.9L596 1286.98L612.19 1287.34L628.38 1286.98L644.21 1285.9L660.04 1283.74L675.5 1281.22L690.61 1277.62L705.72 1273.3L720.11 1268.26L734.5 1262.87L748.53 1256.39L761.84 1249.56L775.15 1242L787.74 1233.73L800.33 1225.1L812.2 1215.75L823.35 1205.68L834.5 1195.25L844.93 1184.46L854.64 1172.95L863.99 1161.08L872.62 1148.85L880.89 1135.9L888.44 1122.95L895.64 1109.28L901.76 1095.25L907.51 1081.22L912.19 1066.47L916.51 1051.72L920.11 1036.25L922.99 1020.78L924.79 1005.31L926.23 989.12L926.59 972.93L926.23 956.74L924.79 940.91L922.99 925.08L920.11 909.61L916.51 894.5L912.19 879.39L907.51 865L901.76 850.61L895.64 836.58L888.44 823.27L880.89 809.96L872.62 797.37L864 784.77L854.65 772.9L844.94 761.75L834.51 750.6L823.36 740.16L812.21 730.45L800.34 721.1L787.75 712.47L775.16 704.19L761.85 696.64L748.54 689.45L734.51 683.33L720.12 677.57L705.73 672.89L690.62 668.57L675.51 664.97L660.05 662.09L644.22 660.29L628.39 658.85L612.19 658.5Z" fill="#EDCD3F"/>
<path fill-rule="evenodd" clip-rule="evenodd" d="M612.91 1200.97L601.4 1200.61L589.53 1199.89L578.38 1198.45L567.23 1196.29L556.08 1193.77L545.29 1190.89L534.5 1187.29L524.43 1182.97L514 1178.65L504.29 1173.61L494.94 1167.85L485.59 1162.1L476.6 1155.62L467.97 1148.79L459.69 1141.59L451.78 1134.04L444.23 1126.13L437.03 1117.85L430.2 1109.58L424.08 1100.58L417.97 1091.23L412.57 1081.52L407.54 1071.8L402.86 1061.73L398.9 1051.3L395.3 1040.87L392.06 1030.08L389.54 1018.93L387.74 1007.78L386.3 996.27L385.22 984.76L384.86 972.89L385.22 961.38L386.3 949.51L387.74 938.36L389.54 927.21L392.06 916.06L395.3 905.27L398.9 894.48L402.86 884.41L407.54 873.97L412.57 864.26L417.97 854.91L424.08 845.56L430.2 836.57L437.03 827.94L444.23 819.66L451.78 811.75L459.69 804.2L467.97 797.01L476.6 790.18L485.59 784.06L494.94 777.94L504.29 772.54L514 767.5L524.43 762.83L534.5 758.87L545.29 755.27L556.08 752.04L567.23 749.52L578.38 747.72L589.53 746.28L601.4 745.2L612.91 744.84L624.78 745.2L636.29 746.28L647.8 747.72L658.95 749.52L670.1 752.04L680.89 755.27L691.32 758.87L701.75 762.83L711.82 767.5L721.53 772.54L731.24 777.94L740.59 784.06L749.58 790.18L757.85 797.01L766.12 804.2L774.39 811.75L781.59 819.66L788.78 827.94L795.61 836.57L802.09 845.56L807.85 854.91L813.61 864.26L818.64 873.97L822.96 884.41L827.28 894.48L830.88 905.27L833.76 916.06L836.28 927.21L838.44 938.36L839.88 949.51L840.6 961.38L840.96 972.89L840.6 984.76L839.88 996.27L838.44 1007.78L836.28 1018.93L833.76 1030.08L830.88 1040.87L827.28 1051.3L822.96 1061.73L818.64 1071.8L813.61 1081.52L807.85 1091.23L802.09 1100.58L795.61 1109.58L788.78 1117.85L781.59 1126.13L774.39 1134.04L766.12 1141.59L757.85 1148.79L749.58 1155.62L740.59 1162.1L731.24 1167.85L721.53 1173.61L711.82 1178.65L701.75 1182.97L691.32 1187.29L680.89 1190.89L670.1 1193.77L658.95 1196.29L647.8 1198.45L636.29 1199.89L624.78 1200.61L612.91 1200.97ZM612.91 674.33L597.8 674.69L582.33 675.77L567.58 677.57L552.83 680.09L538.44 683.69L524.05 687.65L510.38 692.33L496.71 697.72L483.4 703.84L470.45 710.32L458.22 717.51L445.99 725.06L434.12 733.7L422.97 742.33L412.18 751.68L401.74 761.75L391.67 772.18L382.32 782.97L373.69 794.12L365.06 805.99L357.51 818.22L350.31 830.45L343.84 843.4L337.72 856.71L332.32 870.38L327.64 884.05L323.68 898.44L320.08 912.83L317.56 927.58L315.76 942.33L314.68 957.8L314.32 972.91L314.68 988.38L315.76 1003.49L317.56 1018.6L320.08 1033.35L323.68 1047.74L327.64 1061.77L332.32 1075.8L337.72 1089.47L343.84 1102.42L350.31 1115.37L357.51 1127.96L365.06 1140.19L373.69 1151.7L382.32 1163.21L391.67 1174L401.74 1184.43L412.18 1194.14L422.97 1203.49L434.12 1212.48L445.99 1220.75L458.22 1228.67L470.45 1235.87L483.4 1242.34L496.71 1248.46L510.38 1253.86L524.05 1258.54L538.44 1262.5L552.83 1265.74L567.58 1268.26L582.33 1270.42L597.8 1271.5L612.91 1271.86L628.37 1271.5L643.48 1270.42L658.59 1268.26L673.34 1265.74L687.73 1262.5L701.76 1258.54L715.79 1253.86L729.46 1248.46L742.41 1242.34L755.36 1235.87L767.95 1228.67L780.18 1220.75L791.69 1212.48L803.2 1203.49L813.99 1194.14L824.42 1184.43L834.13 1174L843.48 1163.21L852.47 1151.7L860.75 1140.19L868.66 1127.96L875.86 1115.37L882.33 1102.42L888.45 1089.47L893.85 1075.8L898.53 1061.77L902.49 1047.74L905.73 1033.35L908.25 1018.6L910.41 1003.49L911.49 988.38L911.85 972.91L911.49 957.8L910.41 942.33L908.25 927.58L905.73 912.83L902.49 898.44L898.53 884.05L893.85 870.38L888.45 856.71L882.33 843.4L875.86 830.45L868.66 818.22L860.75 805.99L852.47 794.12L843.48 782.97L834.13 772.18L824.42 761.75L813.99 751.68L803.2 742.33L791.69 733.7L780.18 725.06L767.95 717.51L755.36 710.32L742.41 703.84L729.46 697.72L715.79 692.33L701.76 687.65L687.73 683.69L673.34 680.09L658.59 677.57L643.48 675.77L628.37 674.69L612.91 674.33Z" fill="#253481"/>
<path fill-rule="evenodd" clip-rule="evenodd" d="M1113.29 920.74L1111.85 924.7L1110.05 927.22L1110.41 931.17L1112.56 940.89L1114.36 951.68L1115.8 965.71L1116.16 967.15L1116.88 968.59L1117.96 969.31H1119.4L1122.63 968.95L1126.95 967.15L1132.35 964.27L1138.1 960.31L1150.33 950.96L1162.56 940.89L1173 931.17L1183.43 921.46L1178.4 897.72L1173 878.3L1167.24 861.03L1160.41 844.48L1113.29 920.74Z" fill="#CC1316"/>
<path fill-rule="evenodd" clip-rule="evenodd" d="M889.9 1182.26H878.75L867.96 1181.18L857.17 1179.74L846.74 1177.94L836.31 1175.78L826.23 1172.9L816.16 1169.3L806.45 1165.7L797.1 1161.38L787.75 1156.71L778.76 1151.31L770.12 1145.92L761.85 1139.8L753.58 1133.68L746.03 1126.84L738.48 1119.65L731.29 1112.46L724.82 1104.54L718.34 1096.62L712.58 1087.99L706.82 1079.35L701.78 1070.36L697.1 1061.37L692.78 1051.66L688.82 1041.95L685.58 1032.24L682.7 1021.81L680.18 1011.74L678.38 1000.95L676.94 990.52L676.22 979.37L675.86 968.58L676.22 957.43L676.94 946.64L678.38 935.85L680.18 925.42L682.7 914.98L685.58 904.91L688.82 894.84L692.78 885.12L697.1 875.77L701.78 866.42L706.82 857.79L712.58 848.8L718.34 840.52L724.82 832.61L731.29 824.7L738.48 817.15L746.03 810.31L753.58 803.48L761.85 797L770.12 791.24L778.76 785.49L787.75 780.45L797.1 775.77L806.45 771.45L816.16 767.49L826.23 764.26L836.31 761.38L846.74 758.86L857.17 757.06L867.96 755.62L878.75 754.9L889.9 754.54L900.69 754.9L911.48 755.62L922.27 757.06L932.7 758.86L943.14 761.38L953.21 764.26L963.28 767.49L972.99 771.45L982.34 775.77L991.69 780.45L1000.68 785.49L1009.31 791.24L1017.59 797L1025.86 803.48L1033.41 810.31L1040.96 817.15L1048.15 824.7L1054.63 832.61L1061.11 840.52L1066.87 848.8L1072.62 857.79L1077.66 866.42L1082.34 875.77L1086.66 885.12L1090.62 894.84L1093.85 904.91L1096.73 914.98L1099.25 925.42L1101.05 935.85L1102.49 946.64L1103.21 957.43L1103.57 968.58L1103.21 979.37L1102.49 990.52L1101.05 1000.95L1099.25 1011.74L1096.73 1021.81L1093.85 1032.24L1090.62 1041.95L1086.66 1051.66L1082.34 1061.37L1077.66 1070.36L1072.62 1079.35L1066.87 1087.99L1061.11 1096.62L1054.63 1104.54L1048.15 1112.46L1040.96 1119.65L1033.41 1126.84L1025.86 1133.68L1017.59 1139.8L1009.31 1145.92L1000.68 1151.31L991.69 1156.71L982.34 1161.38L972.99 1165.7L963.28 1169.3L953.21 1172.9L943.14 1175.78L932.7 1177.94L922.27 1179.74L911.48 1181.18L900.69 1182.26H889.9ZM889.9 654.19L873.71 654.55L857.52 655.63L841.69 657.79L826.22 660.67L811.11 663.91L796.36 668.23L781.61 673.26L767.22 678.66L753.55 685.14L739.88 691.97L726.57 699.52L713.98 707.8L701.75 716.43L689.88 725.78L678.37 735.85L667.58 746.28L657.15 757.07L647.08 768.58L637.73 780.45L629.1 792.68L620.82 805.63L613.27 818.58L606.44 832.25L599.96 846.28L594.57 860.31L589.53 875.06L585.21 889.81L581.61 905.28L579.09 920.75L576.93 936.22L575.85 952.41L575.49 968.6L575.85 984.79L576.93 1000.62L579.09 1016.45L581.61 1031.92L585.21 1047.03L589.53 1062.14L594.57 1076.53L599.96 1090.92L606.44 1104.95L613.27 1118.26L620.82 1131.57L629.1 1144.52L637.73 1156.75L647.08 1168.62L657.15 1179.77L667.58 1190.92L678.37 1201.35L689.88 1211.06L701.75 1220.41L713.98 1229.4L726.57 1237.32L739.88 1244.87L753.55 1252.06L767.22 1258.18L781.61 1263.93L796.36 1268.97L811.11 1272.93L826.22 1276.53L841.69 1279.41L857.52 1281.21L873.71 1282.65L889.9 1283.01L905.73 1282.65L921.92 1281.21L937.75 1279.41L953.22 1276.53L968.33 1272.93L983.08 1268.97L997.83 1263.93L1012.22 1258.18L1025.89 1252.06L1039.56 1244.87L1052.87 1237.32L1065.46 1229.4L1077.69 1220.41L1089.56 1211.06L1101.07 1201.35L1112.22 1190.92L1122.3 1179.77L1132.37 1168.62L1141.72 1156.75L1150.35 1144.52L1158.63 1131.57L1166.18 1118.26L1173.01 1104.95L1179.49 1090.92L1184.89 1076.53L1189.92 1062.14L1194.24 1047.03L1197.84 1031.92L1200.36 1016.45L1202.52 1000.62L1203.6 984.79L1204.32 968.6L1203.6 952.41L1202.52 936.22L1200.36 920.75L1197.84 905.28L1194.24 889.81L1189.92 875.06L1184.89 860.31L1179.49 846.28L1173.01 832.25L1166.18 818.58L1158.63 805.63L1150.35 792.68L1141.72 780.45L1132.37 768.58L1122.3 757.07L1112.22 746.28L1101.07 735.85L1089.56 725.78L1077.69 716.43L1065.46 707.8L1052.87 699.52L1039.56 691.97L1025.89 685.14L1012.22 678.66L997.83 673.26L983.08 668.23L968.33 663.91L953.22 660.67L937.75 657.79L921.92 655.63L905.73 654.55L889.9 654.19Z" fill="#EDCD3F"/>
<path fill-rule="evenodd" clip-rule="evenodd" d="M888.45 1195.57L876.58 1195.21L865.07 1194.49L853.92 1193.05L842.41 1190.89L831.62 1188.37L820.83 1185.13L810.04 1181.53L799.61 1177.58L789.54 1172.9L779.83 1167.86L770.12 1162.47L761.13 1156.71L752.14 1150.23L743.51 1143.39L735.23 1136.2L727.32 1128.65L719.77 1120.74L712.58 1112.47L705.75 1103.83L699.27 1094.84L693.51 1085.85L688.11 1076.14L683.08 1066.43L678.4 1056.36L674.44 1045.92L670.85 1035.49L667.61 1024.34L665.09 1013.55L663.29 1002.4L661.49 990.89L660.77 979.38L660.41 967.51L660.77 955.64L661.49 944.13L663.29 932.62L665.09 921.47L667.61 910.68L670.85 899.89L674.44 889.1L678.4 878.66L683.08 868.59L688.11 858.88L693.51 849.17L699.27 840.18L705.75 831.19L712.58 822.55L719.77 814.28L727.32 806.36L735.23 798.81L743.51 791.62L752.14 784.78L761.13 778.3L770.12 772.55L779.83 767.16L789.54 762.12L799.61 757.44L810.04 753.48L820.83 749.88L831.62 746.64L842.41 744.12L853.92 741.96L865.07 740.52L876.58 739.8L888.45 739.44L900.32 739.8L911.83 740.52L923.34 741.96L934.49 744.12L945.28 746.64L956.43 749.88L966.86 753.48L977.29 757.44L987.36 762.12L997.07 767.16L1006.78 772.55L1015.77 778.3L1024.76 784.78L1033.39 791.62L1041.67 798.81L1049.58 806.36L1057.13 814.28L1064.32 822.55L1071.15 831.19L1077.62 840.18L1083.38 849.17L1088.78 858.88L1093.81 868.59L1098.49 878.66L1102.45 889.1L1106.05 899.89L1109.29 910.68L1111.81 921.47L1113.97 932.62L1115.41 944.13L1116.13 955.64L1116.49 967.51L1116.13 979.38L1115.41 990.89L1113.97 1002.4L1111.81 1013.55L1109.29 1024.34L1106.05 1035.49L1102.45 1045.92L1098.49 1056.36L1093.81 1066.43L1088.78 1076.14L1083.38 1085.85L1077.62 1094.84L1071.15 1103.83L1064.32 1112.47L1057.13 1120.74L1049.58 1128.65L1041.67 1136.2L1033.39 1143.39L1024.76 1150.23L1015.77 1156.71L1006.78 1162.47L997.07 1167.86L987.36 1172.9L977.29 1177.58L966.86 1181.53L956.43 1185.13L945.28 1188.37L934.49 1190.89L923.34 1193.05L911.83 1194.49L900.32 1195.21L888.45 1195.57ZM888.45 668.57L872.98 668.93L857.87 670.37L843.12 672.17L828.37 674.69L813.62 677.93L799.59 682.25L785.56 686.92L772.25 692.32L758.94 698.08L746 704.91L733.41 712.1L721.54 719.65L709.67 727.92L698.52 736.92L687.73 746.27L677.3 756.34L667.23 766.41L657.88 777.56L648.89 788.71L640.61 800.58L633.06 812.45L625.87 825.04L619.04 837.99L613.28 851.3L607.89 864.61L603.21 878.64L599.25 892.67L595.65 907.42L593.13 922.17L591.33 936.92L589.89 952.03L589.53 967.5L589.89 982.97L591.33 998.08L593.13 1013.19L595.65 1027.58L599.25 1042.33L603.21 1056.36L607.89 1070.39L613.28 1083.7L619.04 1097.01L625.87 1109.96L633.06 1122.55L640.61 1134.42L648.89 1146.29L657.88 1157.44L667.23 1168.59L677.3 1178.66L687.73 1188.73L698.52 1198.08L709.67 1207.07L721.54 1215.35L733.41 1222.9L746 1230.09L758.95 1236.93L772.26 1242.68L785.57 1248.07L799.6 1252.75L813.63 1257.07L828.38 1260.3L843.13 1262.82L857.88 1264.62L872.99 1266.06L888.46 1266.42L903.93 1266.06L919.04 1264.62L934.15 1262.82L948.54 1260.3L963.29 1257.07L977.32 1252.75L991.35 1248.07L1004.66 1242.68L1017.97 1236.93L1030.92 1230.09L1043.51 1222.9L1055.74 1215.35L1067.25 1207.07L1078.4 1198.08L1089.55 1188.73L1099.62 1178.66L1109.69 1168.59L1119.04 1157.44L1128.03 1146.29L1136.3 1134.42L1144.21 1122.55L1151.41 1109.96L1157.88 1097.01L1164 1083.7L1169.04 1070.39L1173.72 1056.36L1178.04 1042.33L1181.28 1027.58L1183.8 1013.19L1185.96 998.08L1187.04 982.97L1187.4 967.5L1187.04 952.03L1185.96 936.92L1183.8 922.17L1181.28 907.42L1178.04 892.67L1173.72 878.64L1169.04 864.61L1164 851.3L1157.88 837.99L1151.41 825.04L1144.21 812.45L1136.3 800.58L1128.03 788.71L1119.04 777.56L1109.69 766.41L1099.62 756.34L1089.55 746.27L1078.4 736.92L1067.25 727.92L1055.74 719.65L1043.51 712.1L1030.92 704.91L1017.97 698.07L1004.66 692.31L991.35 686.91L977.32 682.24L963.29 677.92L948.54 674.68L934.15 672.16L919.04 670.36L903.93 668.92L888.45 668.57Z" fill="#CC1316"/>
<path fill-rule="evenodd" clip-rule="evenodd" d="M988.46 909.59L977.31 909.23L966.52 908.51L955.73 907.07L945.3 905.27L934.87 902.75L924.8 899.87L915.09 896.64L905.38 892.68L895.67 888.36L886.68 883.68L877.69 878.64L869.05 872.89L860.42 867.13L852.5 860.65L844.59 854.17L837.4 846.98L830.21 839.43L823.37 831.88L817.25 823.61L811.13 815.33L805.74 806.7L800.34 797.71L795.66 788.36L791.34 779.01L787.74 769.3L784.14 759.23L781.26 749.16L779.1 738.72L776.94 728.29L775.86 717.5L774.78 706.71L774.42 695.56L774.78 684.77L775.86 673.98L776.94 663.19L779.1 652.76L781.26 642.33L784.14 632.25L787.74 622.18L791.34 612.47L795.66 603.12L800.34 593.77L805.74 584.78L811.13 576.15L817.25 567.88L823.37 559.6L830.21 552.05L837.4 544.5L844.59 537.31L852.5 530.83L860.42 524.35L869.05 518.59L877.69 512.83L886.68 507.79L895.67 503.11L905.38 498.79L915.09 494.83L924.8 491.59L934.87 488.71L945.3 486.19L955.73 484.39L966.52 482.95L977.31 482.23L988.46 481.87L999.61 482.23L1010.4 482.95L1021.19 484.39L1031.62 486.19L1042.05 488.71L1052.13 491.59L1061.84 494.83L1071.55 498.79L1081.26 503.11L1090.25 507.79L1099.24 512.83L1107.87 518.59L1116.51 524.35L1124.42 530.83L1132.34 537.31L1139.53 544.5L1146.73 552.05L1153.56 559.6L1159.68 567.88L1165.8 576.15L1171.2 584.78L1176.59 593.77L1181.27 603.12L1185.59 612.47L1189.19 622.18L1192.78 632.25L1195.66 642.33L1197.82 652.76L1199.98 663.19L1201.06 673.98L1202.14 684.77V695.56V706.71L1201.06 717.5L1199.98 728.29L1197.82 738.72L1195.66 749.16L1192.78 759.23L1189.19 769.3L1185.59 779.01L1181.27 788.36L1176.59 797.71L1171.2 806.7L1165.8 815.33L1159.68 823.61L1153.56 831.88L1146.73 839.43L1139.53 846.98L1132.34 854.17L1124.42 860.65L1116.51 867.13L1107.87 872.89L1099.24 878.64L1090.25 883.68L1081.26 888.36L1071.55 892.68L1061.84 896.64L1052.13 899.87L1042.05 902.75L1031.62 905.27L1021.19 907.07L1010.4 908.51L999.61 909.23L988.46 909.59ZM988.46 381.15L972.27 381.87L956.44 382.95L940.61 385.11L925.14 387.63L910.03 391.23L894.92 395.55L880.17 400.59L866.14 405.98L852.11 412.45L838.44 419.28L825.49 426.83L812.54 435.11L800.31 443.74L788.44 453.09L776.93 463.17L766.14 473.24L755.71 484.39L746 495.91L736.65 507.78L727.66 520.01L719.39 532.6L711.84 545.91L705 559.58L698.89 573.25L693.13 587.64L688.09 602.39L683.77 617.14L680.53 632.25L677.65 647.72L675.49 663.55L674.41 679.74L674.05 695.57L674.41 711.76L675.49 727.95L677.65 743.78L680.53 759.25L683.77 774.36L688.09 789.11L693.13 803.86L698.89 818.25L705 831.92L711.84 845.59L719.39 858.9L727.66 871.49L736.65 883.72L746 895.59L755.71 907.1L766.14 918.25L776.93 928.32L788.44 938.39L800.31 947.74L812.54 956.37L825.49 964.65L838.44 972.2L852.11 979.03L866.14 985.5L880.17 990.9L894.92 995.93L910.03 1000.25L925.14 1003.85L940.61 1006.37L956.44 1008.53L972.27 1009.61L988.46 1010.33L1004.65 1009.61L1020.48 1008.53L1036.31 1006.37L1051.78 1003.85L1066.89 1000.25L1082 995.93L1096.39 990.9L1110.78 985.5L1124.81 979.03L1138.48 972.2L1151.43 964.65L1164.38 956.37L1176.61 947.74L1188.48 938.39L1199.99 928.32L1210.78 918.25L1221.21 907.1L1230.92 895.59L1240.27 883.72L1249.26 871.49L1257.18 858.9L1264.73 845.59L1271.92 831.92L1278.03 818.25L1283.79 803.86L1288.82 789.11L1292.78 774.36L1296.38 759.25L1299.26 743.78L1301.06 727.95L1302.5 711.76L1302.86 695.57L1302.5 679.74L1301.06 663.55L1299.26 647.72L1296.38 632.25L1292.78 617.14L1288.82 602.39L1283.79 587.64L1278.03 573.25L1271.92 559.58L1264.73 545.91L1257.18 532.6L1249.26 520.01L1240.27 507.78L1230.92 495.91L1221.21 484.4L1210.78 473.25L1199.99 463.18L1188.48 453.1L1176.61 443.75L1164.38 435.12L1151.43 426.84L1138.48 419.29L1124.81 412.46L1110.78 405.99L1096.39 400.6L1082 395.56L1066.89 391.24L1051.78 387.64L1036.31 385.12L1020.48 382.96L1004.65 381.88L988.46 381.15Z" fill="#EDCD3F"/>
<path fill-rule="evenodd" clip-rule="evenodd" d="M987.38 923.98L975.51 923.62L964 922.54L952.49 921.1L941.34 919.3L930.19 916.78L919.4 913.54L908.97 909.95L898.54 905.99L888.47 901.31L878.76 896.28L869.05 890.88L860.06 884.76L851.07 878.64L842.44 871.81L834.17 864.62L826.25 857.07L818.7 849.16L811.51 840.88L804.68 832.25L798.2 823.26L792.44 814.27L787.04 804.55L782 794.84L777.33 784.77L773.37 774.34L769.77 763.55L766.53 752.76L764.01 741.97L761.85 730.46L760.41 719.31L759.69 707.44L759.33 695.93L759.69 684.06L760.41 672.55L761.85 661.04L764.01 649.89L766.53 638.74L769.77 627.95L773.37 617.52L777.33 607.09L782 597.02L787.04 587.31L792.44 577.6L798.2 568.25L804.68 559.62L811.51 550.99L818.7 542.71L826.25 534.8L834.17 527.25L842.44 520.06L851.07 513.23L860.06 506.75L869.05 500.99L878.76 495.23L888.47 490.2L898.54 485.88L908.97 481.56L919.4 477.96L930.19 475.08L941.34 472.56L952.49 470.4L964 468.96L975.51 468.24L987.38 467.88L999.25 468.24L1010.76 468.96L1021.91 470.4L1033.42 472.56L1044.21 475.08L1055 477.96L1065.79 481.56L1076.22 485.88L1086.29 490.2L1096 495.23L1105.71 500.99L1114.7 506.75L1123.69 513.23L1132.32 520.06L1140.59 527.25L1148.5 534.8L1156.05 542.71L1163.25 550.99L1170.08 559.62L1176.56 568.25L1182.32 577.6L1187.72 587.31L1192.75 597.02L1197.43 607.09L1201.39 617.52L1204.99 627.95L1208.23 638.74L1210.75 649.89L1212.55 661.04L1213.99 672.55L1215.07 684.06L1215.43 695.93L1215.07 707.44L1213.99 719.31L1212.55 730.46L1210.75 741.97L1208.23 752.76L1204.99 763.55L1201.39 774.34L1197.43 784.77L1192.75 794.84L1187.72 804.55L1182.32 814.27L1176.56 823.26L1170.08 832.25L1163.25 840.88L1156.05 849.16L1148.5 857.07L1140.59 864.62L1132.32 871.81L1123.69 878.64L1114.7 884.76L1105.71 890.88L1096 896.28L1086.29 901.31L1076.22 905.99L1065.79 909.95L1055 913.54L1044.21 916.78L1033.42 919.3L1021.91 921.1L1010.76 922.54L999.25 923.62L987.38 923.98ZM987.38 396.98L971.92 397.34L956.81 398.42L941.7 400.58L926.95 403.1L912.56 406.34L898.53 410.3L884.5 415.34L871.19 420.38L857.88 426.5L844.93 432.97L832.34 440.17L820.11 448.08L808.6 456.36L797.09 465.35L786.3 474.7L776.22 484.41L766.15 494.84L756.8 505.63L747.81 517.14L739.53 528.65L731.62 540.88L724.42 553.47L717.95 566.42L711.83 579.37L706.79 593.04L702.11 607.07L697.79 621.1L694.55 635.49L692.03 650.24L689.87 665.35L688.79 680.46L688.43 695.93L688.79 711.4L689.87 726.51L692.03 741.26L694.55 756.01L697.79 770.4L702.11 784.79L706.79 798.46L711.83 812.13L717.95 825.44L724.42 838.39L731.62 850.98L739.53 862.85L747.81 874.72L756.8 885.87L766.15 896.66L776.22 907.09L786.3 917.16L797.09 926.51L808.6 935.5L820.11 943.78L832.34 951.33L844.93 958.52L857.88 965.35L871.19 971.11L884.5 976.5L898.53 981.18L912.56 985.14L926.95 988.74L941.7 991.26L956.81 993.06L971.92 994.14L987.38 994.86L1002.85 994.14L1017.96 993.06L1032.71 991.26L1047.46 988.74L1061.85 985.14L1076.24 981.18L1090.27 976.5L1103.58 971.11L1116.89 965.35L1129.84 958.52L1142.43 951.33L1154.31 943.78L1166.18 935.5L1177.33 926.51L1188.12 917.16L1198.56 907.09L1208.63 896.66L1217.98 885.87L1226.97 874.72L1235.24 862.85L1242.79 850.98L1249.99 838.39L1256.82 825.44L1262.57 812.13L1267.97 798.46L1272.65 784.79L1276.61 770.4L1280.21 756.01L1282.73 741.26L1284.53 726.51L1285.97 711.4L1286.33 695.93L1285.97 680.46L1284.53 665.35L1282.73 650.24L1280.21 635.49L1276.61 621.1L1272.65 607.07L1267.97 593.04L1262.57 579.37L1256.82 566.42L1249.99 553.47L1242.79 540.88L1235.24 528.65L1226.97 517.14L1217.98 505.63L1208.63 494.84L1198.56 484.41L1188.12 474.7L1177.33 465.35L1166.18 456.36L1154.31 448.08L1142.43 440.17L1129.84 432.97L1116.89 426.5L1103.58 420.38L1090.27 415.34L1076.24 410.3L1061.85 406.34L1047.46 403.1L1032.71 400.58L1017.96 398.42L1002.85 397.34L987.38 396.98Z" fill="#3EA334"/>
<path fill-rule="evenodd" clip-rule="evenodd" d="M748.88 725.05H737.73L726.94 723.97L716.15 722.89L705.72 720.73L695.28 718.57L685.21 715.69L675.14 712.09L665.43 708.49L656.08 704.17L646.73 699.49L637.74 694.1L629.11 688.7L620.83 682.58L612.56 676.47L605.01 669.64L597.46 662.45L590.62 655.25L583.79 647.33L577.31 639.42L571.55 630.78L565.79 622.15L560.75 613.16L556.07 604.17L551.75 594.46L547.79 584.75L544.56 575.04L541.68 564.97L539.16 554.54L537.36 544.11L535.92 533.32L535.2 522.53L534.84 511.38L535.2 500.23L535.92 489.44L537.36 478.65L539.16 468.22L541.68 457.79L544.56 447.72L547.79 438.01L551.75 428.3L556.07 418.59L560.75 409.6L565.79 400.61L571.55 391.97L577.31 383.34L583.79 375.42L590.62 367.51L597.46 360.32L605.01 353.13L612.56 346.29L620.83 340.17L629.11 334.06L637.74 328.67L646.73 323.28L656.08 318.6L665.43 314.28L675.14 310.69L685.21 307.09L695.28 304.21L705.72 302.05L716.15 299.89L726.94 298.81L737.73 297.73L748.88 297.37L759.67 297.73L770.46 298.81L781.25 299.89L791.68 302.05L802.11 304.21L812.19 307.09L822.26 310.69L831.97 314.28L841.32 318.6L850.67 323.28L859.66 328.67L868.3 334.06L876.57 340.17L884.85 346.29L892.4 353.13L899.95 360.32L907.14 367.51L913.62 375.42L920.1 383.34L926.22 391.97L931.61 400.61L936.65 409.6L941.33 418.59L945.65 428.3L949.61 438.01L952.85 447.72L955.73 457.79L958.25 468.22L960.05 478.65L961.49 489.44L962.21 500.23L962.57 511.38L962.21 522.53L961.49 533.32L960.05 544.11L958.25 554.54L955.73 564.97L952.85 575.04L949.61 584.75L945.65 594.46L941.33 604.17L936.65 613.16L931.61 622.15L926.22 630.78L920.1 639.42L913.62 647.33L907.14 655.25L899.95 662.45L892.4 669.64L884.85 676.47L876.57 682.58L868.3 688.7L859.66 694.1L850.67 699.49L841.32 704.17L831.97 708.49L822.26 712.09L812.19 715.69L802.11 718.57L791.68 720.73L781.25 722.89L770.46 723.97L759.67 725.05H748.88ZM748.88 196.98L732.69 197.34L716.5 198.42L700.67 200.58L685.2 203.46L670.09 206.7L655.35 211L640.6 216.04L626.21 221.8L612.54 227.92L598.87 234.76L585.56 242.67L572.97 250.58L560.74 259.57L548.87 268.92L537.36 278.63L526.57 289.06L516.14 299.85L506.07 311.36L496.72 323.23L488.09 335.46L479.81 348.41L472.26 361.36L465.43 375.03L458.95 389.06L453.55 403.09L448.52 417.84L444.2 432.95L440.6 448.06L438.08 463.53L435.92 479.36L434.84 495.19L434.48 511.38L434.84 527.57L435.92 543.4L438.08 559.23L440.6 574.7L444.2 589.81L448.52 604.92L453.55 619.67L458.95 633.7L465.43 647.73L472.26 661.4L479.81 674.35L488.09 687.3L496.72 699.53L506.07 711.4L516.14 722.91L526.57 733.7L537.36 744.13L548.87 753.84L560.74 763.19L572.97 772.18L585.56 780.09L598.87 788.01L612.54 794.84L626.21 800.96L640.6 806.72L655.35 811.75L670.1 815.71L685.21 819.31L700.68 822.19L716.51 823.99L732.7 825.43L748.89 825.79L765.08 825.43L780.91 823.99L796.74 822.19L812.21 819.31L827.32 815.71L842.07 811.75L856.82 806.72L871.21 800.96L884.88 794.84L898.55 788.01L911.86 780.09L924.45 772.18L937.04 763.19L948.91 753.84L960.06 744.13L971.21 733.7L981.64 722.91L991.35 711.4L1000.7 699.53L1009.33 687.3L1017.61 674.35L1025.16 661.4L1031.99 647.73L1038.47 633.7L1044.23 619.67L1048.91 604.92L1053.23 589.81L1056.83 574.7L1059.71 559.23L1061.51 543.4L1062.59 527.57L1063.31 511.38L1062.59 495.19L1061.51 479.36L1059.71 463.53L1056.83 448.06L1053.23 432.95L1048.91 417.84L1044.23 403.09L1038.47 389.06L1031.99 375.03L1025.16 361.36L1017.61 348.41L1009.33 335.46L1000.7 323.23L991.35 311.36L981.64 299.85L971.21 289.06L960.06 278.63L948.91 268.92L937.04 259.57L924.45 250.58L911.86 242.67L898.55 234.76L884.88 227.92L871.21 221.8L856.82 216.04L842.05 211L827.3 206.68L812.19 203.44L796.72 200.56L780.89 198.4L765.06 197.32L748.88 196.98Z" fill="#EDCD3F"/>
<path fill-rule="evenodd" clip-rule="evenodd" d="M749.6 738.72H737.73L726.22 737.64L714.71 736.2L703.56 734.4L692.41 731.88L681.62 728.64L671.19 725.04L660.76 721.08L650.69 716.4L640.98 711.36L631.27 705.97L621.92 699.85L613.28 693.74L604.65 686.9L596.38 679.71L588.47 672.16L580.92 664.24L573.72 655.97L566.89 647.33L560.41 638.34L554.65 628.99L548.9 619.64L543.86 609.57L539.54 599.5L535.22 589.43L531.62 578.64L528.74 567.85L526.22 556.7L524.06 545.55L522.62 534.04L521.9 522.53L521.54 511.02L521.9 499.15L522.62 487.64L524.06 476.13L526.22 464.98L528.74 453.83L531.62 443.04L535.22 432.61L539.54 422.18L543.86 412.1L548.9 402.39L554.65 392.67L560.41 383.32L566.89 374.33L573.72 365.7L580.92 357.42L588.47 349.51L596.38 341.96L604.65 335.13L613.28 328.29L621.92 321.81L631.27 316.05L640.98 310.3L650.69 305.26L660.76 300.94L671.19 296.62L681.62 293.02L692.41 290.14L703.56 287.62L714.71 285.46L726.22 284.02L737.73 283.3L749.6 282.94L761.11 283.3L772.98 284.02L784.13 285.46L795.64 287.62L806.43 290.14L817.22 293.02L828.01 296.62L838.44 300.94L848.51 305.26L858.22 310.3L867.57 316.05L876.92 321.81L885.91 328.29L894.54 335.13L902.82 341.96L910.74 349.51L918.29 357.42L925.48 365.7L932.32 374.33L938.43 383.32L944.55 392.67L949.94 402.39L954.98 412.1L959.66 422.18L963.62 432.61L967.22 443.04L970.46 453.83L972.98 464.98L974.78 476.13L976.22 487.64L977.3 499.15L977.66 511.02L977.3 522.53L976.22 534.04L974.78 545.55L972.98 556.7L970.46 567.85L967.22 578.64L963.62 589.43L959.66 599.5L954.98 609.57L949.94 619.64L944.55 628.99L938.43 638.34L932.32 647.33L925.48 655.97L918.29 664.24L910.74 672.16L902.82 679.71L894.54 686.9L885.91 693.74L876.92 699.85L867.57 705.97L858.22 711.36L848.51 716.4L838.44 721.08L828.01 725.04L817.22 728.64L806.43 731.88L795.64 734.4L784.13 736.2L772.98 737.64L761.11 738.72H749.6ZM749.6 212.08L734.13 212.44L719.02 213.52L703.91 215.32L689.16 218.2L674.77 221.43L660.74 225.39L646.71 230.07L633.04 235.46L620.09 241.58L607.14 248.06L594.55 255.25L582.32 263.17L570.81 271.45L559.3 280.44L548.51 289.79L538.08 299.5L528.37 309.93L519.02 320.72L510.03 332.23L501.76 343.74L493.84 355.97L486.65 368.56L480.17 381.15L474.05 394.46L469.01 408.13L463.98 422.16L460.02 436.19L456.78 450.58L454.26 465.33L452.1 480.44L451.02 495.55L450.66 511.02L451.02 526.13L452.1 541.6L454.26 556.35L456.78 571.1L460.02 585.49L463.98 599.88L469.01 613.55L474.05 627.22L480.17 640.53L486.65 653.48L493.84 665.71L501.76 677.94L510.03 689.82L519.02 700.97L528.37 711.76L538.08 722.19L548.51 732.26L559.3 741.61L570.81 750.25L582.32 758.52L594.55 766.44L607.14 773.63L620.09 780.11L633.04 786.23L646.71 791.63L660.74 796.31L674.77 800.26L689.16 803.5L703.91 806.38L719.02 808.18L734.13 809.26L749.6 809.62L765.07 809.26L780.18 808.18L794.93 806.38L809.68 803.5L824.07 800.26L838.46 796.31L852.13 791.63L865.8 786.23L879.11 780.11L892.06 773.63L904.65 766.44L916.52 758.52L928.39 750.25L939.54 741.61L950.33 732.26L960.76 722.19L970.83 711.76L980.18 700.97L988.81 689.82L997.45 677.94L1005 665.71L1012.19 653.48L1019.03 640.53L1024.79 627.22L1030.18 613.55L1034.86 599.88L1038.82 585.49L1042.41 571.1L1044.93 556.35L1046.73 541.6L1047.81 526.13L1048.53 511.02L1047.81 495.55L1046.73 480.44L1044.93 465.33L1042.41 450.58L1038.82 436.19L1034.86 422.16L1030.18 408.13L1024.79 394.46L1019.03 381.15L1012.19 368.56L1005 355.97L997.45 343.74L988.81 332.23L980.18 320.72L970.83 309.93L960.76 299.5L950.33 289.79L939.54 280.44L928.39 271.45L916.52 263.17L904.65 255.25L892.06 248.06L879.11 241.58L865.8 235.46L852.13 230.07L838.46 225.39L824.07 221.43L809.68 218.2L794.93 215.32L780.18 213.52L765.07 212.44L749.6 212.08Z" fill="#1A1A18"/>
<path fill-rule="evenodd" clip-rule="evenodd" d="M1046.38 475.4L1038.46 473.6L1032.35 472.17L1029.47 471.81L1025.87 471.08L1024.79 482.6L1037.74 498.42L1052.13 496.98L1046.38 475.4Z" fill="#C8C26B"/>
<path fill-rule="evenodd" clip-rule="evenodd" d="M687.37 1188.38L697.08 1185.14L706.79 1180.83L716.15 1176.51L723.34 1172.55L728.73 1169.67L734.85 1165.72L739.17 1163.2L743.85 1159.6L722.98 1142.33L650.32 1135.86L644.56 1148.09L687.37 1188.38Z" fill="#C8C26B"/>
<path fill-rule="evenodd" clip-rule="evenodd" d="M1115.8 965.71L1114.72 958.51L1114 953.12L1112.56 943.41L1110.41 934.41L1109.33 929.38L1101.05 937.65L1080.55 971.11L1076.59 983.34L1098.53 979.74L1115.8 965.71Z" fill="#C8C26B"/>
<path fill-rule="evenodd" clip-rule="evenodd" d="M1160.41 845.2L1160.05 843.04L1139.54 834.77L1129.47 872.9L1122.28 899.88L1124.79 892.68L1127.67 884.05L1133.07 863.91L1140.62 833.69L1142.42 822.54L1142.78 818.22L1143.5 812.47L1160.41 845.2Z" fill="#CC1316"/>
<path fill-rule="evenodd" clip-rule="evenodd" d="M1120.12 904.55L1118.32 908.87L1117.24 911.75L1116.16 914.63L1114.72 917.14L1114 919.3L1152.85 890.17L1157.53 855.27L1160.41 847L1159.69 844.48L1157.89 840.88L1149.98 836.21L1143.5 834.77L1140.62 835.13L1120.12 904.55Z" fill="#CC1316"/>
<path fill-rule="evenodd" clip-rule="evenodd" d="M351.39 826.85L336.63 858.87L338.79 861.03L343.11 865.34L346.71 869.3L350.31 872.54L354.26 876.14L358.22 879.74L361.1 881.89L363.26 883.69L365.06 885.13L366.49 886.21L371.17 861.03L351.39 826.85Z" fill="#C8C26B"/>
<path fill-rule="evenodd" clip-rule="evenodd" d="M340.59 836.57L351.74 846.64L342.39 861.03L335.56 856.35L340.59 836.57Z" fill="#C8C26B"/>
<path fill-rule="evenodd" clip-rule="evenodd" d="M1179.11 761.02L1178.4 783.33L1176.96 804.91L1174.08 826.49L1170.48 847.36L1165.44 868.22L1159.69 888.37L1153.21 908.51L1145.3 927.94L1136.67 947L1127.31 965.35L1116.88 983.34L1105.73 1000.6L1093.86 1017.51L1081.27 1033.7L1067.6 1049.16L1053.57 1063.91L1038.82 1078.3L1022.99 1091.61L1007.16 1104.2L990.26 1116.43L972.99 1127.59L955.01 1137.66L936.3 1147.37L917.59 1155.64L898.17 1163.56L878.02 1170.03L857.88 1176.15L837.01 1180.83L815.79 1184.42L794.57 1187.3L772.62 1188.74L750.68 1189.46L728.73 1188.74L706.79 1187.3L685.57 1184.42L664.35 1180.83L643.84 1176.15L623.34 1170.03L603.55 1163.56L584.13 1155.64L565.06 1147.37L546.72 1137.66L528.73 1127.59L511.46 1116.43L494.55 1104.2L478.37 1091.61L462.9 1078.3L447.79 1063.91L433.76 1049.16L420.09 1033.7L407.5 1017.51L395.63 1000.6L384.48 983.34L374.05 965.35L364.7 947L356.06 927.94L348.51 908.51L341.67 888.37L335.92 868.22L331.24 847.36L327.28 826.49L324.76 804.91L322.97 783.33L322.61 761.02L322.97 739.08L324.76 717.5L327.28 695.92L331.24 675.05L335.92 654.19L341.67 633.68L348.51 613.9L356.06 594.47L364.7 575.41L374.05 557.06L384.48 539.08L395.63 521.81L407.5 504.9L420.09 488.71L433.76 473.24L447.79 458.5L462.9 444.11L478.37 430.8L494.55 417.84L511.46 405.98L528.73 394.82L546.72 384.75L565.06 375.04L584.13 366.4L603.55 358.85L623.34 352.02L643.84 346.26L664.35 341.58L685.57 337.99L706.79 335.11L728.73 333.31L750.68 332.95L772.62 333.31L794.57 335.11L815.79 337.99L837.01 341.58L857.88 346.26L878.02 352.02L898.17 358.85L917.59 366.4L936.3 375.04L955.01 384.75L972.99 394.82L990.26 405.98L1007.16 417.84L1022.99 430.8L1038.82 444.11L1053.57 458.5L1067.6 473.24L1081.27 488.71L1093.86 504.9L1105.73 521.81L1116.88 539.08L1127.31 557.06L1136.67 575.41L1145.3 594.47L1153.21 613.9L1159.69 633.68L1165.44 654.19L1170.48 675.05L1174.08 695.92L1176.96 717.5L1178.4 739.08L1179.11 761.02Z" fill="#EDCD3F"/>
<path fill-rule="evenodd" clip-rule="evenodd" d="M1128.03 757.79L1127.67 777.57L1126.23 797L1123.72 816.06L1120.48 834.77L1116.16 853.47L1110.76 871.46L1105.01 889.44L1098.18 906.71L1090.26 923.62L1081.99 940.17L1072.63 956L1062.92 971.82L1052.13 986.57L1040.98 1000.96L1028.75 1014.99L1016.16 1028.3L1002.85 1040.89L988.82 1052.76L974.43 1064.27L959.68 1075.06L943.85 1084.78L928.02 1094.13L911.48 1102.4L894.57 1110.32L877.3 1117.15L859.32 1122.91L841.33 1128.3L822.99 1132.62L803.92 1135.86L784.86 1138.38L765.43 1139.82L745.64 1140.17L726.22 1139.82L706.79 1138.38L687.37 1135.86L668.66 1132.62L650.32 1128.3L631.97 1122.91L614.35 1117.15L597.08 1110.32L579.81 1102.4L563.62 1094.13L547.44 1084.78L531.97 1075.06L516.86 1064.27L502.47 1052.76L488.8 1040.89L475.49 1028.3L462.54 1014.99L450.67 1000.96L439.16 986.57L428.73 971.82L418.65 956L409.66 940.17L401.03 923.62L393.47 906.71L386.64 889.44L380.52 871.46L375.49 853.47L371.17 834.77L367.93 816.06L365.41 797L363.97 777.57L363.26 757.79L363.97 738L365.41 718.58L367.93 699.51L371.17 680.8L375.49 662.46L380.52 644.12L386.64 626.49L393.47 608.86L401.03 591.95L409.66 575.77L418.65 559.58L428.73 544.11L439.16 529L450.67 514.61L462.54 500.58L475.49 487.63L488.8 474.68L502.47 462.81L516.86 451.3L531.97 440.87L547.44 430.8L563.62 421.44L579.81 413.17L597.08 405.61L614.35 398.78L631.97 392.67L650.32 387.63L668.66 383.31L687.37 379.71L706.79 377.56L726.22 376.12L745.64 375.4L765.43 376.12L784.86 377.56L803.92 379.71L822.99 383.31L841.33 387.63L859.32 392.67L877.3 398.78L894.57 405.61L911.48 413.17L928.02 421.44L943.85 430.8L959.68 440.87L974.43 451.3L988.82 462.81L1002.85 474.68L1016.16 487.63L1028.75 500.58L1040.98 514.61L1052.13 529L1062.92 544.11L1072.63 559.58L1081.99 575.77L1090.26 591.95L1098.18 608.86L1105.01 626.49L1110.76 644.12L1116.16 662.46L1120.48 680.8L1123.72 699.51L1126.23 718.58L1127.67 738L1128.03 757.79Z" fill="white"/>
<path fill-rule="evenodd" clip-rule="evenodd" d="M1020.48 757.79L1020.11 771.82L1019.04 785.84L1017.24 799.87L1015.08 813.18L1011.84 826.49L1008.25 839.44L1003.93 852.4L998.89 864.63L993.49 876.86L987.38 888.73L980.91 900.24L973.71 911.39L965.8 922.18L957.88 932.61L949.25 942.68L939.9 952.04L930.54 961.39L920.47 970.02L910.04 977.94L899.25 985.85L888.1 992.69L876.58 999.52L864.71 1005.64L852.84 1011.03L840.25 1016.07L827.3 1020.39L814.35 1023.98L801.04 1026.86L787.73 1029.38L773.7 1031.18L760.03 1032.26L745.64 1032.62L731.62 1032.26L717.59 1031.18L703.92 1029.38L690.25 1026.86L676.94 1023.98L663.99 1020.39L651.39 1016.07L638.81 1011.03L626.58 1005.64L614.7 999.52L603.19 992.69L592.04 985.85L581.25 977.94L570.82 970.02L561.11 961.39L551.39 952.04L542.4 942.68L533.77 932.61L525.49 922.18L517.94 911.39L510.74 900.24L504.27 888.73L498.15 876.86L492.76 864.63L487.72 852.4L483.41 839.44L479.81 826.49L476.57 813.18L474.05 799.87L472.25 785.84L471.53 772.17L471.17 757.79L471.53 743.76L472.25 729.73L474.05 716.06L476.57 702.39L479.81 689.08L483.41 676.13L487.72 663.54L492.76 650.95L498.15 638.72L504.27 626.85L510.74 615.33L517.94 604.18L525.49 593.39L533.77 582.96L542.4 573.25L551.39 563.54L561.11 554.54L570.82 545.91L581.25 537.64L592.04 530.08L603.19 522.88L614.7 516.41L626.58 510.3L638.81 504.54L651.39 499.86L663.99 495.55L676.94 491.59L690.25 488.71L703.92 486.19L717.59 484.4L731.62 483.31L745.64 482.96L760.03 483.31L773.7 484.4L787.73 486.19L801.04 488.71L814.35 491.59L827.3 495.55L840.25 499.86L852.84 504.54L864.71 510.3L876.58 516.41L888.1 522.88L899.25 530.08L910.04 537.64L920.47 545.91L930.54 554.54L939.9 563.54L949.25 573.25L957.88 582.96L965.8 593.39L973.71 604.18L980.55 615.33L987.38 626.85L993.49 638.72L998.89 650.95L1003.93 663.54L1008.25 676.13L1011.84 689.08L1015.08 702.39L1017.24 716.06L1019.04 729.73L1020.11 743.76L1020.48 757.79Z" fill="#C8C26B"/>
<path fill-rule="evenodd" clip-rule="evenodd" d="M1007.88 757.79L1007.52 771.46L1006.45 784.77L1004.65 797.72L1002.49 810.67L999.61 823.26L996.01 835.85L991.7 848.08L987.02 859.95L981.98 871.46L976.23 882.61L969.75 893.76L962.92 904.2L955.72 914.63L947.81 924.34L939.54 934.05L930.9 943.05L921.91 951.68L912.56 959.95L902.48 967.87L892.41 975.06L881.62 981.89L870.47 988.37L859.32 994.12L847.81 999.16L835.94 1003.84L823.7 1008.16L811.11 1011.75L798.52 1014.63L785.57 1016.79L772.62 1018.59L759.31 1019.67L745.64 1020.02L732.33 1019.67L719.03 1018.59L705.72 1016.79L693.12 1014.63L680.17 1011.75L667.94 1008.16L655.71 1003.84L643.84 999.16L632.33 994.12L620.82 988.37L610.03 981.89L599.24 975.06L589.16 967.87L579.09 959.95L569.74 951.68L560.38 943.05L551.75 934.05L543.48 924.34L535.92 914.63L528.37 904.2L521.54 893.76L515.42 882.61L509.67 871.46L504.27 859.95L499.59 848.08L495.64 835.85L492.04 823.26L489.16 810.67L486.64 797.72L485.2 784.77L484.12 771.46L483.77 757.79L484.12 744.48L485.2 731.17L486.64 717.86L489.16 704.91L492.04 692.32L495.64 680.09L499.59 667.86L504.27 655.98L509.67 644.12L515.42 632.96L521.54 622.17L528.37 611.38L535.92 600.95L543.48 591.23L551.75 581.52L560.38 572.53L569.74 563.89L579.09 555.62L589.16 548.07L599.24 540.51L610.03 533.68L620.82 527.56L632.33 521.81L643.84 516.41L655.71 511.74L667.94 507.78L680.17 504.18L693.12 501.3L705.72 498.78L719.03 497.34L732.33 496.27L745.64 495.91L759.31 496.27L772.62 497.34L785.57 498.78L798.52 501.3L811.11 504.18L823.7 507.78L835.94 511.74L847.81 516.41L859.32 521.81L870.47 527.56L881.62 533.68L892.41 540.51L902.48 548.07L912.56 555.62L921.91 563.89L930.9 572.53L939.54 581.52L947.81 591.23L955.72 600.95L962.92 611.38L969.75 622.17L976.23 632.96L981.98 644.12L987.02 655.98L991.7 667.86L996.01 680.09L999.61 692.32L1002.49 704.91L1004.65 717.86L1006.45 731.17L1007.52 744.48L1007.88 757.79Z" fill="#FFDC00"/>
<path fill-rule="evenodd" clip-rule="evenodd" d="M972.27 757.79L971.91 769.66L971.19 781.17L969.75 792.32L967.59 803.47L965.08 814.62L962.2 825.41L958.6 835.85L954.64 845.92L949.97 855.99L944.93 865.7L939.54 875.42L933.78 884.41L927.31 893.4L920.47 902.04L913.64 910.31L906.08 918.22L898.17 925.42L889.9 932.61L881.26 939.45L872.27 945.92L863.27 951.68L853.92 957.07L843.85 962.11L833.78 966.79L823.7 970.75L813.27 974.34L802.48 977.22L791.33 979.74L780.18 981.89L769.03 983.34L757.52 984.05L745.64 984.41L734.13 984.05L722.62 983.34L711.11 981.89L699.96 979.74L689.17 977.22L678.38 974.34L667.94 970.75L657.51 966.79L647.44 962.11L637.73 957.07L628.37 951.68L619.02 945.92L610.03 939.45L601.75 932.61L593.48 925.42L585.57 918.22L578.01 910.31L570.82 902.04L564.34 893.4L557.87 884.41L552.11 875.42L546.36 865.7L541.32 855.99L537 845.92L533.05 835.85L529.45 825.41L526.21 814.62L523.69 803.47L521.89 792.32L520.45 781.17L519.38 769.66L519.02 757.79L519.38 746.27L520.45 734.76L521.89 723.26L523.69 712.1L526.21 701.31L529.45 690.52L533.05 680.09L537 669.65L541.32 659.58L546.36 649.87L552.11 640.52L557.87 631.16L564.34 622.17L570.82 613.9L578.01 605.62L585.57 597.71L593.48 590.15L601.75 582.96L610.03 576.12L619.02 570.01L628.37 563.89L637.73 558.5L647.44 553.46L657.51 549.15L667.94 544.83L678.38 541.59L689.17 538.35L699.96 535.84L711.11 534.04L722.62 532.6L734.13 531.52L745.64 531.16L757.52 531.52L769.03 532.6L780.18 534.04L791.33 535.84L802.48 538.35L813.27 541.59L823.7 544.83L833.78 549.15L843.85 553.46L853.92 558.5L863.27 563.89L872.27 570.01L881.26 576.12L889.9 582.96L898.17 590.15L906.08 597.71L913.64 605.62L920.47 613.9L927.31 622.17L933.78 631.16L939.54 640.52L944.93 649.87L949.97 659.58L954.64 669.65L958.6 680.09L962.2 690.52L965.08 701.31L967.59 712.1L969.75 723.26L971.19 734.76L971.91 746.27L972.27 757.79Z" fill="#C8C26B"/>
<path fill-rule="evenodd" clip-rule="evenodd" d="M963.64 757.79L963.28 768.94L962.56 780.09L961.12 790.88L959.32 801.67L956.8 812.47L953.92 822.54L950.33 832.61L946.37 842.68L942.05 852.4L937.38 861.75L931.98 870.74L926.23 879.74L920.47 888.37L914 896.28L907.16 904.2L899.61 911.75L892.05 918.94L884.14 925.78L876.23 932.25L867.59 938.37L858.6 944.12L849.61 949.52L840.25 954.2L830.54 958.51L820.83 962.47L810.4 966.07L800.32 968.95L789.53 971.11L779.1 973.26L767.95 974.7L756.8 975.42L745.64 975.78L734.49 975.42L723.34 974.7L712.55 973.26L701.76 971.11L691.33 968.95L680.89 966.07L670.82 962.47L661.11 958.51L651.39 954.2L642.04 949.52L632.69 944.12L624.06 938.37L615.42 932.25L607.15 925.78L599.24 918.94L591.68 911.75L584.49 904.2L577.65 896.28L571.18 888.37L565.06 879.74L559.31 870.74L554.27 861.75L549.24 852.4L544.92 842.68L540.96 832.61L537.72 822.54L534.84 812.47L532.33 801.67L530.53 790.88L529.09 780.09L528.37 768.94L528.01 757.79L528.37 746.63L529.09 735.48L530.53 724.69L532.33 713.9L534.84 703.47L537.72 693.03L540.96 682.96L544.92 672.89L549.24 663.54L554.27 654.19L559.31 644.83L565.06 636.2L571.18 627.56L577.65 619.29L584.49 611.38L591.68 603.82L599.24 596.63L607.15 589.79L615.42 583.32L624.06 577.21L632.69 571.45L642.04 566.41L651.39 561.38L661.11 557.06L670.82 553.1L680.89 549.87L691.33 546.99L701.76 544.47L712.55 542.67L723.34 541.23L734.49 540.15H745.64H756.8L767.95 541.23L779.1 542.67L789.53 544.47L800.32 546.99L810.4 549.87L820.83 553.1L830.54 557.06L840.25 561.38L849.61 566.41L858.6 571.45L867.59 577.21L876.23 583.32L884.14 589.79L892.05 596.63L899.61 603.82L907.16 611.38L914 619.29L920.47 627.56L926.23 636.2L931.98 644.83L937.38 654.19L942.05 663.54L946.37 672.89L950.33 682.96L953.92 693.03L956.8 703.47L959.32 713.9L961.12 724.69L962.56 735.48L963.28 746.63L963.64 757.79Z" fill="#FFDC00"/>
<path fill-rule="evenodd" clip-rule="evenodd" d="M931.62 754.91L930.54 773.61L927.67 791.6L923.35 809.23L917.24 825.77L909.32 841.96L900.33 856.71L889.9 871.1L878.02 884.05L865.07 895.56L851.04 905.99L835.94 915.35L820.11 922.9L811.83 926.14L803.2 929.02L794.57 931.54L785.93 933.69L767.59 936.21L758.59 936.93L748.88 937.29L730.53 936.21L712.19 933.69L694.92 929.02L678.02 922.9L662.19 915.35L647.08 905.99L633.05 895.56L620.1 884.05L608.23 871.1L597.8 856.71L588.45 841.96L580.89 825.77L577.65 817.5L574.78 809.23L572.26 800.6L570.46 791.6L567.58 773.61L566.86 764.26L566.5 754.91L567.58 736.2L570.46 718.22L574.78 700.59L580.89 684.04L588.45 667.86L597.8 652.75L608.23 638.72L620.1 625.77L633.05 614.26L647.08 603.46L662.19 594.47L678.02 586.92L686.29 583.68L694.92 580.8L703.56 578.28L712.19 576.12L730.53 573.25L739.53 572.53H748.88L767.59 573.25L785.93 576.12L803.2 580.8L820.11 586.92L835.94 594.47L851.04 603.46L865.07 614.26L878.02 625.77L889.9 638.72L900.33 652.75L909.32 667.86L917.24 683.68L920.47 692.32L923.35 700.59L925.87 709.23L927.67 718.22L930.54 736.2L931.26 745.56L931.62 754.91Z" fill="#C8C26B"/>
<path fill-rule="evenodd" clip-rule="evenodd" d="M923.71 754.91L922.63 772.9L920.11 790.16L915.79 806.71L909.68 822.9L902.48 838.01L893.85 852.4L883.78 866.07L872.63 878.3L860.04 889.44L846.73 899.52L832.34 908.51L816.87 915.71L801.04 921.46L792.77 923.98L784.13 925.78L766.87 928.65L757.87 929.02L748.88 929.38L731.26 928.65L713.99 925.78L697.08 921.46L681.25 915.71L665.79 908.51L651.39 899.52L638.09 889.44L625.49 878.3L614.35 866.07L604.27 852.4L595.64 838.01L588.08 822.9L582.33 806.71L580.17 798.44L578.01 790.16L575.49 772.9L574.78 763.9L574.41 754.91L575.49 736.92L578.01 719.66L582.33 703.11L588.08 686.92L595.64 671.81L604.27 657.42L614.35 643.76L625.49 631.52L638.09 620.37L651.39 610.3L665.79 601.31L681.25 594.11L697.08 588.35L705.36 585.84L713.99 584.04L731.26 581.16L739.89 580.44H748.88L766.87 581.16L784.13 584.04L801.04 588.35L816.87 594.11L832.34 601.31L846.73 610.3L860.04 620.37L872.63 631.52L883.78 643.76L893.85 657.42L902.48 671.81L909.68 686.92L915.79 703.11L917.95 711.38L920.11 719.66L922.63 736.92L923.35 745.92L923.71 754.91Z" fill="#FFDC00"/>
<path fill-rule="evenodd" clip-rule="evenodd" d="M898.53 755.27L897.81 770.74L895.65 785.49L891.69 799.51L886.66 813.18L880.54 826.13L872.99 838.37L864.71 849.88L855 860.67L844.21 870.02L833.06 878.65L820.83 886.21L807.52 892.32L793.85 897.36L779.82 900.96L765.07 903.11L749.96 904.2L734.49 903.11L719.74 900.96L705.72 897.36L692.05 892.32L678.73 886.21L666.5 878.65L655.35 870.02L644.56 860.67L635.21 849.88L626.58 838.37L619.02 826.13L612.91 813.18L607.87 799.51L604.27 785.49L601.75 770.74L601.03 755.27L601.75 740.16L604.27 725.41L607.87 711.02L612.91 697.35L619.02 684.4L626.58 672.17L635.21 660.66L644.56 650.23L655.35 640.52L666.5 631.88L678.73 624.69L692.05 618.21L705.72 613.18L719.74 609.58L734.49 607.42L749.96 606.7L765.07 607.42L779.82 609.58L793.85 613.18L807.52 618.21L820.83 624.69L833.06 631.88L844.21 640.52L855 650.23L864.71 660.66L872.99 672.17L880.54 684.4L886.66 697.35L891.69 711.02L895.65 725.41L897.81 740.16L898.53 755.27Z" fill="#C8C26B"/>
<path fill-rule="evenodd" clip-rule="evenodd" d="M864 757.79L863.27 770.02L861.47 781.53L858.6 793.04L854.64 803.83L849.61 814.27L843.85 823.97L837.01 832.97L829.46 841.6L820.83 849.16L811.83 855.99L802.12 861.75L791.69 866.78L780.9 870.74L769.75 873.62L757.87 875.42L745.64 876.14L733.77 875.42L721.9 873.62L710.75 870.74L699.6 866.78L689.53 861.75L679.46 855.99L670.46 849.16L662.19 841.6L654.63 832.97L647.8 823.97L641.68 814.27L636.65 803.83L632.69 793.04L629.81 781.53L628.01 770.02L627.65 757.79L628.01 745.92L629.81 734.04L632.69 722.53L636.65 711.74L641.68 701.31L647.8 691.6L654.63 682.6L662.19 674.33L670.46 666.78L679.46 659.94L689.53 653.82L699.6 648.79L710.75 644.83L721.9 641.96L733.77 640.16L745.64 639.44L757.87 640.16L769.75 641.96L780.9 644.83L791.69 648.79L802.12 653.82L811.83 659.94L820.83 666.78L829.46 674.33L837.01 682.6L843.85 691.6L849.61 701.31L854.64 711.74L858.6 722.53L861.47 734.04L863.27 745.92L864 757.79Z" fill="white"/>
<path fill-rule="evenodd" clip-rule="evenodd" d="M790.97 757.79L790.25 767.14L787.37 775.41L783.42 783.33L777.66 789.8L771.19 795.56L763.27 799.51L755 802.39L750.32 803.11H745.64L736.65 802.39L728.02 799.51L720.46 795.56L713.63 789.8L708.23 783.33L703.92 775.41L701.4 767.14L700.68 762.46L700.32 757.79L701.4 748.79L703.92 740.16L708.23 732.6L713.63 725.77L720.46 720.37L728.02 716.06L736.65 713.54L740.97 712.82L745.64 712.46L755 713.54L763.27 716.06L771.19 720.37L777.66 725.77L783.42 732.6L787.37 740.16L790.25 748.79L790.97 753.11V757.79Z" fill="#1A1A18"/>
<path d="M822.25 757.81C822.25 800.26 788.07 834.43 745.63 834.43C703.54 834.43 669.37 800.26 669.37 757.81C669.37 715.72 703.54 681.55 745.63 681.55C788.08 681.55 822.25 715.73 822.25 757.81Z" stroke="#FFDC00" stroke-width="0.3769" stroke-miterlimit="22.9256"/>
<path d="M745.63 681.19V834.43" stroke="#FFDC00" stroke-width="0.3769" stroke-miterlimit="22.9256"/>
<path d="M669.01 757.81H822.25" stroke="#FFDC00" stroke-width="0.3769" stroke-miterlimit="22.9256"/>
<path fill-rule="evenodd" clip-rule="evenodd" d="M821.54 403.46L806.44 458.85L847.44 470.01L849.24 463.17L816.15 454.18L820.83 435.83L851.04 444.11L852.84 437.27L822.63 429L827.3 412.09L860.04 421.08L861.84 414.25L821.54 403.46Z" fill="#1A1A18"/>
<path fill-rule="evenodd" clip-rule="evenodd" d="M885.58 423.24L868.31 458.5L866.51 463.17L866.15 468.57L867.23 473.96L869.75 478.28L873.71 482.6L879.1 485.84L884.14 487.63L888.45 488.71H892.77L897.09 487.99L900.68 486.55L903.92 484.04L906.8 481.16L908.96 477.92L925.87 443.03L919.03 439.79L902.48 473.24L902.12 473.6L900.68 475.76L899.25 477.92L897.45 479.36L893.13 481.52H888.1L882.7 479.72L879.82 478.28L877.67 476.12L875.87 473.96L874.78 471.45L874.43 468.57V465.69L875.15 462.81L876.23 459.57L892.41 426.84L885.58 423.24Z" fill="#1A1A18"/>
<path fill-rule="evenodd" clip-rule="evenodd" d="M951.77 467.85L967.24 480.08L969.4 482.24L971.2 484.4L971.56 487.63L970.84 490.51L969.04 493.74L966.16 496.62L962.57 497.7L958.97 497.34L955.37 495.54L939.91 483.31L951.77 467.85ZM949.61 457.78L914.36 503.47L920.47 508.15L935.58 488.73L951.41 500.96L953.57 503.12L955.01 506L955.37 508.16L955.01 510.32L950.33 516.79L948.53 520.03L947.09 522.19L944.57 526.87L952.12 532.63L952.84 531.55L952.48 529.03L953.2 527.23L960.75 515.72L962.55 512.84L963.27 509.96L962.91 507.08L961.11 503.84L965.79 504.2L969.39 503.48L972.99 501.32L976.23 497.73L978.75 493.05L979.47 488.37L978.75 484.77L977.31 481.17L974.43 477.93L971.19 474.69L949.61 457.78Z" fill="#1A1A18"/>
<path fill-rule="evenodd" clip-rule="evenodd" d="M1015.44 524.68L1017.96 528.28L1019.76 531.87L1020.48 535.83L1020.12 539.79L1019.04 543.75L1017.24 547.71L1014.36 551.66L1010.76 555.26L1006.8 558.14L1002.84 560.3L998.52 561.74L994.56 562.1L990.6 561.74L987 560.3L983.4 558.14L980.16 555.26L977.64 551.66L976.2 548.07L975.48 544.11V540.15L976.56 536.19L978.72 532.23L981.24 528.63L984.84 525.03L988.8 521.79L993.12 519.63L997.07 518.55L1001.39 518.19L1005.35 518.55L1008.95 519.63L1012.55 521.79L1015.44 524.68ZM1020.83 520.37L1016.51 516.05L1011.48 513.17L1006.44 511.01L1001.04 510.29L995.65 510.65L990.26 512.45L984.86 514.97L979.82 518.93L975.14 523.61L971.55 528.29L969.39 533.68L967.95 539.08V544.47L969.03 549.51L971.55 554.9L975.14 559.58L979.46 563.9L984.14 567.14L989.17 568.94L994.57 569.66L999.96 569.3L1005.36 567.86L1011.12 564.98L1016.16 561.02L1020.83 556.7L1024.43 551.66L1026.59 546.27L1027.67 540.87V535.84L1026.59 530.44L1024.43 525.05L1020.83 520.37Z" fill="#1A1A18"/>
<path fill-rule="evenodd" clip-rule="evenodd" d="M1031.98 582.6L1049.25 572.89L1057.17 586.56L1058.97 591.24V595.2L1057.53 598.44L1054.29 601.32L1049.97 602.76L1046.37 602.4L1043.13 600.6L1040.25 597L1031.98 582.6ZM1051.41 562.81L1001.41 590.87L1005.01 597.7L1026.23 585.83L1035.94 602.74L1037.74 605.62L1039.9 607.78L1042.78 609.22L1045.66 610.3L1048.54 610.66L1051.78 610.3L1055.02 609.58L1058.26 608.14L1061.14 606.34L1063.3 603.82L1065.1 601.3L1066.18 598.42L1066.54 595.54V592.66L1065.82 589.43L1064.74 586.55L1064.02 585.47L1051.41 562.81Z" fill="#1A1A18"/>
<path fill-rule="evenodd" clip-rule="evenodd" d="M1081.99 622.53L1027.67 640.88L1041.34 681.16L1047.82 679.01L1037.02 646.27L1055.01 640.16L1065.08 669.65L1071.56 667.5L1061.48 638L1078.03 632.24L1088.82 664.26L1095.66 662.1L1081.99 622.53Z" fill="#1A1A18"/>
<path fill-rule="evenodd" clip-rule="evenodd" d="M1095.66 707.79L1071.92 719.66L1069.4 702.39L1095.66 707.79ZM1103.57 702.39L1043.5 689.08L1044.58 697.36L1062.2 700.96L1065.44 723.62L1049.61 731.54L1050.69 739.82L1104.65 711.4L1103.57 702.39Z" fill="#1A1A18"/>
<path fill-rule="evenodd" clip-rule="evenodd" d="M1108.25 753.11L1051.05 750.23L1050.69 757.79L1097.09 760.3L1049.25 787.28L1048.89 795.92L1106.09 798.8L1106.45 791.24L1060.05 788.72L1107.89 762.46L1108.25 753.11Z" fill="#1A1A18"/>
<path fill-rule="evenodd" clip-rule="evenodd" d="M1036.66 944.48L1040.62 946.28L1044.58 947H1048.17L1051.41 945.92L1055.01 944.12L1057.89 941.61L1060.76 938.37L1063.64 934.05L1065.44 930.1L1066.52 926.14L1066.88 922.54L1066.52 918.94L1065.44 915.71L1063.64 912.83L1061.12 910.31L1058.25 907.79L1055.37 906.71L1052.49 905.99L1049.61 906.35L1046.73 907.07L1043.86 908.87L1040.98 911.03L1030.19 922.9L1026.95 926.14L1023.71 927.58L1020.48 927.94L1017.6 926.86L1015.44 925.42L1014 923.62L1013.28 921.82L1012.92 919.3L1013.64 914.27L1016.16 908.87L1020.11 903.48L1022.27 901.68L1024.79 900.6L1027.31 899.88H1029.83L1032.71 900.6L1035.58 901.68L1039.18 895.2L1033.42 892.68L1029.11 892.32L1024.07 893.04L1019.39 895.2L1016.88 897L1014.72 899.16L1010.4 905.28L1008.25 909.95L1006.81 914.27L1006.09 918.58V922.18L1007.16 925.78L1008.6 929.02L1011.12 931.54L1014.36 933.69L1019.39 935.85H1024.43L1029.47 934.05L1033.78 930.1L1046.02 916.78L1048.17 914.98L1050.33 914.27H1052.85L1055.37 915.35L1058.61 917.87L1060.05 921.82L1059.68 926.14L1057.52 931.54L1053.93 936.21L1049.97 938.73L1047.45 939.45H1045.29L1040.26 938.01L1036.66 944.48Z" fill="#1A1A18"/>
<path fill-rule="evenodd" clip-rule="evenodd" d="M1037.02 973.98L993.14 936.93L988.1 942.68L1008.6 959.95L989.18 982.98L969.03 965.71L963.64 971.46L1007.52 1008.52L1012.56 1002.76L994.58 987.29L1014 964.63L1031.98 979.74L1037.02 973.98Z" fill="#1A1A18"/>
<path fill-rule="evenodd" clip-rule="evenodd" d="M965.44 1038.73L961.84 1040.89L957.88 1042.33L953.92 1043.05L949.96 1042.69L946.36 1041.25L942.4 1039.09L938.8 1036.21L935.2 1032.61L932.68 1028.29L930.52 1024.33L929.44 1020.01L929.08 1015.69L929.8 1012.1L931.24 1008.14L933.4 1004.9L936.64 1002.02L940.23 999.5L944.19 998.06L948.15 997.7L952.11 998.06L956.07 999.14L959.67 1001.3L963.27 1004.18L966.87 1008.14L969.39 1012.1L971.55 1016.42L972.63 1020.74L972.99 1024.69L972.27 1028.65L970.83 1032.25L968.67 1035.49L965.44 1038.73ZM969.75 1044.13L974.07 1039.81L977.31 1035.13L979.47 1030.46L980.55 1025.06V1019.67L979.11 1013.91L976.59 1008.52L972.99 1003.13L968.67 998.45L963.99 994.49L958.95 991.97L953.56 990.53L948.16 990.17L942.77 991.25L937.73 993.05L932.34 996.29L928.02 1000.61L924.79 1005.29L922.63 1010.33L921.55 1015.72V1021.12L922.99 1026.51L925.51 1032.27L929.11 1037.67L933.43 1042.35L938.11 1045.95L943.5 1048.83L948.54 1049.91L953.93 1050.27L959.33 1049.55L964.72 1047.39L969.75 1044.13Z" fill="#1A1A18"/>
<path fill-rule="evenodd" clip-rule="evenodd" d="M901.41 1078.66L897.09 1080.46L893.13 1080.82L889.17 1080.46L885.21 1079.38L881.61 1077.22L878.37 1074.34L875.49 1070.74L872.97 1066.42L871.17 1061.74L870.09 1057.42V1053.1L870.45 1048.78L871.89 1045.18L874.05 1041.94L876.93 1039.06L880.89 1036.9L884.85 1035.46L888.81 1034.74L892.77 1035.1L896.72 1036.18L900.32 1038.34L903.56 1041.22L906.44 1044.82L908.96 1049.14L910.76 1053.82L911.84 1058.5V1062.82L911.48 1066.78L910.04 1070.37L907.88 1073.61L905 1076.49L901.41 1078.66ZM904.28 1085.14L909.32 1081.9L913.64 1077.94L916.52 1073.62L918.68 1068.58L919.76 1063.19V1057.8L918.68 1051.68L916.16 1045.56L912.92 1040.16L908.96 1035.48L904.64 1031.89L899.6 1029.37L894.56 1027.93L889.17 1027.57L883.41 1028.29L878.01 1030.45L872.62 1033.68L868.3 1037.64L865.42 1041.96L863.26 1047L862.18 1052.39V1058.15L863.26 1063.91L865.78 1070.03L869.02 1075.79L872.98 1080.47L877.3 1084.07L882.33 1086.23L887.37 1087.67L892.77 1088.03L898.52 1087.31L904.28 1085.14Z" fill="#1A1A18"/>
<path fill-rule="evenodd" clip-rule="evenodd" d="M864.35 1100.6L862.55 1093.77L843.85 1099.17L830.54 1050.6L822.99 1052.4L836.3 1101.33L817.23 1106.36L819.39 1113.2L864.35 1100.6Z" fill="#1A1A18"/>
<path fill-rule="evenodd" clip-rule="evenodd" d="M799.6 1115.71L791.69 1058.88L783.77 1059.96L791.69 1116.79L799.6 1115.71Z" fill="#1A1A18"/>
<path fill-rule="evenodd" clip-rule="evenodd" d="M766.51 1120.03L766.87 1062.48H758.96V1108.88L729.82 1062.12H721.18L720.82 1119.67H728.38L728.73 1073.26L757.16 1119.67L766.51 1120.03Z" fill="#1A1A18"/>
<path fill-rule="evenodd" clip-rule="evenodd" d="M649.6 1089.45V1093.41L650.32 1097.37L651.76 1100.96L654.27 1104.2L657.15 1107.44L660.75 1109.96L664.71 1111.76L669.38 1113.2L675.14 1113.92L680.53 1113.2L685.57 1111.76L690.25 1109.24L694.2 1105.64L697.8 1100.96L700.32 1095.57L702.12 1089.09L703.2 1084.06V1079.74L702.84 1075.79L702.12 1071.83L699.24 1065.35L694.92 1060.32L689.89 1056.72L683.05 1054.2L676.94 1053.48L671.54 1054.2L666.5 1056L662.19 1058.88L661.83 1051.32L656.79 1050.25L650.32 1080.46L675.14 1085.49L676.58 1079.02L658.95 1075.42L660.39 1071.47L661.83 1067.87L663.99 1064.99L666.5 1062.83L669.38 1061.03L672.98 1060.32L676.58 1059.96L680.17 1060.68L684.49 1061.75L688.09 1063.91L690.96 1066.43L693.12 1069.31L694.56 1072.91L695.28 1077.22V1081.9L694.2 1087.29L692.76 1092.33L690.96 1096.65L688.45 1100.25L685.57 1103.12L682.33 1105.28L678.73 1106.36L674.78 1106.72L670.82 1106.36L664.71 1104.2L660.75 1100.96L658.95 1098.81L657.87 1096.65L656.79 1091.25L649.6 1089.45Z" fill="#1A1A18"/>
<path fill-rule="evenodd" clip-rule="evenodd" d="M508.58 1008.88L506.79 1012.47L505.35 1016.43V1020.39L505.71 1023.98L506.79 1027.94L508.58 1031.9L511.46 1035.13L514.7 1038.37L519.74 1041.61L524.77 1043.77L530.17 1044.85L535.21 1044.49L540.24 1043.05L545.28 1040.53L550.31 1036.58L554.99 1031.9L558.59 1026.5L561.46 1021.11L562.91 1015.71L563.26 1010.68L562.54 1005.64L560.75 1000.6L557.87 996.28L553.91 992.33L549.95 989.45L545.64 987.65L541.32 986.57L537 986.21L532.68 986.93L528.37 988.37L524.05 990.89L520.1 994.12L525.85 998.8L531.97 994.85L534.84 993.77L537.72 993.41H540.6L543.48 994.12L546 995.21L548.52 997.01L551.75 999.88L553.91 1003.48L555.35 1006.72L555.71 1010.68L555.35 1014.27L553.91 1018.59L551.39 1022.55L548.52 1027.22L544.92 1030.82L541.32 1033.7L537.36 1035.86L533.77 1036.93L529.81 1037.29L526.21 1036.93L522.61 1035.49L519.02 1032.98L515.06 1028.66L512.9 1023.98L512.54 1021.46V1018.95L514.34 1013.91L508.58 1008.88Z" fill="#1A1A18"/>
<path fill-rule="evenodd" clip-rule="evenodd" d="M468.65 982.25L466.13 978.65L464.69 974.69L464.33 970.73V966.77L465.77 962.81L467.57 959.21L470.45 955.26L474.05 952.02L478.37 949.14L482.69 946.98L486.65 945.9L490.61 945.54L494.57 945.9L498.53 947.34L501.77 949.5L505.01 952.74L507.17 956.34L508.61 960.3L509.33 963.9L508.97 967.86L507.89 971.82L505.73 975.78L502.85 979.38L499.25 982.98L494.93 985.86L490.97 987.66L486.65 989.1L482.69 989.46L478.74 988.74L475.14 987.3L471.54 985.14L468.65 982.25ZM463.26 986.57L467.58 990.89L472.26 994.12L477.3 995.92L482.33 997L488.09 996.64L493.48 995.56L498.88 993.04L504.27 989.08L508.95 984.76L512.55 979.72L515.07 974.68L516.51 969.29L516.87 963.89L515.79 958.86L513.63 953.46L510.39 948.42L506.07 944.1L501.39 940.86L496.35 938.7L490.96 937.98H485.56L479.8 939.42L474.41 941.94L469.01 945.54L464.33 950.22L460.73 954.9L458.21 960.3L456.77 965.33V970.73L457.85 976.12L460.01 981.52L463.26 986.57Z" fill="#1A1A18"/>
<path fill-rule="evenodd" clip-rule="evenodd" d="M434.12 943.41L485.2 917.14L481.61 910.31L440.6 931.54L468.3 884.41L464.34 876.5L413.26 902.76L416.86 909.59L458.22 888.37L429.8 935.13L434.12 943.41Z" fill="#1A1A18"/>
<path fill-rule="evenodd" clip-rule="evenodd" d="M403.9 877.94L458.94 861.75L456.43 853.83L431.6 861.39L423.69 834.41L416.86 836.57L425.13 863.55L408.22 868.22L399.23 837.64L392.4 839.8L403.9 877.94Z" fill="#1A1A18"/>
<path fill-rule="evenodd" clip-rule="evenodd" d="M388.08 817.5L445.27 811.03L440.6 768.94L433.76 769.66L437.36 804.19L418.65 805.99L415.06 775.05L408.22 775.77L411.82 806.71L394.19 808.87L390.6 775.05L383.76 775.77L388.08 817.5Z" fill="#1A1A18"/>
<path fill-rule="evenodd" clip-rule="evenodd" d="M434.48 747L390.59 743.4L391.67 729.37L392.39 725.41L393.47 722.17L395.63 719.29L398.15 716.77L401.39 714.97L404.99 713.89L409.31 713.53H414.34L422.62 714.97L426.22 716.41L429.1 717.85L431.98 720.37L434.14 723.61L435.58 726.85L435.94 730.09L434.48 747ZM383.4 750.59L440.59 755.26L442.39 731.16V726.13L440.95 721.45L438.79 717.49L435.55 713.53L431.59 710.65L426.55 708.13L421.16 706.33L415.04 705.61H408.56L403.17 706.33L398.13 708.13L393.81 710.65L391.29 712.81L389.13 715.33L386.61 721.09L385.17 726.85L383.4 750.59Z" fill="#1A1A18"/>
<path fill-rule="evenodd" clip-rule="evenodd" d="M392.03 678.65L447.07 694.47L458.58 653.46L452.11 651.67L442.76 684.76L424.41 679.73L432.68 649.51L426.21 647.71L417.57 677.93L400.67 672.89L410.02 640.52L403.19 638.36L392.03 678.65Z" fill="#1A1A18"/>
<path fill-rule="evenodd" clip-rule="evenodd" d="M422.25 610.3L430.88 593.03L431.24 592.67L432.68 590.15L434.84 587.99L437.72 586.91L440.96 587.27L444.2 588.35L447.43 590.87L449.23 593.75L449.59 597.34L448.51 601.3L439.52 619.29L422.25 610.3ZM412.54 614.26L463.98 640.16L467.57 633.33L445.63 622.18L454.62 604.56L456.42 601.68L458.94 599.88L460.74 599.16H462.9L470.45 602.4L473.69 603.84L476.21 604.56L481.24 606.36L485.56 597.73L484.12 597.01L481.96 598.09L479.8 597.73L467.21 592.34L463.98 591.26H461.1L458.58 591.98L455.7 594.14L454.98 589.82L453.54 586.22L450.66 582.98L446.7 580.46L441.66 579.02H437L433.41 580.46L430.53 582.98L427.65 586.22L425.13 589.82L412.54 614.26Z" fill="#1A1A18"/>
<path fill-rule="evenodd" clip-rule="evenodd" d="M466.5 541.23L491.68 550.22L480.89 563.89L466.5 541.23ZM457.14 539.43L489.52 591.59L494.2 585.11L484.85 570L498.88 552.01L515.43 557.76L520.82 550.93L462.55 532.22L457.14 539.43Z" fill="#1A1A18"/>
<path fill-rule="evenodd" clip-rule="evenodd" d="M478.73 512.45L483.77 517.49L497.79 503.82L532.68 540.51L538.08 535.12L503.19 498.42L517.58 485.11L512.54 480.08L478.73 512.45Z" fill="#1A1A18"/>
<path fill-rule="evenodd" clip-rule="evenodd" d="M528.73 468.21L562.54 514.61L569.02 509.94L534.84 463.53L528.73 468.21Z" fill="#1A1A18"/>
<path fill-rule="evenodd" clip-rule="evenodd" d="M580.53 441.95L584.49 440.15L588.45 439.43L592.41 439.79L596.37 440.87L599.97 442.67L603.57 445.55L606.45 449.15L608.97 453.11L611.13 457.79L612.21 462.47L612.57 466.79L612.21 470.75L610.77 474.71L608.61 477.95L605.73 480.83L602.13 483.35L598.17 484.79L594.22 485.51L590.26 485.15L586.66 484.07L582.7 482.27L579.46 479.39L576.58 476.15L573.7 471.83L571.9 467.15L570.82 462.47L570.46 458.15L570.82 454.19L572.26 450.59L574.06 446.99L576.94 444.11L580.53 441.95ZM577.29 435.83L572.25 439.06L568.29 443.02L565.41 447.34L563.25 452.38L562.53 457.77V463.53L563.97 469.29L566.49 475.41L570.09 480.8L574.05 485.48L578.73 489.08L583.77 491.24L588.8 492.68H594.2L599.95 491.6L605.35 489.44L610.38 485.84L614.7 481.88L617.58 477.56L619.74 472.52L620.46 467.13L620.1 461.37L618.66 455.61L616.14 449.49L612.9 444.09L608.58 439.41L604.26 435.82L599.23 433.66L594.19 432.22H588.43L583.03 433.3L577.29 435.83Z" fill="#1A1A18"/>
<path fill-rule="evenodd" clip-rule="evenodd" d="M625.49 415.69L640.96 471.08L648.16 468.93L635.57 424.32L676.58 461.01L684.85 458.5L669.38 403.46L661.83 405.26L674.42 450.22L634.13 413.17L625.49 415.69Z" fill="#1A1A18"/>
</svg>
