<svg width="168" height="56" viewBox="0 0 168 56" fill="none" xmlns="http://www.w3.org/2000/svg">
<rect width="168" height="56" rx="8" fill="#0C233D"/>
<g clip-path="url(#clip0_2271_1570)">
<path d="M81.8514 19.4749H76.2601L71.916 35.1369L67.6099 19.4749H60.4662L56.1621 35.1369L51.82 19.4749H46.0775V20.1359L52.2734 41.9289H59.8656L63.9835 27.0599L68.1004 41.9289H75.6556L81.8514 20.1359V19.4749Z" fill="white"/>
<path d="M92.6287 18.9849C86.7351 18.9849 82.9585 21.8909 82.5802 26.6849H88.737C89.0773 24.9849 90.4747 24.0029 92.5897 24.0029C95.007 24.0029 96.3672 25.2109 96.7076 27.6639L89.9462 28.3429C84.541 28.8709 81.4841 31.4749 81.4841 35.5509C81.4841 39.8509 84.4309 42.4199 89.4547 42.4199C93.0431 42.4199 95.8007 40.8719 96.8217 38.3059V41.9319H102.94V28.4579C102.938 22.4569 99.1639 18.9859 92.6287 18.9849ZM90.7009 37.5149C88.8121 37.5149 87.7921 36.7979 87.7921 35.4769C87.7921 34.1179 88.8882 33.2509 90.7759 33.0619L96.7436 32.4209C96.5027 33.8469 95.7634 35.1413 94.6572 36.074C93.5509 37.0067 92.1484 37.5173 90.7009 37.5149Z" fill="white"/>
<path d="M122.092 22.1579C121.29 21.1298 120.256 20.3063 119.074 19.7553C117.892 19.2042 116.596 18.9412 115.292 18.9879C109.513 18.9879 105.283 23.9309 105.283 30.6879C105.283 37.4449 109.476 42.4249 115.18 42.4249C116.529 42.4637 117.867 42.1789 119.083 41.5945C120.299 41.0101 121.357 40.143 122.169 39.0659V41.9339H128.287V13.5769H122.093L122.092 22.1579ZM116.839 37.2909C113.78 37.2909 111.701 34.6089 111.701 30.6909C111.701 26.7729 113.779 24.1249 116.876 24.1249C119.973 24.1249 122.165 26.8069 122.165 30.6539C122.165 34.5389 119.936 37.2939 116.839 37.2939V37.2909Z" fill="white"/>
<path d="M141.687 18.9858C135.794 18.9858 132.017 21.8908 131.639 26.6858H137.796C138.136 24.9858 139.533 24.0068 141.648 24.0068C144.066 24.0068 145.426 25.2148 145.766 27.6668L139.005 28.3458C133.6 28.8748 130.543 31.4778 130.543 35.5538C130.543 39.8538 133.489 42.4228 138.513 42.4228C142.102 42.4228 144.859 40.8748 145.88 38.3088V41.9318H151.999V28.4578C152 22.4578 148.222 18.9858 141.687 18.9858ZM139.76 37.5158C137.872 37.5158 136.852 36.7988 136.852 35.4778C136.852 34.1188 137.948 33.2518 139.836 33.0628L145.804 32.4218C145.563 33.8482 144.823 35.1429 143.717 36.0758C142.61 37.0087 141.208 37.5193 139.76 37.5168V37.5158Z" fill="white"/>
<path d="M16 41.9299H39.8806V19.4749H16V41.9299Z" fill="#25B216"/>
<path d="M19.234 25.8999C19.2831 25.7799 19.7675 25.9559 19.7956 25.8249C19.8326 25.6549 19.7125 25.6589 19.7255 25.5519C19.7255 25.5049 19.7665 25.4149 19.8506 25.4089C20.0731 25.399 20.2939 25.3654 20.5093 25.3089C20.6824 25.1979 20.8636 24.9679 20.9827 24.9489C21.295 24.8989 21.6603 25.0299 21.7384 24.8239C21.8165 24.6179 22.318 24.5119 22.4391 24.5169C22.7394 24.4679 22.9576 24.5789 23.2158 24.4709C23.2949 24.4369 23.3019 24.3319 23.5501 24.2709C23.9133 24.2058 24.2829 24.184 24.6512 24.2059C25.3629 24.2059 28.5409 24.2329 30.5758 24.1059C30.8921 24.0849 31.7289 23.9339 32.0502 23.8879C32.4246 23.8339 34.6316 23.6779 35.4975 24.3999C35.6678 24.5019 35.8149 24.6382 35.9293 24.8003C36.0438 24.9623 36.1231 25.1465 36.1621 25.3409C36.3917 25.6397 36.4971 26.0155 36.4564 26.3899C36.4564 28.3529 34.4845 29.1739 32.911 29.0189C30.3466 28.7659 29.74 28.9569 28.2526 28.6919C27.7284 28.6925 27.2047 28.7232 26.6841 28.7839C26.0875 28.7504 25.4946 28.6681 24.9114 28.5379C24.7639 28.4749 24.6063 28.4387 24.446 28.4309C23.9224 28.4627 23.3972 28.4514 22.8755 28.3969C22.7374 28.3749 21.9386 28.3409 21.4041 28.2459C21.317 28.2299 21.1549 28.2139 21.1348 28.1619C21.1111 28.119 21.1027 28.0693 21.1108 28.0209C21.1198 27.9589 21.0908 27.9689 21.0107 27.9489C20.8736 27.9149 20.9857 27.7869 20.9317 27.7689C20.8776 27.7509 20.5993 27.6619 20.5723 27.5509C20.5513 27.4669 20.5813 27.4799 20.7875 27.4799C20.9937 27.4799 20.8446 27.4179 20.7205 27.3199C20.6504 27.2639 20.9747 27.1949 20.8095 27.1419C20.6444 27.0889 20.4272 26.9499 20.253 26.8859C20.1739 26.8569 20.1039 26.8039 20.0308 26.7759L19.9818 26.7579C19.8566 26.7119 19.6815 26.4749 19.5994 26.3989C19.4673 26.2739 19.181 26.0399 19.235 25.9059" fill="white"/>
<path d="M36.1861 35.9259C36.0272 36.2606 35.8033 36.5604 35.5273 36.8078C35.2513 37.0552 34.9288 37.2452 34.5786 37.3669C33.8525 37.5957 33.0828 37.6509 32.3315 37.5279C31.07 37.4064 29.8053 37.3204 28.5389 37.2699C28.1846 37.2599 25.8634 37.2389 25.503 37.1699C24.6132 37.0059 23.1778 36.5589 22.9536 36.5259C22.4942 36.4259 21.8525 36.6319 21.3991 36.4899C21.2582 36.4211 21.1241 36.339 20.9987 36.2449C20.9602 36.2125 20.9182 36.1843 20.8736 36.1609C20.6762 36.1057 20.4757 36.0627 20.2731 36.0319C20.211 36.0129 20.216 35.8499 20.2731 35.8239C20.3001 35.8119 20.2731 35.7239 20.23 35.7039C20.1299 35.6559 19.8747 35.6619 19.8146 35.5909C19.7295 35.4909 19.0459 35.3709 18.9888 35.2299C18.9478 35.1299 19.2891 34.7619 19.3151 34.7239C19.3412 34.6859 19.3151 34.6239 19.3051 34.5989C19.2951 34.5739 19.2641 34.5599 19.3051 34.5369C19.3868 34.5268 19.4692 34.5234 19.5514 34.5269C19.6264 34.5159 19.6655 34.5199 19.7746 34.5059C19.8106 34.5059 19.7906 34.3809 19.9217 34.3499C20.179 34.2879 20.1089 34.1669 19.9958 34.0999C19.9437 34.0709 19.9337 33.9629 19.9237 33.9259C19.8897 33.7709 20.0128 33.8919 20.1239 33.7559C20.176 33.6939 20.214 33.5489 20.1449 33.4929C20.1219 33.4749 20.1069 33.4249 20.1449 33.4079C20.1666 33.3973 20.189 33.3882 20.212 33.3809C20.6474 33.2912 21.0899 33.2403 21.5342 33.2289C21.753 33.1721 21.9589 33.074 22.1408 32.9399C22.2982 32.8226 22.4766 32.7363 22.6663 32.6859C25.2097 32.2859 29.5098 32.5859 31.0062 32.4399C32.7789 32.2639 35.5636 31.8129 36.3853 33.9839C36.565 34.6324 36.4935 35.3247 36.1851 35.9229" fill="white"/>
</g>
<defs>
<clipPath id="clip0_2271_1570">
<rect width="136" height="28.846" fill="white" transform="translate(16 13.5769)"/>
</clipPath>
</defs>
</svg>
