<svg width="166" height="56" viewBox="0 0 166 56" fill="none" xmlns="http://www.w3.org/2000/svg">
<rect width="165.333" height="56" rx="8" fill="#0C233D"/>
<g clip-path="url(#clip0_2271_1534)">
<path d="M54.742 29.6588V17.0735H49.2696V33.8541H64.1227V29.6588H54.742Z" fill="white"/>
<path d="M122.598 17.0735V27.9808C122.581 28.4334 122.406 28.8626 122.107 29.1826C121.808 29.5026 121.408 29.6901 120.986 29.7075H114.824C114.402 29.6905 114.002 29.503 113.704 29.1827C113.405 28.8624 113.23 28.4328 113.215 27.9801V17.0735H108.526V27.9808C108.526 31.7468 110.981 33.8541 113.998 33.8541H121.816C124.833 33.8541 127.288 31.7468 127.288 27.9808V17.0735H122.598Z" fill="white"/>
<path d="M102.272 17.0735H88.113V33.8541H93.5854V21.3015H102.272C102.48 21.302 102.678 21.3906 102.825 21.5479C102.971 21.7052 103.054 21.9184 103.054 22.1408V24.2075C103.054 24.4299 102.971 24.6431 102.825 24.8004C102.678 24.9577 102.48 25.0463 102.272 25.0468H95.0097V29.2735H102.272C103.518 29.264 104.711 28.726 105.589 27.7768C106.467 26.8277 106.96 25.5444 106.959 24.2068V22.1095C106.959 20.775 106.464 19.4954 105.586 18.5513C104.707 17.6072 103.515 17.0758 102.272 17.0735Z" fill="white"/>
<path d="M70.005 33.8537L71.2013 31.3397H80.759L81.9541 33.8563H87.2184L79.2508 17.073H72.707L64.7413 33.8537H70.005ZM75.9792 21.2703L78.7663 27.1417H73.189L75.9792 21.2703Z" fill="white"/>
<path d="M132.121 33.8537L133.316 31.337H142.874L144.069 33.8537H149.333L141.367 17.073H134.823L126.857 33.853L132.121 33.8537ZM138.095 21.273L140.882 27.1443H135.307L138.095 21.273Z" fill="white"/>
<path d="M41.4524 37.1707L28.7262 44L16 37.1707V12H41.4524V37.1707Z" fill="#C8102E"/>
<path d="M28.7262 42.0365L17.6362 36.0851V13.7551H39.8157V36.0845L28.7262 42.0365ZM18.7257 35.3618L28.7262 40.7278L38.7268 35.3618V14.9265H18.7257V35.3618Z" fill="white"/>
<path d="M27.0902 29.558V19.0247H23.0906V33.0733H34.3621V29.558H27.0902Z" fill="white"/>
</g>
<defs>
<clipPath id="clip0_2271_1534">
<rect width="133.333" height="32" fill="white" transform="translate(16 12)"/>
</clipPath>
</defs>
</svg>
