<svg width="56" height="56" viewBox="0 0 56 56" fill="none" xmlns="http://www.w3.org/2000/svg">
<rect width="56" height="56" rx="8" fill="#0C233D"/>
<g clip-path="url(#clip0_2271_1551)">
<mask id="mask0_2271_1551" style="mask-type:luminance" maskUnits="userSpaceOnUse" x="6" y="8" width="44" height="40">
<path d="M6.61765 8H49.3763V48H6.61765V8Z" fill="white"/>
</mask>
<g mask="url(#mask0_2271_1551)">
<path d="M31.9475 31.782C32.2353 30.6159 32.9031 29.5786 33.8454 28.8338C34.8302 28.0524 35.9902 27.6572 37.1351 27.6414C36.8496 28.8082 36.182 29.846 35.2385 30.5896C34.2537 31.3793 33.093 31.7738 31.9475 31.782Z" fill="white"/>
<path d="M48.015 18.6987L30.2185 24.9345C28.9771 25.369 26.9357 25.369 25.6874 24.9345L7.97846 18.7069C6.73018 18.2725 6.24949 18.6587 6.90605 19.569L17.3936 33.0635C17.1936 31.718 16.8171 30.1394 17.3771 28.06L20.5557 36.7863L20.5957 36.7621C21.7564 36.1014 22.8529 35.3276 23.7419 34.7L24.3743 34.2649L27.0881 32.1938C29.9543 29.9304 33.5247 27.118 36.7192 26.0311C39.4171 25.1125 42.0592 25.1042 44.1088 25.9587L49.0723 19.5697C49.7447 18.6594 49.2564 18.2649 48.015 18.6994V18.6987Z" fill="#FF4D00"/>
<path d="M31.1157 43.5449L30.755 43.867C29.4398 44.9942 28.0096 45.9798 26.4881 46.8077L26.8081 47.3153C27.4646 48.2256 28.5378 48.2256 29.1943 47.3153L31.5557 43.5449H31.1157ZM31.5474 43.5449L32.0833 42.6829C31.7602 42.973 31.4347 43.2603 31.1067 43.5449H31.5474Z" fill="#0D0D0D"/>
<path d="M18.6344 46.6139C16.5213 46.6464 14.5275 45.7843 13.2785 44.3022C12.6861 43.6008 12.0219 42.4732 12.0219 40.9588C12.0219 40.8139 12.0295 40.6526 12.0461 40.4995C12.1578 39.1381 12.6061 37.7684 13.3668 36.7932C13.3909 37.1243 13.4309 37.4464 13.5268 37.7201C14.0233 39.1946 14.9199 39.847 15.584 40.1291C16.8013 40.6443 18.3061 40.4595 20.2516 39.5567C20.2757 39.6291 20.2916 39.6939 20.324 39.7664L20.4116 39.9677L20.5564 40.1208C20.8599 40.4512 21.2047 40.7574 21.5406 41.047C21.7806 41.2567 21.9971 41.4498 22.1813 41.6353L22.1571 41.9574C22.1413 42.1436 22.1171 42.3526 22.1171 42.5622C22.1171 42.9001 22.1654 43.2629 22.3254 43.6257L22.3571 43.6981L22.7337 44.3022C23.0137 44.7532 23.2854 45.1884 23.5102 45.6236C21.9088 46.2443 20.2675 46.5898 18.6344 46.6139ZM47.2316 31.0332C46.0385 26.3684 41.4357 25.4581 37.0406 26.9567C32.8454 28.3746 27.6895 33.1601 24.9275 35.0698C24.015 35.6974 22.5895 36.7533 21.0847 37.6146C18.4916 39.0974 15.6488 40.0243 14.7206 37.2526C14.4082 36.3181 14.7688 34.0457 15.8971 34.0222C12.9033 34.0946 11.0861 37.0836 10.7978 40.3788C10.4295 44.616 14.104 48.0726 18.6592 47.9995C21.0771 47.9677 23.2626 47.3312 25.2082 46.405C27.0978 45.5105 28.7461 44.3264 30.1475 43.1339C33.1578 40.5636 36.3357 37.0677 37.993 38.2926C37.993 38.2926 41.3792 40.4188 36.0075 44.447L36.0157 44.536C37.553 44.8822 39.1937 44.2532 40.5392 43.5043C41.6357 42.8919 42.7164 42.1753 43.5806 41.1926C45.2944 39.227 46.5909 37.3981 47.2633 34.7953C47.4799 33.9498 47.4475 31.887 47.2316 31.0332Z" fill="#FF4D00"/>
<path d="M24.2625 31.782C23.9749 30.616 23.3074 29.5787 22.3653 28.8338C21.3805 28.0524 20.2198 27.6572 19.075 27.6414C19.3638 28.8069 20.031 29.8438 20.9722 30.5896C21.9023 31.3484 23.0623 31.7684 24.2625 31.782Z" fill="white"/>
<path d="M21.1246 28.0442C21.1246 28.0442 21.8129 30.1394 22.0453 30.3649C22.277 29.7849 22.4618 28.2545 22.4618 28.2545L21.1246 28.0442Z" fill="#FF4D00"/>
<path d="M29.9143 9.94946C28.6729 9.49843 27.4246 9.53843 26.2239 9.72394C25.9674 9.77222 25.5274 9.95774 25.3274 9.95774C25.1826 9.81291 25.0626 9.66808 25.095 9.5867C25.5991 9.5867 25.7515 9.47429 26.0474 9.05567C26.5281 9.05567 26.9281 9.65912 27.6246 8.95912L27.6805 8.94256C28.0736 9.33705 28.6895 9.45774 29.2184 9.06325C29.586 9.24877 29.4501 9.50601 30.2426 9.60325C30.1626 9.75636 30.0501 9.91705 29.9143 9.94946ZM29.5301 10.5453L29.4901 10.5536C29.2819 10.497 29.0819 10.4412 28.8819 10.3922L28.8736 10.3439C29.0253 10.1908 28.9219 10.0943 28.9219 9.98188C29.0177 9.98188 29.4667 10.046 29.6584 10.175C29.586 10.2715 29.4977 10.3281 29.5301 10.5453ZM27.8729 9.96601L27.8246 9.87636C27.9853 9.84463 28.3212 9.82808 28.5695 9.9336C28.5612 10.0702 28.5536 10.1991 28.5377 10.3439L28.4895 10.3522C28.2729 10.3281 28.0488 10.3122 27.8329 10.2957C27.8812 10.1591 27.8812 10.0543 27.8729 9.96532V9.96601ZM27.4729 10.3122C27.2563 10.3198 27.0322 10.3364 26.8163 10.3605C26.7681 10.2157 26.7281 10.0708 26.6963 9.93291C26.9122 9.88463 27.1846 9.88463 27.4563 9.86877L27.4888 9.90946C27.3288 10.0943 27.5288 10.1908 27.4729 10.3122ZM27.6005 10.8433C27.0563 10.8433 26.6157 10.7633 26.1915 10.7391L26.1757 10.715C26.5205 10.5453 28.7536 10.377 29.0977 10.7226C28.9695 10.8439 27.7129 10.8439 27.6012 10.8439L27.6005 10.8433ZM25.6474 10.1991C25.6474 10.0702 26.2157 10.006 26.3757 9.98188C26.3839 10.1184 26.3998 10.2557 26.4157 10.4005C26.3281 10.4895 25.8315 10.5377 25.7674 10.5453C25.7357 10.3764 25.7591 10.2474 25.6474 10.1991ZM30.3626 9.11153C30.275 9.62739 29.4977 9.25636 29.4977 8.9667C30.0584 8.78119 29.5701 8.50739 29.5701 8.48325C29.6343 8.03222 28.7936 8.33843 29.0977 8.86187C28.8895 9.2805 27.9612 9.07153 27.8563 8.73291C28.1853 8.57153 28.0495 8.33015 27.8246 8.24119C27.8088 8.16877 27.7846 8.08808 27.7763 8.00808C27.5363 7.98394 27.4805 7.96739 27.4805 8.2336C27.1681 8.44256 27.177 8.49912 27.4563 8.78946C27.2646 9.17567 26.3598 9.15153 26.2081 8.84601C26.5115 8.59567 26.3039 8.43498 26.0474 8.41084C25.8232 7.90325 25.215 8.95843 25.8074 8.95843C25.8074 9.31291 25.1908 9.44187 24.9591 9.32119C24.9191 8.95843 24.7591 8.82187 24.5184 9.05498C24.2784 9.10325 23.9819 8.84601 23.8784 9.06325C23.9184 9.15153 24.8708 9.80463 25.1508 10.1991C25.7357 11.3108 26.0715 11.0853 27.4729 11.1502C28.137 11.1336 29.0577 11.1502 29.7626 10.9157C29.9067 10.6184 30.0501 10.2315 30.2343 10.0467C30.395 9.64325 31.3308 9.23291 31.3308 9.03084C31.1715 8.9667 30.4274 8.99912 30.3626 9.11153Z" fill="white"/>
<path d="M26.024 9.53859L26.0964 9.63514C26.5764 9.53859 26.024 9.07169 26.024 9.53859ZM29.0978 9.63583H29.1778C29.6819 9.3048 28.5613 9.27307 29.0978 9.63583ZM27.7213 9.19238L27.5695 9.20824C27.5054 9.3048 27.4413 9.32962 27.6013 9.491C27.8171 9.4979 27.8413 9.28893 27.7213 9.19238ZM15.5764 18.5138L14.6316 15.5324L14.3192 15.6372L14.8075 18.1586C14.8792 18.4972 14.7351 18.8434 14.3992 18.9482L14.1992 19.0131L14.0468 18.5138L14.1433 18.4889C14.2709 18.4489 14.2868 18.3282 14.2626 18.2234L13.6944 15.291L15.0233 14.8634L16.1282 18.3365L15.5764 18.5138ZM18.7461 17.6676L18.2661 15.5482L18.0578 17.8282L17.473 17.9655L16.6488 14.4048L17.2088 14.2758L17.6971 16.3862L17.9054 14.1145L18.4902 13.9772L19.3068 17.5303L18.7461 17.6676ZM21.7571 17.16L21.2688 17.2324C20.9323 17.2889 20.6123 17.0476 20.5557 16.7089L20.1799 14.2434C20.1316 13.8972 20.364 13.5745 20.6999 13.5262L21.1888 13.4462C21.3524 13.4238 21.5183 13.466 21.6513 13.5639C21.7843 13.6617 21.8739 13.8075 21.9013 13.9703L21.973 14.4289L21.4047 14.5179L21.3488 14.1634C21.333 14.0586 21.2447 13.962 21.1247 13.9862L20.9247 14.0179C20.7964 14.042 20.7482 14.1551 20.764 14.2593L21.1088 16.5158C21.1247 16.62 21.2047 16.7172 21.333 16.6931L21.533 16.6607C21.6606 16.6441 21.7088 16.5234 21.693 16.4193L21.6447 16.1131L22.213 16.0241L22.2771 16.4269C22.3254 16.7813 22.093 17.1034 21.7571 17.16ZM25.2868 16.0965L25.2061 15.1703C25.1999 15.0884 25.1776 15.0086 25.1404 14.9354C25.1031 14.8622 25.0518 14.7971 24.9893 14.7439C24.9267 14.6907 24.8543 14.6503 24.7761 14.6253C24.6979 14.6002 24.6155 14.5909 24.5337 14.5979L24.0054 14.6462L23.8854 13.1882L23.3171 13.2365L23.6213 16.8696L24.7178 16.7813C25.0626 16.7413 25.3178 16.4434 25.2868 16.0965ZM24.7102 16.04C24.7178 16.1448 24.6619 16.2579 24.5337 16.2655L24.1495 16.2979L24.053 15.1538L24.4378 15.122C24.4645 15.1195 24.4914 15.1226 24.5168 15.1312C24.5422 15.1398 24.5655 15.1537 24.5852 15.172C24.6049 15.1902 24.6204 15.2124 24.6309 15.237C24.6414 15.2617 24.6466 15.2883 24.6461 15.3151L24.7102 16.04ZM28.3054 16.6441L28.2488 12.9951L27.1523 13.011C26.9862 13.0139 26.828 13.0825 26.7125 13.2019C26.5969 13.3212 26.5333 13.4815 26.5357 13.6476L26.544 14.3724C26.5411 14.4529 26.5587 14.5329 26.5951 14.6048C26.6315 14.6767 26.6856 14.7381 26.7523 14.7834C26.624 14.8724 26.5523 15.0089 26.5523 15.211L26.5757 16.6689L27.1523 16.6607L27.1364 15.3069C27.1364 15.1945 27.2006 15.0896 27.3282 15.0896L27.7047 15.0813L27.7288 16.6441H28.3054ZM27.6964 14.5662L27.3206 14.5738C27.1923 14.5738 27.1282 14.4689 27.1206 14.3648L27.1123 13.7441C27.1123 13.6393 27.1764 13.5345 27.3047 13.5269L27.6806 13.5186L27.6964 14.5662ZM31.9488 16.8213L32.0764 15.2586L31.3882 15.202L31.2599 16.7655L30.6833 16.7172L30.9799 13.0834L31.5557 13.1234L31.4282 14.6869L32.1164 14.7434L32.2447 13.1882L32.813 13.2282L32.5247 16.8696L31.9488 16.8213ZM35.7109 16.7331L36.0951 14.2676C36.1086 14.1862 36.1058 14.103 36.0869 14.0227C36.068 13.9424 36.0333 13.8667 35.9848 13.7999C35.9364 13.7332 35.8751 13.6768 35.8047 13.6339C35.7342 13.5911 35.6559 13.5626 35.5744 13.5503L35.0861 13.4703C35.0049 13.4577 34.922 13.4612 34.8422 13.4807C34.7624 13.5002 34.6873 13.5353 34.6211 13.5839C34.5549 13.6326 34.4989 13.6938 34.4565 13.7642C34.414 13.8345 34.3859 13.9125 34.3737 13.9938L33.9895 16.4586C33.9766 16.5398 33.9797 16.6228 33.9988 16.7029C34.0179 16.7829 34.0526 16.8584 34.1009 16.925C34.1492 16.9916 34.2101 17.048 34.2803 17.0911C34.3504 17.1341 34.4283 17.1629 34.5095 17.1758L34.9985 17.2482C35.3344 17.3131 35.6544 17.0793 35.7109 16.7331ZM35.1585 16.54C35.1419 16.6441 35.0544 16.7331 34.9344 16.7165L34.7344 16.6848C34.6061 16.6607 34.5578 16.5476 34.5737 16.4434L34.9261 14.1869C34.9419 14.082 35.0226 13.9855 35.1502 14.0096L35.3502 14.042C35.4785 14.0662 35.5268 14.1793 35.5102 14.2834L35.1585 16.5393V16.54ZM39.1364 15.9351L39.3447 15.0248C39.3637 14.9451 39.3668 14.8625 39.3537 14.7816C39.3407 14.7008 39.3117 14.6233 39.2686 14.5537C39.2254 14.484 39.1689 14.4237 39.1024 14.376C39.0358 14.3283 38.9604 14.2943 38.8806 14.2758L37.8075 14.0262L36.9826 17.5793L37.5433 17.7076L37.8716 16.282L38.384 16.4027C38.4641 16.4216 38.5472 16.4245 38.6284 16.4113C38.7097 16.398 38.7875 16.3688 38.8574 16.3253C38.9273 16.2819 38.988 16.225 39.0359 16.1581C39.0837 16.0911 39.1179 16.0154 39.1364 15.9351ZM38.5999 15.702C38.5764 15.8069 38.4882 15.8951 38.3599 15.8627L37.984 15.7745L38.2399 14.6545L38.6164 14.7427C38.7364 14.7676 38.784 14.8958 38.7606 14.9931L38.5999 15.702ZM41.7868 18.9082L42.2192 15.2186L41.4502 14.9772L39.6971 18.2476L40.2419 18.4248L40.5454 17.8607L41.3061 18.102L41.2344 18.7393L41.7868 18.9082ZM41.3702 17.5786L40.802 17.3938L41.5302 16.0317L41.5385 15.9917L41.5626 16L41.5468 16.04L41.3702 17.5786ZM22.3737 43.6979L22.3413 43.6255C22.173 43.2627 22.133 42.9 22.133 42.562C22.133 42.3524 22.1488 42.1427 22.173 41.9572C22.173 41.8607 22.1888 41.74 22.1971 41.6351C21.9904 41.4319 21.7767 41.2359 21.5564 41.0476C21.2132 40.7551 20.8848 40.4458 20.5723 40.1207L20.4275 39.9676L20.3399 39.7662C20.3082 39.6938 20.2999 39.6289 20.2682 39.5565C18.3226 40.4593 16.8171 40.6441 15.6006 40.1289C14.9357 39.8462 14.0392 39.202 13.5426 37.72C13.4468 37.4462 13.4068 37.1234 13.3826 36.7938C12.6226 37.7765 12.1826 39.1379 12.0619 40.4993C12.0461 40.6519 12.0381 40.8052 12.0378 40.9586C12.0378 42.4813 12.7026 43.6089 13.2868 44.302C14.5351 45.7765 16.5288 46.6386 18.6426 46.6145C20.2757 46.5903 21.9171 46.2517 23.5261 45.6234C23.302 45.1882 23.0295 44.7531 22.7495 44.302L22.3737 43.6979Z" fill="white"/>
</g>
</g>
<defs>
<clipPath id="clip0_2271_1551">
<rect width="42.7586" height="40" fill="white" transform="translate(6.61765 8)"/>
</clipPath>
</defs>
</svg>
